<svg xmlns="http://www.w3.org/2000/svg" xmlns:xlink="http://www.w3.org/1999/xlink" width="576" zoomAndPan="magnify" viewBox="0 0 432 431.999984" height="576" preserveAspectRatio="xMidYMid meet" version="1.0"><defs><clipPath id="1fc5eb91de"><path d="M 107 123 L 325 123 L 325 310.5625 L 107 310.5625 Z M 107 123 " clip-rule="nonzero"/></clipPath></defs><path fill="#ffffff" d="M 183.980469 187.460938 C 182.394531 187.460938 181.109375 188.746094 181.109375 190.332031 L 181.109375 200.246094 C 181.109375 201.835938 182.394531 203.121094 183.980469 203.121094 C 185.566406 203.121094 186.851562 201.835938 186.851562 200.246094 L 186.851562 190.332031 C 186.851562 188.746094 185.566406 187.460938 183.980469 187.460938 " fill-opacity="1" fill-rule="nonzero"/><g clip-path="url(#1fc5eb91de)"><path fill="#ffffff" d="M 318.746094 167.09375 C 317.21875 175.9375 310.714844 181.703125 299.988281 183.953125 C 289.5 163.292969 275.007812 150.542969 261 142.679688 C 263.335938 139.171875 268.683594 132.496094 277.105469 129.878906 C 284.523438 127.574219 292.777344 128.886719 301.667969 133.734375 C 312.976562 139.914062 320.796875 155.1875 318.746094 167.09375 Z M 295.851562 274.671875 C 285.640625 287.632812 270.511719 294.992188 255.914062 299.199219 C 260.691406 295.800781 264.949219 291.597656 268.039062 286.429688 C 274 276.460938 274.675781 264.480469 269.984375 251.765625 C 264.28125 236.300781 252.773438 227.824219 241.835938 223.132812 C 241.519531 222.917969 241.171875 222.777344 240.785156 222.703125 C 228.023438 217.492188 216.332031 217.34375 216.015625 217.34375 L 216.007812 217.34375 C 215.683594 217.34375 203.992188 217.492188 191.230469 222.695312 C 190.828125 222.773438 190.46875 222.917969 190.144531 223.140625 C 179.210938 227.832031 167.710938 236.308594 162.011719 251.765625 C 157.320312 264.480469 157.996094 276.460938 163.957031 286.429688 C 167.046875 291.597656 171.304688 295.804688 176.085938 299.199219 C 161.488281 294.992188 146.355469 287.636719 136.144531 274.679688 C 124.1875 259.496094 121.203125 238.992188 127.28125 213.726562 C 136.378906 175.933594 156.605469 156.457031 175.472656 146.410156 C 175.722656 146.359375 175.980469 146.324219 176.222656 146.203125 C 176.457031 146.085938 176.628906 145.90625 176.816406 145.738281 C 195.34375 136.273438 212.265625 135.730469 215.582031 135.730469 C 215.808594 135.730469 215.972656 135.730469 216.070312 135.734375 C 216.59375 135.753906 285.761719 134.992188 304.714844 213.726562 C 310.792969 238.992188 307.808594 259.496094 295.851562 274.671875 Z M 216.003906 242.003906 C 199.160156 242.003906 195.585938 231.789062 194.824219 227.410156 C 205.894531 223.207031 215.78125 223.089844 216.007812 223.089844 C 216.234375 223.089844 226.121094 223.207031 237.195312 227.414062 C 236.472656 231.800781 232.972656 242.003906 216.003906 242.003906 Z M 204.246094 304.199219 C 192.085938 302.460938 176.4375 296.121094 168.886719 283.480469 C 163.777344 274.933594 163.273438 264.933594 167.398438 253.753906 C 171.921875 241.480469 180.667969 234.171875 189.511719 229.757812 C 191 235.886719 196.085938 246.492188 213.121094 247.597656 L 213.121094 271.441406 C 198.417969 270.859375 190.492188 266.164062 190.414062 266.117188 C 189.042969 265.285156 187.292969 265.691406 186.457031 267.035156 C 185.617188 268.371094 186.015625 270.136719 187.355469 270.980469 C 187.765625 271.242188 197.578125 277.296875 215.992188 277.296875 C 234.417969 277.296875 244.230469 271.242188 244.640625 270.980469 C 245.984375 270.136719 246.378906 268.371094 245.542969 267.035156 C 244.703125 265.691406 242.953125 265.285156 241.582031 266.117188 C 241.503906 266.164062 233.578125 270.859375 218.867188 271.441406 L 218.867188 247.597656 C 235.910156 246.496094 240.996094 235.886719 242.484375 229.757812 C 251.324219 234.171875 260.070312 241.480469 264.597656 253.753906 C 268.722656 264.933594 268.21875 274.933594 263.109375 283.480469 C 255.558594 296.121094 239.914062 302.460938 227.753906 304.199219 C 222.824219 304.585938 218.714844 304.699219 215.992188 304.699219 C 213.277344 304.699219 209.171875 304.585938 204.246094 304.199219 Z M 113.25 167.09375 C 111.199219 155.1875 119.019531 139.914062 130.328125 133.734375 C 139.230469 128.886719 147.476562 127.574219 154.890625 129.878906 C 163.3125 132.496094 168.65625 139.167969 170.996094 142.679688 C 156.980469 150.550781 142.492188 163.304688 132.007812 183.953125 C 121.28125 181.707031 114.777344 175.9375 113.25 167.09375 Z M 304.421875 128.691406 C 294.078125 123.046875 284.308594 121.585938 275.332031 124.414062 C 264.847656 127.699219 258.496094 135.890625 255.882812 139.976562 C 234.898438 129.785156 216.351562 129.992188 216.070312 129.988281 C 215.558594 129.960938 197.03125 129.808594 176.117188 139.976562 C 173.5 135.890625 167.148438 127.699219 156.664062 124.414062 C 147.679688 121.585938 137.910156 123.046875 127.574219 128.691406 C 114.082031 136.0625 105.121094 153.726562 107.59375 168.070312 C 108.699219 174.484375 113.1875 185.257812 129.519531 189.210938 C 126.441406 196.117188 123.773438 203.777344 121.703125 212.378906 C 115.1875 239.449219 118.53125 261.605469 131.628906 278.230469 C 150.261719 301.875 183.492188 308.246094 203.441406 309.886719 C 203.484375 309.894531 203.527344 309.90625 203.570312 309.914062 C 203.601562 309.914062 203.625 309.902344 203.660156 309.90625 C 208.828125 310.324219 213.144531 310.441406 215.992188 310.441406 C 218.789062 310.441406 222.980469 310.332031 228.019531 309.933594 C 228.019531 309.933594 228.027344 309.9375 228.03125 309.9375 C 228.15625 309.9375 228.292969 309.929688 228.425781 309.914062 C 228.46875 309.90625 228.515625 309.890625 228.5625 309.886719 C 248.511719 308.246094 281.738281 301.871094 300.367188 278.230469 C 313.464844 261.605469 316.808594 239.449219 310.292969 212.378906 C 308.222656 203.773438 305.554688 196.113281 302.476562 189.210938 C 318.808594 185.257812 323.296875 174.484375 324.402344 168.070312 C 326.875 153.726562 317.914062 136.0625 304.421875 128.691406 " fill-opacity="1" fill-rule="nonzero"/></g><path fill="#ffffff" d="M 248.015625 187.460938 C 246.429688 187.460938 245.144531 188.746094 245.144531 190.332031 L 245.144531 200.246094 C 245.144531 201.835938 246.429688 203.121094 248.015625 203.121094 C 249.601562 203.121094 250.886719 201.835938 250.886719 200.246094 L 250.886719 190.332031 C 250.886719 188.746094 249.601562 187.460938 248.015625 187.460938 " fill-opacity="1" fill-rule="nonzero"/></svg>