<svg xmlns="http://www.w3.org/2000/svg" xmlns:xlink="http://www.w3.org/1999/xlink" width="576" zoomAndPan="magnify" viewBox="0 0 432 431.999984" height="576" preserveAspectRatio="xMidYMid meet" version="1.0"><defs><clipPath id="abe21508f6"><path d="M 107 123 L 325 123 L 325 310.5625 L 107 310.5625 Z M 107 123 " clip-rule="nonzero"/></clipPath></defs><path fill="#100f0d" d="M 183.910156 187.507812 C 182.324219 187.507812 181.039062 188.792969 181.039062 190.378906 L 181.039062 200.300781 C 181.039062 201.890625 182.324219 203.175781 183.910156 203.175781 C 185.492188 203.175781 186.78125 201.890625 186.78125 200.300781 L 186.78125 190.378906 C 186.78125 188.792969 185.492188 187.507812 183.910156 187.507812 " fill-opacity="1" fill-rule="nonzero"/><g clip-path="url(#abe21508f6)"><path fill="#100f0d" d="M 318.554688 167.125 C 317.027344 175.972656 310.53125 181.746094 299.8125 183.996094 C 289.332031 163.320312 274.855469 150.5625 260.863281 142.695312 C 263.195312 139.183594 268.535156 132.503906 276.953125 129.882812 C 284.363281 127.578125 292.609375 128.890625 301.492188 133.742188 C 312.792969 139.925781 320.601562 155.210938 318.554688 167.125 Z M 295.679688 274.777344 C 285.480469 287.746094 270.363281 295.109375 255.777344 299.320312 C 260.554688 295.921875 264.804688 291.714844 267.894531 286.539062 C 273.847656 276.566406 274.523438 264.578125 269.835938 251.855469 C 264.140625 236.378906 252.640625 227.894531 241.714844 223.199219 C 241.398438 222.988281 241.050781 222.84375 240.664062 222.769531 C 227.914062 217.558594 216.230469 217.410156 215.917969 217.410156 L 215.910156 217.410156 C 215.585938 217.410156 203.902344 217.558594 191.152344 222.765625 C 190.753906 222.839844 190.390625 222.988281 190.070312 223.210938 C 179.144531 227.90625 167.652344 236.386719 161.960938 251.855469 C 157.273438 264.578125 157.949219 276.566406 163.90625 286.539062 C 166.992188 291.714844 171.246094 295.921875 176.023438 299.320312 C 161.4375 295.109375 146.320312 287.75 136.117188 274.78125 C 124.167969 259.589844 121.1875 239.070312 127.261719 213.789062 C 136.351562 175.972656 156.5625 156.480469 175.410156 146.425781 C 175.660156 146.375 175.917969 146.34375 176.160156 146.21875 C 176.390625 146.101562 176.566406 145.921875 176.75 145.753906 C 195.261719 136.28125 212.171875 135.742188 215.484375 135.742188 C 215.707031 135.742188 215.871094 135.742188 215.96875 135.742188 C 216.492188 135.761719 285.597656 135.003906 304.535156 213.789062 C 310.609375 239.070312 307.628906 259.589844 295.679688 274.777344 Z M 215.902344 242.085938 C 199.078125 242.085938 195.503906 231.863281 194.742188 227.484375 C 205.800781 223.277344 215.683594 223.15625 215.910156 223.15625 C 216.132812 223.15625 226.011719 223.277344 237.074219 227.488281 C 236.351562 231.875 232.859375 242.085938 215.902344 242.085938 Z M 204.15625 304.324219 C 192.007812 302.585938 176.375 296.238281 168.828125 283.59375 C 163.726562 275.039062 163.222656 265.03125 167.339844 253.84375 C 171.863281 241.5625 180.601562 234.25 189.433594 229.828125 C 190.921875 235.964844 196.003906 246.578125 213.027344 247.683594 L 213.027344 271.542969 C 198.332031 270.960938 190.414062 266.265625 190.335938 266.214844 C 188.96875 265.386719 187.222656 265.789062 186.382812 267.132812 C 185.546875 268.472656 185.941406 270.238281 187.28125 271.082031 C 187.691406 271.34375 197.496094 277.40625 215.894531 277.40625 C 234.300781 277.40625 244.105469 271.34375 244.515625 271.082031 C 245.855469 270.238281 246.25 268.472656 245.414062 267.132812 C 244.578125 265.789062 242.828125 265.386719 241.460938 266.214844 C 241.382812 266.265625 233.464844 270.960938 218.765625 271.542969 L 218.765625 247.683594 C 235.792969 246.582031 240.875 235.964844 242.363281 229.828125 C 251.191406 234.25 259.933594 241.5625 264.457031 253.84375 C 268.574219 265.03125 268.070312 275.039062 262.96875 283.59375 C 255.421875 296.238281 239.792969 302.585938 227.644531 304.324219 C 222.71875 304.710938 218.613281 304.824219 215.894531 304.824219 C 213.179688 304.824219 209.078125 304.710938 204.15625 304.324219 Z M 113.242188 167.125 C 111.195312 155.210938 119.003906 139.925781 130.304688 133.742188 C 139.199219 128.890625 147.441406 127.578125 154.84375 129.882812 C 163.257812 132.503906 168.601562 139.179688 170.933594 142.691406 C 156.933594 150.570312 142.460938 163.335938 131.984375 183.996094 C 121.265625 181.746094 114.769531 175.976562 113.242188 167.125 Z M 304.242188 128.695312 C 293.910156 123.050781 284.148438 121.585938 275.179688 124.414062 C 264.707031 127.703125 258.359375 135.898438 255.746094 139.988281 C 234.78125 129.789062 216.253906 130 215.96875 129.996094 C 215.457031 129.964844 196.949219 129.816406 176.050781 139.988281 C 173.441406 135.898438 167.089844 127.703125 156.617188 124.414062 C 147.640625 121.585938 137.882812 123.050781 127.554688 128.695312 C 114.074219 136.074219 105.121094 153.75 107.59375 168.101562 C 108.695312 174.519531 113.179688 185.300781 129.5 189.257812 C 126.425781 196.167969 123.753906 203.832031 121.6875 212.441406 C 115.175781 239.527344 118.519531 261.699219 131.605469 278.339844 C 150.21875 302 183.421875 308.375 203.351562 310.015625 C 203.394531 310.023438 203.441406 310.035156 203.480469 310.042969 C 203.511719 310.042969 203.539062 310.03125 203.570312 310.035156 C 208.738281 310.453125 213.046875 310.570312 215.894531 310.570312 C 218.6875 310.570312 222.875 310.460938 227.910156 310.0625 C 227.910156 310.0625 227.914062 310.066406 227.921875 310.066406 C 228.046875 310.066406 228.179688 310.058594 228.316406 310.042969 C 228.359375 310.035156 228.40625 310.019531 228.449219 310.015625 C 248.382812 308.371094 281.578125 301.992188 300.191406 278.339844 C 313.277344 261.699219 316.621094 239.527344 310.109375 212.441406 C 308.039062 203.828125 305.371094 196.164062 302.296875 189.257812 C 318.617188 185.300781 323.101562 174.519531 324.203125 168.101562 C 326.675781 153.75 317.722656 136.074219 304.242188 128.695312 " fill-opacity="1" fill-rule="nonzero"/></g><path fill="#100f0d" d="M 247.886719 187.507812 C 246.304688 187.507812 245.015625 188.792969 245.015625 190.378906 L 245.015625 200.300781 C 245.015625 201.890625 246.304688 203.175781 247.886719 203.175781 C 249.472656 203.175781 250.757812 201.890625 250.757812 200.300781 L 250.757812 190.378906 C 250.757812 188.792969 249.472656 187.507812 247.886719 187.507812 " fill-opacity="1" fill-rule="nonzero"/></svg>