<svg xmlns="http://www.w3.org/2000/svg" xmlns:xlink="http://www.w3.org/1999/xlink" width="576" zoomAndPan="magnify" viewBox="0 0 432 431.999984" height="576" preserveAspectRatio="xMidYMid meet" version="1.0"><defs><clipPath id="e3f97a6718"><path d="M 106 87 L 325 87 L 325 349 L 106 349 Z M 106 87 " clip-rule="nonzero"/></clipPath><clipPath id="69a7025d11"><path d="M 115.257812 75.226562 L 335.945312 90.984375 L 316.980469 356.558594 L 96.292969 340.800781 Z M 115.257812 75.226562 " clip-rule="nonzero"/></clipPath><clipPath id="e97d63b604"><path d="M 115.257812 75.226562 L 335.945312 90.984375 L 316.980469 356.558594 L 96.292969 340.800781 Z M 115.257812 75.226562 " clip-rule="nonzero"/></clipPath></defs><g clip-path="url(#e3f97a6718)"><g clip-path="url(#69a7025d11)"><g clip-path="url(#e97d63b604)"><path fill="#ffffff" d="M 212.859375 323.886719 C 211.273438 322.015625 209.046875 322.421875 207.039062 322.367188 C 198.949219 322.164062 191.066406 320.503906 183.167969 319.011719 C 180.789062 318.5625 178.492188 317.640625 176.164062 316.914062 C 168.269531 314.445312 163.558594 309.089844 163.539062 300.832031 C 163.527344 295.53125 160.929688 293.496094 156.679688 291.714844 C 151.859375 289.691406 147.207031 287.222656 142.648438 284.648438 C 133.769531 279.628906 125.980469 273.222656 118.757812 265.984375 C 110.402344 257.609375 106.832031 247.832031 106.332031 235.964844 C 105.390625 213.527344 108.914062 192.089844 117.5625 171.433594 C 120.953125 163.339844 125.140625 155.652344 130.425781 148.65625 C 133.070312 145.152344 133.375 141.960938 131.691406 137.984375 C 128.277344 129.910156 126.066406 121.464844 124.917969 112.738281 C 124.359375 108.523438 124.320312 104.335938 125.183594 100.214844 C 127.398438 89.636719 135.402344 85.09375 145.582031 88.597656 C 152.988281 91.144531 159.042969 95.863281 165.039062 100.753906 C 169.054688 104.023438 171.597656 109.992188 176.9375 110.433594 C 181.539062 110.816406 186.359375 108.386719 191.101562 107.285156 C 208.253906 103.320312 225.117188 104.722656 241.746094 110.109375 C 244.070312 110.867188 246.402344 111.648438 248.632812 112.636719 C 251.304688 113.816406 253.269531 112.90625 255.234375 111.097656 C 259.089844 107.546875 262.945312 103.980469 266.996094 100.660156 C 271.617188 96.878906 276.707031 93.738281 282.4375 91.921875 C 294.6875 88.039062 303.21875 93.625 304.8125 106.332031 C 305.925781 115.210938 303.894531 123.710938 301.957031 132.253906 C 300.570312 138.363281 295.753906 144.132812 297.136719 150.191406 C 298.394531 155.695312 302.925781 160.410156 305.796875 165.589844 C 317.183594 186.148438 322.738281 208.21875 324.101562 231.6875 C 324.808594 243.933594 321.632812 254.484375 314.972656 264.253906 C 312.238281 268.269531 308.984375 272.035156 305.457031 275.378906 C 301.667969 278.964844 297.617188 282.53125 293.082031 285.007812 C 286.503906 288.605469 282.324219 292.65625 282.285156 300.980469 C 282.25 308.242188 276.714844 312.738281 270.398438 315.722656 C 265.296875 318.132812 259.765625 319.113281 254.21875 319.878906 C 249.378906 320.546875 244.503906 321.011719 239.679688 321.765625 C 238.300781 321.984375 237.140625 323.085938 237.636719 324.769531 C 238.230469 326.773438 239.339844 328.65625 239.707031 330.6875 C 240.808594 336.746094 238.855469 341.863281 233.828125 345.382812 C 229.015625 348.746094 223.765625 350.078125 218.046875 347.230469 C 211.460938 343.957031 208.753906 337.898438 210.703125 330.671875 C 211.324219 328.375 213.398438 326.53125 212.847656 323.875 Z M 208.421875 298.941406 C 218.894531 299.617188 229.363281 299.851562 239.8125 298.414062 C 258.734375 295.808594 276.683594 290.492188 292.644531 279.589844 C 300.835938 273.996094 307.769531 267.167969 312.871094 258.613281 C 317.648438 250.601562 319.988281 241.9375 319.515625 232.582031 C 319.320312 228.683594 318.277344 227.601562 314.53125 227.339844 C 311.0625 227.097656 307.578125 227.003906 304.117188 226.699219 C 303.710938 226.667969 303.109375 225.75 303.085938 225.21875 C 303.058594 224.652344 303.480469 223.890625 303.945312 223.527344 C 304.460938 223.128906 305.238281 223.003906 305.917969 222.894531 C 309.019531 222.390625 312.136719 221.988281 315.226562 221.449219 C 317.265625 221.097656 318.101562 219.710938 318.011719 217.714844 C 317.921875 215.679688 316.753906 214.457031 314.859375 214.148438 C 313.503906 213.925781 312.070312 214.105469 310.675781 214.140625 C 305.792969 214.261719 300.910156 214.460938 296.023438 214.460938 C 295.066406 214.460938 293.96875 213.785156 294.085938 212.449219 C 294.179688 211.34375 294.796875 210.457031 295.933594 210.316406 C 301.476562 209.632812 307.035156 209.09375 312.566406 208.355469 C 314.5 208.09375 315.636719 206.804688 315.527344 204.726562 C 315.472656 203.679688 315.40625 202.613281 315.136719 201.609375 C 306.253906 169.015625 289.160156 142.242188 259.984375 124.097656 C 252.527344 119.457031 244.558594 115.914062 236.050781 113.660156 C 230.945312 112.308594 230.109375 112.996094 229.832031 118.621094 C 229.644531 122.445312 229.476562 126.273438 229.167969 130.085938 C 229.136719 130.515625 228.265625 131.140625 227.738281 131.1875 C 227.203125 131.238281 226.351562 130.832031 226.097656 130.371094 C 225.609375 129.480469 225.25 128.425781 225.179688 127.414062 C 224.902344 123.230469 224.847656 119.035156 224.523438 114.855469 C 224.292969 111.914062 222.257812 110.640625 218.398438 110.703125 C 215.546875 110.746094 214.292969 112.171875 214.445312 115.503906 C 214.953125 126.328125 215.542969 137.148438 216.039062 147.972656 C 216.117188 149.691406 215.96875 151.433594 215.695312 153.136719 C 215.617188 153.617188 214.808594 154.179688 214.226562 154.351562 C 213.109375 154.683594 212.023438 154.167969 211.914062 153.007812 C 211.390625 147.449219 210.945312 141.878906 210.601562 136.304688 C 210.132812 128.636719 209.871094 120.949219 209.324219 113.28125 C 209.179688 111.289062 207.484375 110.453125 205.539062 110.480469 C 203.582031 110.511719 202.101562 111.402344 201.859375 113.417969 C 201.660156 115.132812 201.914062 116.890625 201.902344 118.628906 C 201.871094 123.871094 201.882812 129.113281 201.714844 134.347656 C 201.675781 135.699219 201.132812 137.300781 199.3125 137.089844 C 197.769531 136.90625 197.082031 135.523438 196.910156 134.097656 C 196.695312 132.371094 196.640625 130.621094 196.625 128.878906 C 196.578125 124.683594 196.75 120.480469 196.523438 116.300781 C 196.320312 112.652344 194.566406 111.441406 190.878906 112.359375 C 176.78125 115.855469 163.945312 121.964844 152.78125 131.34375 C 130.664062 149.949219 118.535156 174.207031 113.027344 202.140625 C 112.085938 206.941406 113.246094 207.953125 118.6875 208.121094 C 122.855469 208.253906 127.074219 207.441406 131.179688 208.664062 C 131.660156 208.808594 132.203125 209.605469 132.246094 210.140625 C 132.285156 210.667969 131.859375 211.484375 131.398438 211.738281 C 130.507812 212.21875 129.460938 212.582031 128.449219 212.671875 C 124.277344 213.054688 120.09375 213.257812 115.921875 213.65625 C 112.953125 213.9375 111.457031 215.621094 111.53125 218.433594 C 111.597656 221.117188 113.371094 221.820312 115.699219 222.050781 C 118.019531 222.273438 121.925781 221.304688 122.207031 223.644531 C 122.675781 227.484375 118.246094 226.140625 115.996094 227.183594 C 115.0625 227.613281 113.855469 227.527344 113.019531 228.0625 C 112.234375 228.5625 111.234375 229.578125 111.246094 230.347656 C 111.429688 239.378906 110.875 248.472656 117.03125 256.339844 C 126.277344 268.15625 137.820312 276.992188 151.078125 283.707031 C 169.09375 292.828125 188.257812 297.800781 208.421875 298.941406 Z M 205.472656 317.191406 C 222.46875 318.304688 243.179688 317.230469 257.5625 314.484375 C 262.027344 313.632812 266.429688 312.597656 270.378906 310.207031 C 274.824219 307.523438 277.503906 303.65625 278.253906 298.484375 C 278.609375 296.054688 276.882812 294.375 274.558594 294.964844 C 273.550781 295.222656 272.554688 295.566406 271.566406 295.910156 C 239.589844 307.109375 207.347656 307.257812 174.882812 298.21875 C 173.558594 297.847656 172.171875 297.613281 170.796875 297.535156 C 169.679688 297.472656 168.828125 298.140625 168.605469 299.292969 C 167.808594 303.417969 168.898438 307.066406 172.265625 309.527344 C 174.46875 311.132812 177.136719 312.199219 179.722656 313.160156 C 188.015625 316.253906 196.777344 316.550781 205.46875 317.1875 Z M 300.070312 117.433594 C 300.691406 112.515625 300.46875 107.652344 298.921875 102.949219 C 297.023438 97.160156 292.65625 94.609375 286.769531 95.835938 C 283.003906 96.621094 279.488281 98.136719 276.152344 100.097656 C 270.402344 103.464844 265.269531 107.621094 260.484375 112.21875 C 257.496094 115.09375 257.507812 116.660156 260.875 118.738281 C 269.515625 124.066406 277.550781 130.121094 284.675781 137.367188 C 286.140625 138.855469 287.574219 140.378906 289.125 141.78125 C 291.046875 143.527344 293.050781 143.078125 294.027344 140.609375 C 296.996094 133.136719 298.941406 125.382812 300.074219 117.429688 Z M 129.699219 105.488281 C 129.382812 115.574219 131.980469 125.304688 135.78125 134.773438 C 136.820312 137.355469 138.609375 137.808594 140.617188 135.929688 C 147 129.949219 153.457031 124.058594 161.019531 119.574219 C 171.183594 113.550781 171.183594 113.867188 161.890625 105.300781 C 158.316406 102.007812 154.289062 99.152344 150.21875 96.476562 C 147.933594 94.976562 145.222656 93.90625 142.554688 93.25 C 135.929688 91.625 131.726562 94.4375 130.304688 101.097656 C 130.011719 102.460938 129.914062 103.863281 129.695312 105.496094 Z M 234.90625 334.5 C 235.390625 329.546875 231.5 325.214844 226.222656 324.832031 C 220.582031 324.417969 215.046875 329.160156 214.835938 334.585938 C 214.660156 339.160156 218.242188 343.0625 223.089844 343.578125 C 229.03125 344.207031 234.359375 340.113281 234.910156 334.5 Z M 234.390625 253.523438 C 233.507812 260.917969 231.347656 267.820312 225.640625 273.097656 C 217.671875 280.46875 206.335938 279.09375 200.351562 270.089844 C 193.179688 259.300781 195.261719 242.183594 204.804688 233.476562 C 213.222656 225.796875 224.816406 227.535156 230.695312 237.332031 C 233.679688 242.316406 234.320312 247.808594 234.390625 253.519531 Z M 217.515625 257.234375 C 212.765625 256.664062 208.878906 257.652344 205.664062 260.789062 C 203.324219 263.074219 203.128906 265.722656 205.097656 268.226562 C 210.328125 274.898438 217.683594 274.769531 223.644531 267.898438 C 226.0625 265.113281 225.796875 261.929688 222.746094 259.886719 C 221.046875 258.742188 219.078125 258.003906 217.515625 257.234375 Z M 203.949219 190.601562 C 201.300781 192.011719 199.367188 193.910156 199.476562 197.066406 C 199.570312 199.757812 201.136719 201.839844 203.648438 202.519531 C 208.683594 203.894531 210.140625 207.132812 209.601562 211.941406 C 209.453125 213.261719 209.855469 214.695312 210.253906 216.003906 C 210.394531 216.472656 211.273438 217.003906 211.804688 216.996094 C 212.363281 216.988281 213.0625 216.480469 213.4375 215.988281 C 213.828125 215.472656 214.179688 214.675781 214.082031 214.074219 C 213.085938 207.839844 214.804688 203.214844 221.351562 201.289062 C 221.664062 201.199219 221.914062 200.886719 222.175781 200.65625 C 225.125 198.09375 224.9375 194.207031 221.980469 191.59375 C 219.671875 189.554688 216.890625 189.550781 214.492188 189.234375 C 210.644531 188.898438 207.203125 188.863281 203.949219 190.59375 Z M 166.703125 185.921875 C 164.492188 183.964844 161.886719 183.226562 159.011719 183.707031 C 153.023438 184.703125 147.765625 191.742188 148.179688 198.242188 C 148.210938 198.738281 148.972656 199.417969 149.523438 199.582031 C 149.996094 199.71875 150.941406 199.402344 151.183594 198.996094 C 152.589844 196.640625 153.589844 194.003906 155.214844 191.832031 C 158.4375 187.527344 163.730469 188.332031 165.910156 193.253906 C 167.019531 195.761719 166.421875 198.851562 168.488281 200.992188 C 168.84375 201.363281 169.671875 201.339844 170.285156 201.359375 C 170.527344 201.363281 170.867188 201.019531 171.007812 200.753906 C 171.320312 200.152344 171.539062 199.503906 171.84375 198.757812 C 172.265625 193.710938 170.601562 189.382812 166.707031 185.933594 Z M 251.179688 185.734375 C 248.980469 188.136719 248.019531 191.09375 247.355469 194.164062 C 247.0625 195.542969 247.09375 197.347656 248.347656 197.925781 C 250.746094 199.027344 250.964844 196.640625 251.644531 195.210938 C 252.382812 193.660156 252.847656 191.9375 253.785156 190.519531 C 256.382812 186.582031 261.351562 186.082031 264.394531 189.648438 C 266.15625 191.710938 267.242188 194.347656 268.601562 196.746094 C 269.335938 198.035156 270.355469 199.105469 271.789062 198.253906 C 272.453125 197.859375 272.929688 196.402344 272.796875 195.535156 C 271.648438 188.101562 266.503906 182.5625 259.910156 181.960938 C 256.65625 181.542969 253.679688 183.007812 251.179688 185.734375 Z M 251.179688 185.734375 " fill-opacity="1" fill-rule="nonzero"/></g></g></g></svg>