<svg xmlns="http://www.w3.org/2000/svg" xmlns:xlink="http://www.w3.org/1999/xlink" width="576" zoomAndPan="magnify" viewBox="0 0 432 431.999984" height="576" preserveAspectRatio="xMidYMid meet" version="1.0"><defs><clipPath id="bceb010b23"><path d="M 106 87 L 325 87 L 325 349 L 106 349 Z M 106 87 " clip-rule="nonzero"/></clipPath><clipPath id="a3fcd4ff00"><path d="M 115.257812 75.226562 L 335.945312 90.984375 L 316.980469 356.558594 L 96.292969 340.800781 Z M 115.257812 75.226562 " clip-rule="nonzero"/></clipPath><clipPath id="15527cc643"><path d="M 115.257812 75.226562 L 335.945312 90.984375 L 316.980469 356.558594 L 96.292969 340.800781 Z M 115.257812 75.226562 " clip-rule="nonzero"/></clipPath><clipPath id="95dd08f188"><path d="M 115.257812 75.226562 L 335.945312 90.984375 L 316.980469 356.558594 L 96.292969 340.800781 Z M 115.257812 75.226562 " clip-rule="nonzero"/></clipPath></defs><g clip-path="url(#bceb010b23)"><g clip-path="url(#a3fcd4ff00)"><g clip-path="url(#15527cc643)"><g clip-path="url(#95dd08f188)"><path fill="#000000" d="M 212.992188 323.695312 C 211.40625 321.824219 209.179688 322.226562 207.167969 322.175781 C 199.070312 321.96875 191.179688 320.3125 183.273438 318.820312 C 180.890625 318.371094 178.589844 317.449219 176.257812 316.722656 C 168.359375 314.253906 163.640625 308.902344 163.621094 300.652344 C 163.609375 295.355469 161.007812 293.324219 156.75 291.539062 C 151.925781 289.519531 147.269531 287.050781 142.707031 284.476562 C 133.816406 279.464844 126.015625 273.058594 118.789062 265.828125 C 110.421875 257.457031 106.84375 247.6875 106.34375 235.832031 C 105.398438 213.410156 108.921875 191.992188 117.578125 171.355469 C 120.96875 163.269531 125.160156 155.585938 130.449219 148.597656 C 133.097656 145.097656 133.402344 141.910156 131.71875 137.9375 C 128.300781 129.863281 126.085938 121.429688 124.933594 112.707031 C 124.375 108.5 124.335938 104.3125 125.199219 100.195312 C 127.414062 89.625 135.425781 85.089844 145.617188 88.589844 C 153.027344 91.136719 159.089844 95.851562 165.097656 100.738281 C 169.117188 104.007812 171.664062 109.96875 177.007812 110.414062 C 181.613281 110.796875 186.441406 108.367188 191.1875 107.269531 C 208.355469 103.308594 225.234375 104.714844 241.882812 110.097656 C 244.210938 110.855469 246.546875 111.636719 248.777344 112.621094 C 251.453125 113.804688 253.417969 112.894531 255.386719 111.089844 C 259.242188 107.539062 263.101562 103.976562 267.15625 100.660156 C 271.785156 96.882812 276.878906 93.742188 282.613281 91.929688 C 294.878906 88.054688 303.417969 93.636719 305.015625 106.332031 C 306.132812 115.203125 304.097656 123.699219 302.160156 132.230469 C 300.773438 138.335938 295.953125 144.101562 297.339844 150.15625 C 298.597656 155.652344 303.132812 160.363281 306.007812 165.542969 C 317.410156 186.085938 322.976562 208.136719 324.339844 231.585938 C 325.054688 243.820312 321.871094 254.363281 315.207031 264.125 C 312.472656 268.136719 309.214844 271.902344 305.683594 275.238281 C 301.890625 278.820312 297.835938 282.382812 293.296875 284.859375 C 286.714844 288.449219 282.527344 292.496094 282.492188 300.816406 C 282.457031 308.070312 276.917969 312.566406 270.59375 315.542969 C 265.488281 317.953125 259.949219 318.929688 254.398438 319.695312 C 249.550781 320.363281 244.675781 320.828125 239.84375 321.582031 C 238.464844 321.796875 237.300781 322.898438 237.800781 324.582031 C 238.394531 326.582031 239.503906 328.464844 239.875 330.492188 C 240.976562 336.546875 239.019531 341.660156 233.988281 345.175781 C 229.171875 348.535156 223.914062 349.867188 218.191406 347.019531 C 211.601562 343.746094 208.886719 337.695312 210.839844 330.476562 C 211.460938 328.179688 213.535156 326.339844 212.980469 323.683594 Z M 208.546875 298.769531 C 219.035156 299.445312 229.511719 299.679688 239.972656 298.246094 C 258.914062 295.648438 276.882812 290.335938 292.859375 279.445312 C 301.058594 273.859375 307.996094 267.039062 313.105469 258.488281 C 317.882812 250.484375 320.226562 241.828125 319.75 232.476562 C 319.554688 228.585938 318.511719 227.503906 314.761719 227.242188 C 311.285156 226.996094 307.800781 226.902344 304.335938 226.601562 C 303.929688 226.566406 303.328125 225.652344 303.304688 225.117188 C 303.277344 224.550781 303.699219 223.792969 304.164062 223.429688 C 304.679688 223.03125 305.457031 222.90625 306.140625 222.796875 C 309.246094 222.296875 312.363281 221.890625 315.457031 221.355469 C 317.496094 221.003906 318.332031 219.617188 318.246094 217.625 C 318.15625 215.589844 316.984375 214.371094 315.085938 214.058594 C 313.730469 213.835938 312.296875 214.019531 310.902344 214.050781 C 306.011719 214.171875 301.125 214.371094 296.234375 214.371094 C 295.273438 214.371094 294.175781 213.695312 294.292969 212.359375 C 294.386719 211.257812 295.003906 210.367188 296.144531 210.226562 C 301.691406 209.546875 307.253906 209.007812 312.792969 208.269531 C 314.726562 208.011719 315.867188 206.722656 315.753906 204.644531 C 315.699219 203.601562 315.632812 202.535156 315.363281 201.535156 C 306.46875 168.964844 289.351562 142.210938 260.144531 124.078125 C 252.679688 119.441406 244.699219 115.898438 236.183594 113.644531 C 231.070312 112.292969 230.234375 112.980469 229.957031 118.601562 C 229.769531 122.421875 229.605469 126.246094 229.296875 130.054688 C 229.265625 130.484375 228.390625 131.109375 227.863281 131.15625 C 227.328125 131.207031 226.476562 130.800781 226.222656 130.339844 C 225.734375 129.453125 225.375 128.398438 225.304688 127.386719 C 225.023438 123.207031 224.96875 119.011719 224.640625 114.839844 C 224.414062 111.898438 222.375 110.625 218.511719 110.6875 C 215.65625 110.730469 214.398438 112.15625 214.554688 115.484375 C 215.066406 126.300781 215.65625 137.109375 216.152344 147.925781 C 216.234375 149.640625 216.082031 151.386719 215.8125 153.085938 C 215.734375 153.566406 214.925781 154.128906 214.34375 154.300781 C 213.222656 154.628906 212.136719 154.117188 212.027344 152.957031 C 211.503906 147.402344 211.054688 141.835938 210.710938 136.269531 C 210.242188 128.605469 209.976562 120.925781 209.425781 113.265625 C 209.285156 111.273438 207.585938 110.4375 205.636719 110.464844 C 203.679688 110.492188 202.195312 111.386719 201.957031 113.398438 C 201.753906 115.109375 202.011719 116.867188 202 118.605469 C 201.96875 123.84375 201.980469 129.078125 201.816406 134.3125 C 201.773438 135.660156 201.230469 137.261719 199.410156 137.050781 C 197.863281 136.867188 197.175781 135.484375 197.003906 134.058594 C 196.789062 132.335938 196.734375 130.585938 196.71875 128.847656 C 196.667969 124.65625 196.84375 120.457031 196.613281 116.277344 C 196.410156 112.632812 194.652344 111.421875 190.960938 112.339844 C 176.851562 115.832031 164 121.933594 152.828125 131.304688 C 130.6875 149.890625 118.554688 174.125 113.042969 202.035156 C 112.097656 206.832031 113.261719 207.839844 118.707031 208.011719 C 122.882812 208.144531 127.105469 207.335938 131.214844 208.554688 C 131.699219 208.699219 132.238281 209.496094 132.28125 210.03125 C 132.324219 210.558594 131.894531 211.375 131.433594 211.625 C 130.542969 212.109375 129.492188 212.46875 128.484375 212.558594 C 124.304688 212.941406 120.117188 213.144531 115.941406 213.539062 C 112.96875 213.820312 111.472656 215.503906 111.546875 218.316406 C 111.613281 220.996094 113.390625 221.699219 115.71875 221.929688 C 118.042969 222.152344 121.949219 221.1875 122.234375 223.523438 C 122.703125 227.359375 118.269531 226.019531 116.015625 227.054688 C 115.082031 227.488281 113.875 227.402344 113.035156 227.933594 C 112.25 228.433594 111.25 229.449219 111.261719 230.21875 C 111.445312 239.242188 110.894531 248.328125 117.054688 256.191406 C 126.316406 268 137.871094 276.828125 151.144531 283.539062 C 169.179688 292.65625 188.367188 297.625 208.546875 298.769531 Z M 205.601562 317.003906 C 222.617188 318.117188 243.34375 317.046875 257.742188 314.304688 C 262.210938 313.453125 266.617188 312.421875 270.574219 310.035156 C 275.023438 307.351562 277.707031 303.492188 278.457031 298.320312 C 278.808594 295.894531 277.082031 294.214844 274.753906 294.804688 C 273.746094 295.0625 272.75 295.40625 271.761719 295.75 C 239.75 306.9375 207.476562 307.078125 174.976562 298.042969 C 173.652344 297.671875 172.261719 297.4375 170.882812 297.359375 C 169.765625 297.296875 168.914062 297.960938 168.691406 299.117188 C 167.894531 303.238281 168.984375 306.878906 172.355469 309.339844 C 174.5625 310.949219 177.230469 312.011719 179.820312 312.972656 C 188.125 316.066406 196.894531 316.363281 205.597656 317 Z M 300.269531 117.421875 C 300.890625 112.511719 300.667969 107.652344 299.121094 102.949219 C 297.214844 97.167969 292.84375 94.617188 286.953125 95.839844 C 283.183594 96.625 279.664062 98.140625 276.324219 100.097656 C 270.570312 103.464844 265.429688 107.613281 260.644531 112.207031 C 257.648438 115.082031 257.664062 116.644531 261.03125 118.722656 C 269.683594 124.046875 277.730469 130.097656 284.859375 137.339844 C 286.328125 138.828125 287.765625 140.347656 289.316406 141.75 C 291.242188 143.492188 293.246094 143.046875 294.226562 140.582031 C 297.195312 133.113281 299.144531 125.367188 300.277344 117.417969 Z M 129.71875 105.464844 C 129.402344 115.542969 132.003906 125.265625 135.8125 134.726562 C 136.847656 137.308594 138.644531 137.761719 140.652344 135.882812 C 147.039062 129.90625 153.503906 124.023438 161.074219 119.542969 C 171.246094 113.527344 171.25 113.84375 161.941406 105.28125 C 158.367188 101.992188 154.332031 99.136719 150.257812 96.464844 C 147.96875 94.964844 145.257812 93.894531 142.582031 93.238281 C 135.953125 91.617188 131.746094 94.425781 130.320312 101.078125 C 130.03125 102.441406 129.933594 103.84375 129.714844 105.472656 Z M 235.066406 334.300781 C 235.550781 329.351562 231.65625 325.023438 226.375 324.640625 C 220.726562 324.226562 215.183594 328.964844 214.976562 334.386719 C 214.800781 338.957031 218.386719 342.855469 223.242188 343.371094 C 229.1875 344 234.519531 339.910156 235.070312 334.304688 Z M 234.539062 253.390625 C 233.65625 260.78125 231.496094 267.675781 225.78125 272.949219 C 217.808594 280.3125 206.460938 278.9375 200.464844 269.941406 C 193.285156 259.160156 195.371094 242.058594 204.921875 233.359375 C 213.34375 225.6875 224.949219 227.425781 230.835938 237.214844 C 233.828125 242.191406 234.46875 247.683594 234.539062 253.386719 Z M 217.648438 257.097656 C 212.890625 256.527344 209.003906 257.515625 205.785156 260.648438 C 203.441406 262.929688 203.25 265.578125 205.21875 268.082031 C 210.457031 274.75 217.816406 274.617188 223.785156 267.753906 C 226.207031 264.96875 225.9375 261.792969 222.886719 259.746094 C 221.183594 258.605469 219.210938 257.867188 217.648438 257.097656 Z M 204.058594 190.519531 C 201.40625 191.925781 199.472656 193.824219 199.582031 196.976562 C 199.675781 199.667969 201.246094 201.746094 203.757812 202.429688 C 208.796875 203.800781 210.257812 207.039062 209.71875 211.84375 C 209.570312 213.160156 209.972656 214.59375 210.371094 215.898438 C 210.511719 216.371094 211.390625 216.902344 211.925781 216.894531 C 212.488281 216.882812 213.183594 216.375 213.558594 215.886719 C 213.949219 215.371094 214.300781 214.570312 214.207031 213.972656 C 213.207031 207.746094 214.925781 203.121094 221.480469 201.199219 C 221.792969 201.109375 222.042969 200.796875 222.304688 200.566406 C 225.253906 198.007812 225.066406 194.125 222.105469 191.511719 C 219.796875 189.472656 217.015625 189.472656 214.613281 189.152344 C 210.761719 188.816406 207.316406 188.78125 204.058594 190.511719 Z M 166.773438 185.835938 C 164.558594 183.882812 161.949219 183.144531 159.074219 183.625 C 153.078125 184.617188 147.816406 191.652344 148.230469 198.144531 C 148.261719 198.640625 149.027344 199.320312 149.574219 199.480469 C 150.050781 199.621094 150.996094 199.304688 151.238281 198.898438 C 152.644531 196.546875 153.644531 193.910156 155.273438 191.742188 C 158.5 187.441406 163.796875 188.246094 165.976562 193.164062 C 167.089844 195.667969 166.492188 198.753906 168.5625 200.894531 C 168.917969 201.265625 169.746094 201.246094 170.359375 201.261719 C 170.605469 201.269531 170.941406 200.925781 171.082031 200.660156 C 171.398438 200.058594 171.617188 199.410156 171.921875 198.664062 C 172.34375 193.621094 170.675781 189.296875 166.777344 185.851562 Z M 251.335938 185.664062 C 249.136719 188.0625 248.175781 191.015625 247.511719 194.085938 C 247.21875 195.460938 247.246094 197.261719 248.503906 197.84375 C 250.902344 198.945312 251.125 196.558594 251.804688 195.132812 C 252.542969 193.578125 253.007812 191.859375 253.949219 190.441406 C 256.546875 186.511719 261.519531 186.007812 264.570312 189.574219 C 266.332031 191.636719 267.417969 194.269531 268.78125 196.664062 C 269.511719 197.953125 270.535156 199.023438 271.972656 198.171875 C 272.636719 197.78125 273.113281 196.324219 272.976562 195.457031 C 271.828125 188.027344 266.675781 182.496094 260.078125 181.890625 C 256.820312 181.472656 253.839844 182.9375 251.335938 185.664062 Z M 251.335938 185.664062 " fill-opacity="1" fill-rule="nonzero"/></g></g></g></g></svg>