<svg xmlns="http://www.w3.org/2000/svg" xmlns:xlink="http://www.w3.org/1999/xlink" width="576" zoomAndPan="magnify" viewBox="0 0 432 431.999984" height="576" preserveAspectRatio="xMidYMid meet" version="1.0"><defs><clipPath id="d389973584"><path d="M 99 97 L 324 97 L 324 319 L 99 319 Z M 99 97 " clip-rule="nonzero"/></clipPath><clipPath id="f2d3f033df"><path d="M 150.578125 79.179688 L 350.421875 146.101562 L 281.125 353.054688 L 81.28125 286.136719 Z M 150.578125 79.179688 " clip-rule="nonzero"/></clipPath><clipPath id="2c1049374a"><path d="M 150.578125 79.179688 L 350.421875 146.101562 L 281.125 353.054688 L 81.28125 286.136719 Z M 150.578125 79.179688 " clip-rule="nonzero"/></clipPath><clipPath id="dc6cd2b5bc"><path d="M 150.578125 79.179688 L 350.421875 146.101562 L 281.125 353.054688 L 81.28125 286.136719 Z M 150.578125 79.179688 " clip-rule="nonzero"/></clipPath></defs><g clip-path="url(#d389973584)"><g clip-path="url(#f2d3f033df)"><g clip-path="url(#2c1049374a)"><g clip-path="url(#dc6cd2b5bc)"><path fill="#000000" d="M 186.886719 124.277344 C 187.179688 121.550781 185.289062 119.566406 184.597656 117.195312 C 183.816406 114.515625 182.96875 111.878906 183.527344 109.003906 C 184.183594 105.644531 186.996094 104.386719 189.617188 106.441406 C 190.695312 107.292969 191.515625 108.472656 192.578125 109.355469 C 193.617188 110.21875 194.742188 109.933594 195.320312 108.785156 C 196.191406 107.046875 196.824219 105.1875 197.59375 103.390625 C 198.371094 101.578125 199.40625 99.976562 201.027344 98.746094 C 203.359375 96.972656 206.421875 97.921875 206.742188 100.757812 C 207.019531 103.210938 206.917969 105.707031 206.984375 108.160156 C 209.1875 108.925781 210.703125 107.230469 212.535156 106.847656 C 216.910156 105.929688 219.574219 108.652344 218.457031 113.105469 C 217.917969 115.25 216.878906 117.269531 216.179688 119.382812 C 215.773438 120.617188 216.375 121.613281 217.589844 121.929688 C 219.46875 122.417969 221.390625 122.785156 223.3125 123.078125 C 239.65625 125.570312 254.210938 132.09375 266.882812 142.6875 C 282.351562 155.613281 292.28125 172.039062 297.019531 191.632812 C 297.546875 193.800781 297.941406 196 298.386719 198.183594 C 298.828125 200.328125 300.089844 201.550781 302.28125 201.960938 C 307.265625 202.894531 311.84375 204.84375 316.109375 207.601562 C 318.980469 209.457031 321.351562 211.757812 322.816406 214.859375 C 325.492188 220.515625 322.753906 226.476562 316.675781 227.886719 C 314.554688 228.375 312.269531 228.257812 310.0625 228.238281 C 307.859375 228.21875 305.660156 227.976562 303.808594 227.855469 C 302.425781 229.222656 303.089844 230.234375 303.550781 231.160156 C 307.960938 240.007812 305.042969 247.949219 300.472656 255.660156 C 299.769531 256.851562 298.914062 258.0625 297.847656 258.898438 C 290.59375 264.5625 284.488281 271.332031 278.363281 278.164062 C 273.859375 283.1875 267.75 286.269531 261.558594 288.898438 C 256.21875 291.167969 255.890625 291.386719 256.667969 297.726562 C 256.734375 298.277344 256.789062 298.839844 256.765625 299.394531 C 256.625 302.84375 257.921875 305.261719 261.367188 306.421875 C 262.363281 306.753906 263.199219 307.664062 264.011719 308.414062 C 264.351562 308.734375 264.644531 309.355469 264.59375 309.796875 C 264.472656 310.910156 263.523438 310.890625 262.691406 310.832031 C 261.363281 310.746094 259.875 309.714844 258.78125 310.875 C 258.105469 311.597656 258.074219 312.917969 257.726562 313.957031 C 257.457031 314.765625 257.105469 315.628906 256.050781 315.375 C 255.605469 315.269531 255.179688 314.773438 254.910156 314.347656 C 254.621094 313.890625 254.605469 313.273438 254.347656 312.792969 C 253.078125 310.425781 252.78125 310.34375 250.699219 311.554688 C 249.320312 312.359375 248.34375 314.082031 246.375 313.554688 C 245.382812 313.289062 246.347656 311.03125 248.425781 308.828125 C 249 308.222656 249.542969 307.5625 250.203125 307.0625 C 252.683594 305.195312 253.519531 302.730469 253.105469 299.722656 C 252.917969 298.339844 252.898438 296.9375 252.679688 295.5625 C 252.429688 293.984375 251.464844 293.085938 249.816406 293.261719 C 248.714844 293.382812 247.628906 293.691406 246.546875 293.949219 C 226.132812 298.832031 205.726562 298.410156 185.332031 293.945312 C 184.515625 293.765625 183.703125 293.574219 182.882812 293.429688 C 181.597656 293.203125 180.65625 293.816406 180.347656 294.984375 C 179.488281 298.261719 179.652344 301.628906 179.976562 304.949219 C 180.113281 306.414062 181.433594 307.207031 182.535156 308.085938 C 183.605469 308.941406 184.578125 309.953125 185.457031 311.007812 C 185.679688 311.277344 185.441406 312 185.285156 312.472656 C 185.222656 312.660156 184.816406 312.851562 184.574219 312.84375 C 184.027344 312.824219 183.449219 312.777344 182.949219 312.574219 C 180.417969 311.535156 179.355469 312.664062 179.019531 315.097656 C 178.902344 315.90625 178.632812 316.738281 178.234375 317.453125 C 178.035156 317.816406 177.34375 318.179688 176.960938 318.101562 C 176.515625 318.007812 176.136719 317.460938 175.800781 317.054688 C 175.640625 316.859375 175.691406 316.507812 175.578125 316.261719 C 174.9375 314.847656 175.898438 312.53125 173.824219 312.058594 C 172.628906 311.785156 171.191406 312.65625 169.839844 312.863281 C 169.421875 312.925781 168.707031 312.621094 168.523438 312.273438 C 168.316406 311.875 168.40625 311.175781 168.617188 310.730469 C 168.84375 310.257812 169.296875 309.746094 169.769531 309.558594 C 177.777344 306.449219 176.175781 299.519531 176.207031 293.285156 C 176.210938 292.136719 175.324219 291.273438 174.25 290.792969 C 172.726562 290.113281 171.214844 289.371094 169.628906 288.878906 C 164.789062 287.378906 160.414062 284.894531 156.183594 282.242188 C 149.132812 277.816406 142.210938 273.175781 135.382812 268.414062 C 127.660156 263.03125 122.921875 255.800781 122.632812 246.082031 C 122.601562 244.96875 122.636719 243.824219 122.371094 242.753906 C 122.09375 241.621094 121.277344 240.804688 119.96875 240.964844 C 117.761719 241.230469 115.558594 241.550781 113.359375 241.886719 C 110.53125 242.316406 107.808594 241.878906 105.167969 240.875 C 100.59375 239.140625 98.816406 235.769531 100.050781 230.929688 C 100.957031 227.359375 102.742188 224.25 105.203125 221.476562 C 108.761719 217.472656 112.855469 214.148438 117.433594 211.429688 C 123.96875 207.550781 123.265625 208.859375 124.054688 200.273438 C 125.742188 181.894531 132.851562 165.808594 144.777344 151.847656 C 154.199219 140.816406 165.820312 132.839844 179.335938 127.597656 C 181.894531 126.605469 184.773438 126.28125 186.898438 124.277344 Z M 134.035156 236.074219 C 136.464844 240.839844 140.683594 243.902344 145.71875 245.820312 C 149.609375 247.300781 153.613281 248.644531 157.683594 249.457031 C 177.957031 253.496094 198.46875 254.867188 219.105469 253.859375 C 235.886719 253.039062 252.253906 249.933594 267.984375 243.8125 C 273.972656 241.484375 279.753906 238.726562 285.039062 235.03125 C 288.023438 232.949219 290.777344 230.609375 292.910156 227.617188 C 293.914062 226.210938 293.699219 224.875 292.242188 224.144531 C 290.5 223.273438 288.660156 222.605469 286.945312 221.695312 C 286.265625 221.335938 285.789062 220.570312 285.277344 219.945312 C 284.832031 219.402344 284.945312 218.882812 285.515625 218.472656 C 285.734375 218.316406 285.925781 218.101562 286.167969 218.019531 C 287.660156 217.5 288.917969 218.289062 290.074219 218.960938 C 295.742188 222.253906 302.089844 223.25 308.371094 224.460938 C 311.128906 224.992188 313.917969 224.96875 316.605469 223.976562 C 319.476562 222.921875 320.8125 220.054688 319.585938 217.210938 C 318.9375 215.714844 317.992188 214.261719 316.886719 213.0625 C 314.789062 210.78125 312.113281 209.316406 309.230469 208.148438 C 302.6875 205.488281 295.863281 204.398438 288.859375 204.171875 C 287.199219 204.117188 285.515625 204.3125 284.078125 203.226562 C 283.886719 203.082031 283.675781 202.8125 283.671875 202.597656 C 283.667969 202.347656 283.820312 202.03125 284.007812 201.847656 C 285.089844 200.777344 286.566406 200.679688 287.882812 200.757812 C 295.898438 201.230469 294.816406 198.710938 293.660156 192.839844 C 293.554688 192.292969 293.425781 191.746094 293.269531 191.214844 C 283.238281 156.59375 261.214844 134.070312 225.605469 127.25 C 191.246094 120.667969 163.117188 132.53125 142.160156 160.613281 C 132.953125 172.957031 128.238281 187.207031 127.078125 202.578125 C 126.910156 204.804688 127.949219 205.75 130.015625 205.449219 C 133.3125 204.96875 136.59375 204.367188 139.898438 203.957031 C 140.683594 203.859375 141.394531 204.511719 141.488281 205.457031 C 141.550781 206.136719 141.1875 206.488281 140.527344 206.621094 C 138.617188 207.007812 136.710938 207.382812 134.820312 207.839844 C 125.113281 210.171875 116.710938 214.898438 109.550781 221.851562 C 107.339844 223.996094 105.324219 226.308594 104.050781 229.15625 C 101.710938 234.390625 103.894531 238.125 109.511719 238.402344 C 112.875 238.566406 116.164062 238.015625 119.390625 237.039062 C 127.808594 234.496094 135.167969 230.15625 141.574219 224.109375 C 143.050781 222.714844 144.007812 220.03125 146.75 220.847656 C 148.214844 221.285156 147.125 224.007812 144.003906 226.875 C 141.957031 228.753906 139.734375 230.445312 137.550781 232.179688 C 136.257812 233.207031 134.695312 233.957031 134.035156 236.078125 Z M 296.71875 229.507812 C 291.375 234.671875 285.652344 239.464844 278.878906 242.84375 C 276.410156 244.074219 276.5 244.25 277.710938 247.296875 C 279.164062 250.960938 278.160156 253.765625 275.101562 254.574219 C 272.558594 255.246094 270.925781 253.984375 269.832031 249.890625 C 269.335938 248.042969 268.425781 247.605469 266.90625 248.121094 C 257.132812 251.414062 247.210938 254.109375 236.988281 255.511719 C 233.195312 256.035156 230.523438 257.054688 228.769531 261.152344 C 226.75 265.882812 221.800781 265.878906 219.164062 261.324219 C 217.703125 258.800781 216.214844 257.585938 213.414062 257.65625 C 200.625 257.976562 187.875 257.421875 175.171875 255.921875 C 172.597656 255.617188 170.441406 256.265625 168.332031 258.09375 C 163.460938 262.316406 157.695312 261.191406 155.417969 255.449219 C 154.347656 252.746094 152.246094 251.847656 149.785156 251.085938 C 142.507812 248.835938 135.746094 245.730469 131.128906 239.257812 C 130.972656 239.039062 130.695312 238.914062 130.484375 238.738281 C 129.316406 237.761719 127.453125 238.191406 127.121094 239.582031 C 126.136719 243.722656 126.175781 247.851562 127.503906 251.90625 C 127.976562 253.34375 129.101562 253.839844 130.613281 254.167969 C 137.285156 255.640625 138.042969 256.292969 138.5625 262.648438 C 138.773438 265.179688 139.679688 266.726562 141.582031 268.148438 C 143.621094 269.675781 145.816406 270.8125 148.191406 271.625 C 151.875 272.886719 155.648438 273.898438 159.265625 275.308594 C 163.84375 277.097656 167.265625 277.058594 170.800781 272.53125 C 174.183594 268.199219 179.769531 269.640625 182.316406 274.601562 C 182.566406 275.09375 182.859375 275.621094 182.910156 276.152344 C 183.238281 279.621094 185.484375 280.78125 188.566406 281.101562 C 197.96875 282.070312 207.375 282.679688 216.839844 282.195312 C 220.042969 282.035156 222.300781 281.179688 224.378906 278.242188 C 228.113281 272.953125 232.082031 272.683594 236.910156 277.117188 C 238.878906 278.925781 240.5625 279.316406 242.835938 278.738281 C 249.839844 276.953125 256.828125 275.117188 263.839844 273.375 C 267.585938 272.445312 270.542969 271.101562 270.476562 266.355469 C 270.449219 264.414062 272.261719 262.90625 273.957031 261.898438 C 275.949219 260.714844 278.453125 259.925781 280.117188 261.886719 C 283.171875 265.472656 285.9375 264.054688 288.75 261.949219 C 290.964844 260.289062 293.027344 258.414062 295.097656 256.574219 C 297 254.882812 297.0625 253.242188 295.972656 250.71875 C 293.648438 245.34375 294.367188 243.851562 299.828125 240.960938 C 301.679688 239.976562 302.242188 238.824219 301.871094 237.03125 C 301.230469 233.980469 300.132812 231.179688 296.710938 229.503906 Z M 165.535156 281.140625 C 166.445312 284.261719 168.761719 284.792969 170.726562 285.648438 C 177.375 288.558594 184.40625 290.132812 191.511719 291.480469 C 211.730469 295.3125 231.773438 294.878906 251.59375 289.003906 C 258.554688 286.941406 265.191406 284.105469 271.160156 279.914062 C 273.183594 278.496094 274.960938 276.71875 276.769531 275.019531 C 276.988281 274.816406 276.75 274.046875 276.601562 273.574219 C 276.558594 273.4375 276.089844 273.324219 275.851562 273.375 C 274.777344 273.605469 273.683594 273.800781 272.660156 274.179688 C 240.972656 285.898438 208.554688 289.273438 175.28125 282.898438 C 172.140625 282.296875 168.988281 281.757812 165.535156 281.136719 Z M 214.585938 114.828125 C 214.78125 114.015625 214.953125 113.492188 215.027344 112.960938 C 215.140625 112.125 215.070312 111.191406 214.214844 110.875 C 213.542969 110.625 212.582031 110.546875 211.964844 110.847656 C 208.167969 112.691406 205.511719 115.761719 203.363281 119.3125 C 202.769531 120.300781 203.394531 121.710938 204.460938 121.835938 C 207.566406 122.191406 210.457031 122.039062 212.175781 118.773438 C 212.933594 117.332031 213.875 115.988281 214.589844 114.832031 Z M 198.757812 108.726562 C 198.351562 110.882812 196.726562 113.175781 198.074219 115.6875 C 198.855469 117.140625 200.902344 114.414062 202.339844 109.582031 C 202.867188 107.796875 204.019531 105.964844 202.492188 104.089844 C 201.527344 102.898438 200.136719 104.582031 198.757812 108.730469 Z M 187.683594 110.214844 C 187.351562 110.589844 186.746094 110.960938 186.734375 111.351562 C 186.597656 115.382812 188.179688 118.800781 190.761719 121.777344 C 191.007812 122.0625 191.691406 122.019531 192.175781 122.011719 C 192.355469 122.011719 192.6875 121.671875 192.683594 121.496094 C 192.542969 117.3125 191.433594 113.488281 188.441406 110.40625 C 188.289062 110.246094 187.945312 110.277344 187.6875 110.214844 Z M 204.578125 226.300781 C 202.648438 225.738281 200.449219 224.753906 199.34375 222.851562 C 197.109375 219.015625 193.289062 217.371094 189.90625 215.0625 C 188.566406 214.148438 186.964844 213.394531 186.371094 211.695312 C 186.210938 211.234375 186.199219 210.5 186.464844 210.175781 C 186.710938 209.878906 187.539062 209.75 187.910156 209.941406 C 189.382812 210.699219 190.753906 211.632812 192.195312 212.449219 C 193.9375 213.4375 195.34375 212.984375 196.453125 211.363281 C 198.171875 208.859375 199.699219 206.183594 201.675781 203.898438 C 204.847656 200.230469 208.964844 197.902344 213.78125 197.152344 C 219.039062 196.335938 223.652344 197.863281 227.378906 201.695312 C 228.527344 202.875 229.464844 204.277344 230.402344 205.644531 C 231.574219 207.355469 232.929688 207.496094 234.625 206.453125 C 235.316406 206.027344 236.320312 205.683594 236.894531 206.425781 C 237.699219 207.476562 237.054688 208.484375 236.246094 209.300781 C 235.46875 210.085938 234.722656 210.933594 233.828125 211.5625 C 230.183594 214.132812 227.148438 217.214844 224.328125 220.730469 C 219.53125 226.703125 211.484375 228.730469 204.574219 226.304688 Z M 219.558594 201.175781 C 217.296875 200.367188 215.105469 200.382812 212.90625 200.984375 C 206.542969 202.722656 202.457031 207.054688 199.664062 212.792969 C 198.890625 214.378906 199.980469 215.960938 202.042969 216.339844 C 209.644531 217.753906 216.976562 216.792969 224 213.578125 C 228.339844 211.597656 228.871094 209.566406 226.101562 205.898438 C 224.390625 203.632812 222.324219 201.824219 219.558594 201.175781 Z M 216.710938 220.078125 C 213.246094 220.269531 209.78125 220.425781 206.324219 220.699219 C 205.953125 220.730469 205.421875 221.375 205.347656 221.800781 C 205.28125 222.1875 205.640625 222.941406 205.976562 223.058594 C 210.035156 224.464844 213.839844 224.117188 216.710938 220.074219 Z M 175.394531 204.8125 C 176.507812 201.8125 175.238281 198.1875 172.644531 196.980469 C 170.390625 195.929688 167.320312 197.230469 165.730469 199.980469 C 164.890625 201.4375 164.417969 203.015625 164.71875 204.722656 C 165.085938 206.789062 166.179688 208.253906 166.980469 208.488281 C 171.09375 209.738281 174.226562 207.957031 175.390625 204.816406 Z M 256.898438 192.664062 C 254.105469 193.285156 252.585938 195.007812 252.296875 197.742188 C 251.980469 200.746094 253.363281 203.542969 255.8125 204.570312 C 256.542969 204.878906 257.4375 205.035156 258.21875 204.941406 C 260.367188 204.683594 262.421875 202.148438 262.683594 199.632812 C 262.988281 196.6875 261.453125 193.511719 259.007812 192.539062 C 258.5 192.5625 257.671875 192.488281 256.898438 192.660156 Z M 196.089844 266.019531 C 195.054688 268.929688 196.402344 271.6875 199.3125 272.628906 C 202.035156 273.503906 204.484375 272.347656 205.316406 269.789062 C 206.125 267.296875 204.324219 264.246094 201.507812 263.339844 C 199.4375 262.675781 196.820312 263.972656 196.089844 266.023438 Z M 255.976562 264.6875 C 256.617188 262.84375 255.640625 260.472656 253.96875 259.816406 C 251.503906 258.847656 248.203125 259.816406 247.460938 261.730469 C 246.542969 264.097656 247.855469 267.148438 250.113281 267.882812 C 252.539062 268.675781 255.074219 267.292969 255.976562 264.6875 Z M 255.976562 264.6875 " fill-opacity="1" fill-rule="nonzero"/></g></g></g></g></svg>