<svg xmlns="http://www.w3.org/2000/svg" xmlns:xlink="http://www.w3.org/1999/xlink" width="576" zoomAndPan="magnify" viewBox="0 0 432 431.999984" height="576" preserveAspectRatio="xMidYMid meet" version="1.0"><defs><clipPath id="d5e4bc7d05"><path d="M 99 97 L 325 97 L 325 318 L 99 318 Z M 99 97 " clip-rule="nonzero"/></clipPath><clipPath id="d08230e54b"><path d="M 150.578125 79.179688 L 350.421875 146.101562 L 281.125 353.054688 L 81.28125 286.136719 Z M 150.578125 79.179688 " clip-rule="nonzero"/></clipPath><clipPath id="641321c551"><path d="M 150.578125 79.179688 L 350.421875 146.101562 L 281.125 353.054688 L 81.28125 286.136719 Z M 150.578125 79.179688 " clip-rule="nonzero"/></clipPath></defs><g clip-path="url(#d5e4bc7d05)"><g clip-path="url(#d08230e54b)"><g clip-path="url(#641321c551)"><path fill="#ffffff" d="M 186.945312 124.25 C 187.234375 121.527344 185.339844 119.542969 184.648438 117.175781 C 183.867188 114.496094 183.011719 111.863281 183.574219 108.992188 C 184.226562 105.636719 187.039062 104.382812 189.664062 106.4375 C 190.746094 107.285156 191.566406 108.46875 192.628906 109.351562 C 193.667969 110.214844 194.796875 109.929688 195.371094 108.78125 C 196.242188 107.046875 196.875 105.191406 197.644531 103.398438 C 198.421875 101.585938 199.457031 99.988281 201.078125 98.757812 C 203.410156 96.988281 206.472656 97.941406 206.796875 100.769531 C 207.078125 103.222656 206.976562 105.714844 207.042969 108.167969 C 209.253906 108.929688 210.769531 107.242188 212.597656 106.859375 C 216.976562 105.945312 219.644531 108.664062 218.53125 113.113281 C 217.992188 115.257812 216.953125 117.269531 216.253906 119.382812 C 215.847656 120.617188 216.453125 121.609375 217.667969 121.925781 C 219.550781 122.414062 221.46875 122.78125 223.394531 123.074219 C 239.753906 125.578125 254.320312 132.105469 267.011719 142.691406 C 282.5 155.617188 292.445312 172.03125 297.203125 191.605469 C 297.730469 193.765625 298.128906 195.964844 298.578125 198.144531 C 299.019531 200.289062 300.28125 201.511719 302.476562 201.921875 C 307.464844 202.859375 312.046875 204.804688 316.316406 207.5625 C 319.195312 209.421875 321.566406 211.71875 323.035156 214.816406 C 325.71875 220.472656 322.980469 226.421875 316.898438 227.824219 C 314.777344 228.3125 312.492188 228.191406 310.28125 228.171875 C 308.078125 228.152344 305.878906 227.910156 304.023438 227.785156 C 302.640625 229.152344 303.304688 230.164062 303.765625 231.085938 C 308.1875 239.929688 305.273438 247.855469 300.707031 255.554688 C 300.003906 256.742188 299.148438 257.953125 298.078125 258.785156 C 290.824219 264.4375 284.722656 271.199219 278.597656 278.015625 C 274.09375 283.03125 267.980469 286.105469 261.789062 288.726562 C 256.445312 290.988281 256.117188 291.207031 256.898438 297.539062 C 256.964844 298.089844 257.019531 298.652344 257 299.207031 C 256.863281 302.648438 258.160156 305.066406 261.609375 306.226562 C 262.609375 306.5625 263.441406 307.46875 264.257812 308.21875 C 264.597656 308.539062 264.890625 309.160156 264.839844 309.601562 C 264.71875 310.710938 263.769531 310.691406 262.9375 310.632812 C 261.609375 310.542969 260.117188 309.515625 259.027344 310.675781 C 258.347656 311.394531 258.320312 312.710938 257.972656 313.75 C 257.699219 314.558594 257.351562 315.417969 256.296875 315.167969 C 255.851562 315.058594 255.421875 314.5625 255.152344 314.136719 C 254.863281 313.683594 254.847656 313.066406 254.585938 312.585938 C 253.316406 310.21875 253.019531 310.136719 250.9375 311.347656 C 249.558594 312.152344 248.582031 313.867188 246.609375 313.339844 C 245.617188 313.074219 246.582031 310.820312 248.660156 308.621094 C 249.234375 308.015625 249.777344 307.355469 250.4375 306.859375 C 252.917969 304.996094 253.753906 302.535156 253.339844 299.527344 C 253.148438 298.152344 253.125 296.75 252.90625 295.375 C 252.65625 293.796875 251.6875 292.898438 250.039062 293.074219 C 248.9375 293.195312 247.855469 293.5 246.769531 293.757812 C 226.34375 298.621094 205.925781 298.183594 185.507812 293.710938 C 184.691406 293.53125 183.882812 293.339844 183.0625 293.195312 C 181.773438 292.96875 180.832031 293.578125 180.523438 294.746094 C 179.664062 298.019531 179.832031 301.378906 180.160156 304.699219 C 180.300781 306.164062 181.617188 306.953125 182.722656 307.832031 C 183.796875 308.6875 184.769531 309.699219 185.648438 310.753906 C 185.871094 311.019531 185.632812 311.742188 185.476562 312.214844 C 185.414062 312.402344 185.011719 312.59375 184.769531 312.585938 C 184.21875 312.566406 183.640625 312.519531 183.140625 312.316406 C 180.605469 311.277344 179.542969 312.402344 179.207031 314.832031 C 179.09375 315.640625 178.824219 316.472656 178.425781 317.183594 C 178.226562 317.546875 177.53125 317.910156 177.152344 317.828125 C 176.707031 317.738281 176.324219 317.191406 175.988281 316.785156 C 175.828125 316.589844 175.878906 316.242188 175.765625 315.992188 C 175.125 314.578125 176.085938 312.269531 174.007812 311.792969 C 172.8125 311.519531 171.375 312.386719 170.023438 312.59375 C 169.601562 312.65625 168.886719 312.351562 168.707031 312.003906 C 168.496094 311.605469 168.585938 310.910156 168.796875 310.460938 C 169.023438 309.992188 169.476562 309.480469 169.949219 309.296875 C 177.960938 306.195312 176.355469 299.273438 176.378906 293.046875 C 176.382812 291.898438 175.492188 291.03125 174.421875 290.554688 C 172.894531 289.875 171.378906 289.132812 169.792969 288.640625 C 164.949219 287.136719 160.570312 284.652344 156.335938 282 C 149.277344 277.574219 142.347656 272.933594 135.507812 268.175781 C 127.773438 262.792969 123.03125 255.570312 122.734375 245.859375 C 122.699219 244.75 122.734375 243.601562 122.46875 242.539062 C 122.191406 241.402344 121.375 240.589844 120.0625 240.746094 C 117.855469 241.007812 115.652344 241.328125 113.453125 241.664062 C 110.621094 242.089844 107.898438 241.652344 105.25 240.648438 C 100.675781 238.910156 98.894531 235.542969 100.125 230.707031 C 101.03125 227.144531 102.8125 224.039062 105.273438 221.273438 C 108.832031 217.277344 112.925781 213.960938 117.503906 211.246094 C 124.042969 207.378906 123.339844 208.683594 124.121094 200.109375 C 125.800781 181.753906 132.902344 165.691406 144.828125 151.753906 C 154.246094 140.746094 165.871094 132.785156 179.390625 127.558594 C 181.949219 126.570312 184.832031 126.25 186.957031 124.25 Z M 134.136719 235.875 C 136.570312 240.636719 140.796875 243.699219 145.835938 245.617188 C 149.730469 247.097656 153.738281 248.441406 157.8125 249.253906 C 178.105469 253.304688 198.628906 254.691406 219.28125 253.695312 C 236.074219 252.890625 252.449219 249.800781 268.183594 243.699219 C 274.175781 241.375 279.957031 238.628906 285.246094 234.941406 C 288.234375 232.859375 290.988281 230.527344 293.117188 227.539062 C 294.121094 226.136719 293.902344 224.800781 292.445312 224.070312 C 290.703125 223.199219 288.859375 222.53125 287.140625 221.621094 C 286.464844 221.261719 285.988281 220.496094 285.472656 219.871094 C 285.027344 219.328125 285.140625 218.808594 285.710938 218.402344 C 285.929688 218.246094 286.121094 218.03125 286.363281 217.949219 C 287.855469 217.429688 289.117188 218.21875 290.273438 218.890625 C 295.949219 222.1875 302.300781 223.1875 308.585938 224.402344 C 311.347656 224.933594 314.140625 224.910156 316.824219 223.921875 C 319.699219 222.867188 321.035156 220.007812 319.804688 217.167969 C 319.15625 215.671875 318.207031 214.222656 317.101562 213.019531 C 315 210.738281 312.320312 209.273438 309.4375 208.105469 C 302.886719 205.445312 296.054688 204.351562 289.046875 204.121094 C 287.386719 204.066406 285.699219 204.257812 284.261719 203.171875 C 284.066406 203.027344 283.859375 202.757812 283.855469 202.542969 C 283.851562 202.292969 284.003906 201.980469 284.1875 201.796875 C 285.273438 200.726562 286.75 200.632812 288.070312 200.707031 C 296.089844 201.1875 295.003906 198.671875 293.84375 192.804688 C 293.738281 192.257812 293.605469 191.714844 293.453125 191.183594 C 283.386719 156.59375 261.332031 134.082031 225.691406 127.246094 C 191.304688 120.648438 163.167969 132.476562 142.214844 160.511719 C 133.007812 172.828125 128.300781 187.058594 127.148438 202.410156 C 126.980469 204.636719 128.027344 205.582031 130.09375 205.28125 C 133.390625 204.804688 136.671875 204.207031 139.980469 203.800781 C 140.765625 203.703125 141.476562 204.351562 141.570312 205.296875 C 141.636719 205.976562 141.273438 206.328125 140.609375 206.460938 C 138.703125 206.84375 136.792969 207.21875 134.902344 207.671875 C 125.1875 209.992188 116.785156 214.710938 109.625 221.648438 C 107.414062 223.789062 105.398438 226.097656 104.125 228.941406 C 101.785156 234.167969 103.976562 237.902344 109.597656 238.179688 C 112.964844 238.347656 116.257812 237.800781 119.484375 236.828125 C 127.90625 234.292969 135.265625 229.960938 141.671875 223.929688 C 143.148438 222.535156 144.105469 219.855469 146.847656 220.675781 C 148.316406 221.109375 147.226562 223.828125 144.105469 226.691406 C 142.058594 228.566406 139.832031 230.253906 137.652344 231.984375 C 136.359375 233.011719 134.796875 233.757812 134.136719 235.878906 Z M 296.929688 229.433594 C 291.585938 234.585938 285.863281 239.367188 279.085938 242.738281 C 276.621094 243.964844 276.707031 244.140625 277.917969 247.1875 C 279.378906 250.847656 278.375 253.644531 275.316406 254.449219 C 272.769531 255.121094 271.136719 253.859375 270.039062 249.773438 C 269.542969 247.921875 268.628906 247.488281 267.109375 248 C 257.332031 251.28125 247.402344 253.96875 237.175781 255.359375 C 233.378906 255.878906 230.707031 256.894531 228.957031 260.988281 C 226.9375 265.710938 221.988281 265.703125 219.34375 261.15625 C 217.878906 258.632812 216.390625 257.417969 213.585938 257.484375 C 200.789062 257.796875 188.03125 257.234375 175.316406 255.726562 C 172.742188 255.421875 170.582031 256.066406 168.472656 257.890625 C 163.605469 262.105469 157.832031 260.976562 155.550781 255.238281 C 154.472656 252.539062 152.371094 251.640625 149.90625 250.875 C 142.625 248.625 135.859375 245.519531 131.230469 239.050781 C 131.074219 238.832031 130.796875 238.707031 130.585938 238.53125 C 129.417969 237.554688 127.550781 237.984375 127.21875 239.371094 C 126.238281 243.503906 126.28125 247.628906 127.613281 251.679688 C 128.085938 253.117188 129.210938 253.613281 130.726562 253.945312 C 137.40625 255.414062 138.160156 256.070312 138.6875 262.417969 C 138.898438 264.945312 139.808594 266.492188 141.714844 267.914062 C 143.753906 269.441406 145.953125 270.578125 148.328125 271.390625 C 152.015625 272.652344 155.792969 273.667969 159.414062 275.078125 C 163.996094 276.871094 167.417969 276.832031 170.953125 272.3125 C 174.335938 267.988281 179.925781 269.429688 182.480469 274.390625 C 182.730469 274.878906 183.023438 275.40625 183.074219 275.9375 C 183.402344 279.402344 185.652344 280.566406 188.738281 280.886719 C 198.148438 281.859375 207.5625 282.476562 217.03125 282 C 220.238281 281.839844 222.496094 280.988281 224.574219 278.054688 C 228.308594 272.777344 232.28125 272.507812 237.113281 276.941406 C 239.085938 278.746094 240.769531 279.140625 243.046875 278.5625 C 250.050781 276.785156 257.046875 274.957031 264.058594 273.222656 C 267.808594 272.296875 270.765625 270.957031 270.695312 266.21875 C 270.667969 264.277344 272.480469 262.773438 274.175781 261.769531 C 276.167969 260.585938 278.671875 259.800781 280.339844 261.757812 C 283.402344 265.34375 286.167969 263.929688 288.980469 261.828125 C 291.195312 260.171875 293.253906 258.300781 295.328125 256.464844 C 297.230469 254.777344 297.289062 253.140625 296.195312 250.613281 C 293.871094 245.246094 294.589844 243.757812 300.046875 240.871094 C 301.902344 239.890625 302.464844 238.742188 302.089844 236.949219 C 301.449219 233.902344 300.347656 231.105469 296.921875 229.429688 Z M 165.691406 280.90625 C 166.605469 284.027344 168.921875 284.558594 170.886719 285.414062 C 177.546875 288.324219 184.582031 289.902344 191.695312 291.253906 C 211.929688 295.097656 231.984375 294.675781 251.816406 288.824219 C 258.78125 286.769531 265.417969 283.941406 271.390625 279.757812 C 273.414062 278.34375 275.191406 276.570312 277 274.875 C 277.21875 274.671875 276.976562 273.902344 276.832031 273.429688 C 276.789062 273.292969 276.320312 273.179688 276.082031 273.230469 C 275.003906 273.460938 273.910156 273.65625 272.886719 274.035156 C 241.183594 285.714844 208.75 289.0625 175.445312 282.667969 C 172.304688 282.066406 169.148438 281.527344 165.691406 280.902344 Z M 214.65625 114.832031 C 214.851562 114.019531 215.023438 113.5 215.09375 112.964844 C 215.210938 112.132812 215.136719 111.199219 214.28125 110.882812 C 213.609375 110.632812 212.648438 110.554688 212.03125 110.855469 C 208.230469 112.691406 205.578125 115.757812 203.429688 119.304688 C 202.835938 120.289062 203.464844 121.695312 204.527344 121.824219 C 207.636719 122.179688 210.527344 122.03125 212.25 118.769531 C 213.007812 117.332031 213.945312 115.988281 214.660156 114.835938 Z M 198.8125 108.726562 C 198.410156 110.878906 196.785156 113.167969 198.132812 115.675781 C 198.917969 117.128906 200.960938 114.410156 202.394531 109.582031 C 202.925781 107.800781 204.074219 105.972656 202.546875 104.097656 C 201.578125 102.90625 200.191406 104.585938 198.8125 108.730469 Z M 187.734375 110.203125 C 187.402344 110.578125 186.792969 110.949219 186.78125 111.339844 C 186.648438 115.367188 188.234375 118.777344 190.820312 121.757812 C 191.066406 122.039062 191.753906 122 192.234375 121.992188 C 192.414062 121.988281 192.746094 121.652344 192.742188 121.476562 C 192.601562 117.296875 191.488281 113.476562 188.492188 110.398438 C 188.339844 110.238281 187.992188 110.265625 187.734375 110.203125 Z M 204.722656 226.160156 C 202.789062 225.597656 200.589844 224.613281 199.480469 222.714844 C 197.242188 218.882812 193.417969 217.238281 190.03125 214.929688 C 188.691406 214.011719 187.085938 213.257812 186.492188 211.5625 C 186.332031 211.101562 186.316406 210.367188 186.582031 210.042969 C 186.828125 209.75 187.65625 209.621094 188.03125 209.8125 C 189.503906 210.566406 190.878906 211.503906 192.320312 212.320312 C 194.0625 213.304688 195.472656 212.855469 196.582031 211.238281 C 198.300781 208.734375 199.824219 206.0625 201.800781 203.785156 C 204.972656 200.125 209.09375 197.800781 213.910156 197.054688 C 219.171875 196.242188 223.789062 197.773438 227.519531 201.601562 C 228.671875 202.78125 229.609375 204.183594 230.546875 205.546875 C 231.722656 207.257812 233.078125 207.402344 234.777344 206.359375 C 235.46875 205.933594 236.46875 205.59375 237.046875 206.335938 C 237.855469 207.382812 237.207031 208.390625 236.398438 209.203125 C 235.621094 209.988281 234.875 210.835938 233.980469 211.464844 C 230.335938 214.027344 227.300781 217.105469 224.480469 220.609375 C 219.683594 226.574219 211.636719 228.59375 204.71875 226.164062 Z M 219.695312 201.078125 C 217.433594 200.269531 215.238281 200.285156 213.039062 200.882812 C 206.671875 202.613281 202.585938 206.9375 199.796875 212.667969 C 199.023438 214.253906 200.113281 215.828125 202.175781 216.210938 C 209.789062 217.628906 217.121094 216.675781 224.148438 213.46875 C 228.488281 211.492188 229.019531 209.464844 226.246094 205.800781 C 224.535156 203.535156 222.464844 201.726562 219.695312 201.078125 Z M 216.859375 219.953125 C 213.394531 220.144531 209.921875 220.300781 206.464844 220.566406 C 206.09375 220.597656 205.5625 221.242188 205.488281 221.667969 C 205.421875 222.054688 205.78125 222.808594 206.117188 222.925781 C 210.183594 224.332031 213.988281 223.988281 216.859375 219.953125 Z M 175.503906 204.679688 C 176.617188 201.683594 175.339844 198.0625 172.746094 196.851562 C 170.488281 195.800781 167.417969 197.101562 165.828125 199.847656 C 164.988281 201.300781 164.515625 202.875 164.820312 204.582031 C 165.1875 206.644531 166.28125 208.105469 167.085938 208.34375 C 171.203125 209.59375 174.335938 207.820312 175.5 204.683594 Z M 257.054688 192.601562 C 254.257812 193.222656 252.742188 194.941406 252.453125 197.671875 C 252.140625 200.671875 253.527344 203.46875 255.976562 204.496094 C 256.707031 204.804688 257.605469 204.960938 258.382812 204.867188 C 260.535156 204.613281 262.585938 202.078125 262.847656 199.566406 C 263.152344 196.625 261.613281 193.453125 259.164062 192.480469 C 258.660156 192.503906 257.828125 192.425781 257.054688 192.597656 Z M 196.253906 265.828125 C 195.222656 268.730469 196.574219 271.488281 199.488281 272.429688 C 202.210938 273.308594 204.660156 272.152344 205.492188 269.597656 C 206.300781 267.109375 204.492188 264.058594 201.675781 263.15625 C 199.605469 262.488281 196.984375 263.78125 196.257812 265.828125 Z M 256.183594 264.539062 C 256.824219 262.699219 255.84375 260.328125 254.171875 259.671875 C 251.707031 258.703125 248.402344 259.671875 247.660156 261.582031 C 246.742188 263.945312 248.058594 266.992188 250.320312 267.726562 C 252.746094 268.519531 255.28125 267.140625 256.183594 264.539062 Z M 256.183594 264.539062 " fill-opacity="1" fill-rule="nonzero"/></g></g></g></svg>