<svg xmlns="http://www.w3.org/2000/svg" xmlns:xlink="http://www.w3.org/1999/xlink" width="576" zoomAndPan="magnify" viewBox="0 0 432 431.999984" height="576" preserveAspectRatio="xMidYMid meet" version="1.0"><defs><clipPath id="b624004623"><path d="M 107 90 L 333 90 L 333 336 L 107 336 Z M 107 90 " clip-rule="nonzero"/></clipPath><clipPath id="9ae69e3196"><path d="M 90.550781 106.925781 L 318.210938 84.632812 L 341.746094 324.984375 L 114.082031 347.277344 Z M 90.550781 106.925781 " clip-rule="nonzero"/></clipPath><clipPath id="9b34203bde"><path d="M 90.550781 106.925781 L 318.210938 84.632812 L 341.746094 324.984375 L 114.082031 347.277344 Z M 90.550781 106.925781 " clip-rule="nonzero"/></clipPath></defs><g clip-path="url(#b624004623)"><g clip-path="url(#9ae69e3196)"><g clip-path="url(#9b34203bde)"><path fill="#ffffff" d="M 252.640625 196.753906 C 252.480469 193.929688 254.25 191.898438 257.277344 191.429688 C 261.351562 190.792969 264.238281 192.535156 264.671875 195.894531 C 265.125 199.414062 262.636719 202.472656 259.183594 202.640625 C 255.714844 202.808594 252.828125 200.21875 252.640625 196.753906 Z M 328.992188 265.957031 C 326.011719 270.492188 321.929688 273.90625 317.476562 276.886719 C 312.058594 280.511719 306.234375 283.3125 300.199219 285.65625 C 300.191406 285.832031 300.183594 286.011719 300.175781 286.195312 C 299.519531 299.101562 297.976562 329.324219 249.066406 334.113281 C 236.265625 335.367188 210.890625 336.828125 196.992188 334.339844 C 182.035156 331.660156 166.5 328.023438 154.1875 319.617188 C 142.875 311.890625 133.261719 297.886719 136.425781 283.492188 C 134.296875 282.546875 132.191406 281.535156 130.125 280.4375 C 124.511719 277.457031 119.242188 273.980469 114.914062 269.257812 C 105.621094 259.125 105.570312 248.164062 114.742188 238.082031 C 115.414062 237.347656 116.035156 236.46875 116.867188 235.984375 C 123.175781 232.292969 123.957031 227.222656 123.007812 220.105469 C 119.460938 193.574219 128.53125 171.070312 146.824219 151.953125 C 149.3125 149.351562 152.558594 147.421875 154.234375 144.078125 C 152.789062 140.664062 149.503906 139.335938 147.066406 137.160156 C 141.539062 132.230469 136.777344 126.773438 133.867188 119.847656 C 132.550781 116.703125 131.875 113.476562 132.1875 110.113281 C 132.625 105.285156 136.703125 102.417969 141.339844 103.507812 C 146.519531 104.726562 150.191406 107.960938 152.972656 112.316406 C 156.582031 117.972656 158.820312 124.246094 161.003906 130.539062 C 161.546875 132.105469 161.828125 133.789062 162.542969 135.265625 C 163.160156 136.539062 164.46875 137.035156 165.910156 136.558594 C 166.851562 136.246094 167.792969 135.890625 168.660156 135.410156 C 176.257812 131.199219 184.238281 127.898438 192.628906 125.667969 C 195.632812 124.867188 196.882812 123.105469 197.390625 120.109375 C 198.171875 115.535156 199.183594 110.964844 200.539062 106.527344 C 201.605469 103.035156 203.386719 99.789062 206.390625 97.410156 C 208.742188 95.546875 211.546875 95.839844 213.289062 98.375 C 214.023438 99.445312 214.4375 100.746094 214.90625 101.980469 C 215.503906 103.554688 216.65625 103.753906 218.085938 103.445312 C 219.0625 103.234375 220.03125 102.90625 221.015625 102.859375 C 224.148438 102.730469 226.335938 104.542969 226.175781 107.476562 C 226.054688 109.757812 225.433594 112.039062 224.828125 114.257812 C 224.390625 115.847656 223.492188 117.300781 223.015625 118.882812 C 222.546875 120.460938 223.59375 121.382812 224.9375 121.808594 C 225.871094 122.105469 226.902344 122.113281 227.894531 122.171875 C 235.90625 122.652344 243.703125 124.277344 251.414062 126.417969 C 259.007812 128.527344 259.097656 128.535156 260.917969 120.457031 C 262.023438 115.558594 263.484375 110.8125 265.621094 106.28125 C 267.625 102.023438 270.171875 98.136719 273.804688 95.078125 C 276.109375 93.136719 278.605469 91.515625 281.6875 91.023438 C 286.519531 90.25 290.226562 92.949219 290.964844 97.746094 C 291.597656 101.875 290.542969 105.6875 288.808594 109.347656 C 285.617188 116.09375 280.742188 121.5 275.132812 126.328125 C 272.9375 128.21875 270.007812 129.464844 268.921875 132.511719 C 271.0625 135.472656 274.273438 136.640625 276.964844 138.488281 C 291.648438 148.535156 302.699219 161.476562 308.941406 178.296875 C 313.558594 190.730469 314.8125 203.496094 312.808594 216.59375 C 312.453125 218.894531 312 221.175781 311.578125 223.46875 C 311.179688 225.640625 311.78125 227.367188 313.6875 228.609375 C 315.640625 229.882812 317.597656 231.160156 319.464844 232.550781 C 323.222656 235.34375 326.675781 238.464844 329.160156 242.503906 C 333.976562 250.347656 334.082031 258.1875 328.984375 265.953125 Z M 265.523438 126.523438 C 266.425781 126.660156 267.59375 126.652344 268.300781 126.1875 C 275.34375 121.546875 281.058594 115.644531 284.789062 108.011719 C 285.796875 105.957031 286.496094 103.695312 286.992188 101.453125 C 287.421875 99.511719 287.371094 97.449219 285.378906 96.144531 C 283.480469 94.898438 281.578125 95.46875 279.691406 96.222656 C 276.804688 97.371094 274.738281 99.535156 272.953125 101.933594 C 268.074219 108.464844 265.644531 115.960938 264.660156 122.46875 C 264.449219 125.246094 264.757812 126.414062 265.519531 126.53125 Z M 204.757812 122.671875 C 205.738281 122.6875 206.714844 122.5 207.765625 122.398438 C 210.40625 121.410156 213.796875 122.625 215.972656 119.933594 C 218.039062 117.375 220.078125 114.769531 220.90625 111.496094 C 221.042969 110.957031 220.917969 110.125 220.574219 109.730469 C 219.8125 108.859375 218.71875 109.011719 218.074219 109.832031 C 216.039062 112.394531 214.203125 115.117188 212.125 117.640625 C 211.613281 118.261719 210.46875 118.359375 209.613281 118.699219 C 209.320312 117.789062 208.832031 116.882812 208.792969 115.960938 C 208.75 115.007812 209.195312 114.046875 209.34375 113.074219 C 209.742188 110.484375 210.199219 107.894531 210.425781 105.28125 C 210.535156 104.015625 210.304688 102.441406 208.59375 102.410156 C 207.84375 102.394531 206.789062 103.148438 206.359375 103.851562 C 203.375 108.71875 201.925781 114.082031 201.675781 119.761719 C 201.582031 121.847656 202.890625 122.648438 204.761719 122.675781 Z M 155.277344 137.625 C 155.75 137.902344 156.679688 137.847656 157.144531 137.550781 C 157.566406 137.28125 157.640625 136.472656 158.066406 135.402344 C 155.621094 127.601562 153.242188 119.347656 147.746094 112.460938 C 146.296875 110.640625 144.4375 109.257812 142.207031 108.40625 C 138.992188 107.167969 135.9375 109.210938 136.132812 112.527344 C 136.171875 113.1875 136.1875 113.863281 136.363281 114.488281 C 139.300781 124.945312 146.054688 132.304688 155.269531 137.625 Z M 295.035156 287.542969 C 295.035156 287.542969 295.015625 287.546875 295.007812 287.550781 C 291.550781 288.742188 288.042969 289.789062 284.535156 290.820312 C 282.304688 291.472656 281.289062 292.9375 281.226562 295.175781 C 281.21875 295.507812 281.203125 295.839844 281.210938 296.175781 C 281.539062 307.628906 278.003906 307.992188 269.113281 309.097656 C 264.835938 309.628906 260.492188 309.71875 256.171875 309.808594 C 252.355469 309.890625 249.933594 307.957031 249.070312 304.164062 C 248.777344 302.871094 248.523438 301.546875 248.058594 300.308594 C 247.425781 298.609375 246.066406 297.707031 244.277344 297.53125 C 243.285156 297.4375 242.277344 297.359375 241.289062 297.449219 C 229.332031 298.554688 217.351562 298.238281 205.375 298.101562 C 200.414062 298.042969 200.402344 298.195312 198.789062 303.5 C 198.5 304.449219 198.410156 305.464844 198.085938 306.402344 C 196.859375 309.949219 194.371094 311.90625 190.585938 311.789062 C 184.578125 311.601562 178.65625 310.675781 172.929688 308.867188 C 169.757812 307.867188 168.308594 305.355469 167.964844 302.066406 C 167.664062 299.195312 169.476562 295.570312 166.546875 293.644531 C 164.15625 292.078125 160.96875 291.691406 158.101562 290.917969 C 152.363281 289.363281 146.699219 287.621094 141.1875 285.472656 C 139.121094 297.261719 147.402344 308.859375 157.039062 315.4375 C 168.5625 323.308594 183.480469 326.78125 197.878906 329.359375 C 211.234375 331.75 236.027344 330.308594 248.570312 329.082031 C 291.332031 324.894531 294.296875 300.621094 295.03125 287.542969 Z M 194.953125 300.691406 C 195.0625 298.019531 193.296875 297.167969 191.269531 296.863281 C 186.347656 296.121094 181.390625 295.566406 176.4375 295.015625 C 175.105469 294.867188 173.808594 295.136719 172.894531 296.347656 C 170.613281 299.382812 171.96875 304.269531 175.582031 305.308594 C 179.898438 306.550781 184.324219 307.304688 190.566406 307.25 C 193.449219 306.886719 194.78125 304.789062 194.953125 300.691406 Z M 190.191406 307.289062 C 190.027344 307.296875 190.074219 307.300781 190.191406 307.289062 Z M 252.640625 301.738281 C 253.207031 304.398438 254.726562 305.988281 257.414062 305.824219 C 262.710938 305.503906 268.007812 305.015625 273.246094 304.222656 C 276.242188 303.769531 277.261719 301.050781 276.523438 297.019531 C 276.0625 294.492188 274.726562 293.6875 271.308594 293.941406 C 269.652344 294.0625 268.003906 294.257812 266.648438 294.390625 C 262.753906 295.066406 259.132812 295.566406 255.574219 296.359375 C 253.019531 296.929688 252.054688 298.964844 252.640625 301.738281 Z M 325.347656 245.015625 C 322.507812 240.800781 318.808594 237.449219 314.507812 234.867188 C 309.960938 232.132812 305.1875 229.769531 300.535156 227.210938 C 299.402344 226.585938 298.265625 225.921875 297.304688 225.078125 C 296.96875 224.78125 296.941406 223.792969 297.164062 223.300781 C 297.390625 222.800781 298.152344 222.160156 298.597656 222.222656 C 300.210938 222.441406 301.78125 222.957031 303.378906 223.316406 C 305.820312 223.871094 307.164062 222.769531 307.632812 220.414062 C 308.019531 218.460938 308.5 216.523438 308.761719 214.554688 C 311.441406 194.390625 306.199219 176.34375 293.921875 160.289062 C 284.171875 147.535156 271.476562 138.640625 256.574219 132.957031 C 232.914062 123.9375 208.996094 124.144531 185.355469 132.628906 C 163.3125 140.539062 146.011719 154.519531 134.839844 175.484375 C 128.09375 188.144531 125.511719 201.683594 126.367188 215.929688 C 126.546875 218.917969 126.859375 221.921875 128.257812 224.644531 C 128.699219 225.511719 129.511719 226.242188 130.652344 225.953125 C 131.921875 225.625 133.167969 225.179688 134.417969 224.769531 C 136.929688 223.941406 139.421875 223.042969 141.960938 222.316406 C 142.351562 222.207031 143.238281 222.757812 143.394531 223.183594 C 143.558594 223.652344 143.320312 224.636719 142.941406 224.855469 C 141.246094 225.859375 139.449219 226.695312 137.664062 227.546875 C 130.441406 230.992188 123.339844 234.636719 117.8125 240.625 C 109.9375 249.171875 109.941406 257.792969 117.804688 266.265625 C 121.925781 270.710938 126.957031 273.929688 132.308594 276.695312 C 141.816406 281.609375 151.914062 284.867188 162.285156 287.351562 C 190.359375 294.070312 218.8125 294.9375 245.050781 293.085938 C 264.375 291.058594 280.96875 287.789062 296.972656 281.917969 C 303.847656 279.398438 310.449219 276.246094 316.421875 271.933594 C 319.949219 269.390625 323.136719 266.5 325.480469 262.769531 C 329.222656 256.816406 329.316406 250.910156 325.34375 245.015625 Z M 281.9375 220.644531 C 282.222656 220.566406 282.53125 220.253906 282.640625 219.96875 C 282.730469 219.730469 282.640625 219.328125 282.484375 219.09375 C 281.089844 216.949219 278.671875 216.582031 276.539062 215.835938 C 252 207.28125 226.773438 204.53125 195.203125 207.441406 C 189.273438 207.832031 177.875 209.945312 166.984375 214.351562 C 165.78125 214.835938 164.621094 215.496094 163.59375 216.28125 C 163.226562 216.558594 163.070312 217.535156 163.265625 218.015625 C 163.441406 218.453125 164.28125 218.964844 164.730469 218.886719 C 166.351562 218.589844 167.976562 218.167969 169.527344 217.609375 C 190.59375 209.992188 212.296875 208.726562 234.402344 210.730469 C 248.371094 211.996094 261.980469 214.761719 275.257812 219.261719 C 277.410156 219.992188 279.484375 221.34375 281.9375 220.648438 Z M 276.953125 242.136719 C 274.289062 245.796875 273.652344 249.9375 274.390625 255.894531 C 274.480469 256.273438 274.699219 258.28125 275.417969 260.085938 C 276.417969 262.613281 278.136719 264.597656 281.128906 264.851562 C 284.082031 265.101562 286.234375 263.671875 287.664062 261.261719 C 291.078125 255.5 291.441406 249.421875 288.78125 243.308594 C 286.460938 237.972656 280.375 237.433594 276.953125 242.136719 Z M 262.410156 181.132812 C 264.730469 182.347656 267.121094 183.429688 269.511719 184.496094 C 271.515625 185.390625 273.589844 185.023438 273.65625 183.867188 C 273.742188 182.296875 272.679688 181.460938 271.621094 180.742188 C 269.132812 179.042969 266.445312 177.855469 263.351562 178.246094 C 262.828125 178.660156 262.089844 178.960938 261.933594 179.445312 C 261.777344 179.929688 262.03125 180.933594 262.410156 181.132812 Z M 180.929688 199.988281 C 183.746094 199.628906 185.929688 196.535156 185.492188 193.535156 C 185.085938 190.761719 182.664062 188.898438 179.964844 189.28125 C 176.917969 189.714844 174.78125 192.601562 175.292969 195.59375 C 175.71875 198.09375 178.539062 200.289062 180.925781 199.984375 Z M 157.183594 241.832031 C 154.546875 245.445312 153.476562 249.523438 153.878906 254.566406 C 154.101562 256.609375 154.347656 259.210938 155.972656 261.492188 C 158.609375 265.1875 163.035156 265.535156 166.109375 262.191406 C 170.5625 257.34375 171.621094 248.511719 168.445312 242.726562 C 165.804688 237.914062 160.375 237.464844 157.183594 241.835938 Z M 163.71875 184.445312 C 166.835938 182.667969 169.902344 180.792969 172.914062 178.839844 C 173.292969 178.597656 173.265625 177.722656 173.386719 177.285156 C 172.898438 176.835938 172.457031 176.078125 172.023438 176.078125 C 167.367188 176.097656 163.921875 178.28125 161.667969 182.304688 C 161.4375 182.71875 161.621094 183.675781 161.972656 184.023438 C 162.34375 184.398438 163.320312 184.671875 163.71875 184.441406 Z M 163.71875 184.445312 " fill-opacity="1" fill-rule="nonzero"/></g></g></g></svg>