<svg xmlns="http://www.w3.org/2000/svg" xmlns:xlink="http://www.w3.org/1999/xlink" width="576" zoomAndPan="magnify" viewBox="0 0 432 431.999984" height="576" preserveAspectRatio="xMidYMid meet" version="1.0"><defs><clipPath id="db7b647046"><path d="M 107 90 L 334 90 L 334 336 L 107 336 Z M 107 90 " clip-rule="nonzero"/></clipPath><clipPath id="418356a371"><path d="M 90.550781 106.925781 L 318.210938 84.632812 L 341.746094 324.984375 L 114.082031 347.277344 Z M 90.550781 106.925781 " clip-rule="nonzero"/></clipPath><clipPath id="7861193f34"><path d="M 90.550781 106.925781 L 318.210938 84.632812 L 341.746094 324.984375 L 114.082031 347.277344 Z M 90.550781 106.925781 " clip-rule="nonzero"/></clipPath><clipPath id="4ff98b232f"><path d="M 90.550781 106.925781 L 318.210938 84.632812 L 341.746094 324.984375 L 114.082031 347.277344 Z M 90.550781 106.925781 " clip-rule="nonzero"/></clipPath></defs><g clip-path="url(#db7b647046)"><g clip-path="url(#418356a371)"><g clip-path="url(#7861193f34)"><g clip-path="url(#4ff98b232f)"><path fill="#000000" d="M 252.839844 196.707031 C 252.683594 193.882812 254.453125 191.855469 257.484375 191.382812 C 261.5625 190.75 264.453125 192.488281 264.886719 195.847656 C 265.339844 199.363281 262.851562 202.425781 259.390625 202.589844 C 255.917969 202.761719 253.027344 200.171875 252.839844 196.707031 Z M 329.28125 265.882812 C 326.296875 270.421875 322.210938 273.832031 317.75 276.8125 C 312.324219 280.4375 306.492188 283.238281 300.449219 285.582031 C 300.4375 285.757812 300.433594 285.9375 300.421875 286.125 C 299.765625 299.027344 298.21875 329.242188 249.242188 334.039062 C 236.421875 335.292969 211.015625 336.757812 197.097656 334.269531 C 182.121094 331.597656 166.566406 327.964844 154.238281 319.558594 C 142.914062 311.835938 133.289062 297.839844 136.457031 283.445312 C 134.328125 282.5 132.21875 281.492188 130.152344 280.394531 C 124.53125 277.414062 119.253906 273.9375 114.917969 269.21875 C 105.617188 259.089844 105.570312 248.128906 114.753906 238.046875 C 115.425781 237.3125 116.046875 236.433594 116.882812 235.949219 C 123.199219 232.257812 123.984375 227.191406 123.035156 220.074219 C 119.488281 193.546875 128.574219 171.050781 146.890625 151.933594 C 149.382812 149.332031 152.632812 147.402344 154.3125 144.0625 C 152.867188 140.648438 149.578125 139.320312 147.136719 137.144531 C 141.605469 132.214844 136.835938 126.761719 133.925781 119.835938 C 132.605469 116.695312 131.929688 113.46875 132.242188 110.105469 C 132.683594 105.277344 136.765625 102.414062 141.410156 103.5 C 146.59375 104.71875 150.269531 107.949219 153.050781 112.304688 C 156.667969 117.960938 158.90625 124.230469 161.089844 130.523438 C 161.636719 132.089844 161.917969 133.773438 162.632812 135.25 C 163.253906 136.519531 164.558594 137.019531 166.003906 136.539062 C 166.949219 136.226562 167.890625 135.871094 168.757812 135.390625 C 176.367188 131.179688 184.359375 127.882812 192.757812 125.648438 C 195.769531 124.84375 197.019531 123.082031 197.527344 120.089844 C 198.3125 115.515625 199.324219 110.949219 200.683594 106.511719 C 201.753906 103.015625 203.535156 99.773438 206.542969 97.394531 C 208.902344 95.53125 211.707031 95.824219 213.453125 98.359375 C 214.1875 99.425781 214.605469 100.730469 215.070312 101.964844 C 215.667969 103.535156 216.824219 103.734375 218.253906 103.425781 C 219.234375 103.214844 220.203125 102.886719 221.191406 102.839844 C 224.324219 102.710938 226.515625 104.519531 226.355469 107.457031 C 226.230469 109.738281 225.613281 112.015625 225.003906 114.238281 C 224.566406 115.824219 223.667969 117.28125 223.191406 118.859375 C 222.71875 120.4375 223.765625 121.359375 225.113281 121.785156 C 226.046875 122.082031 227.082031 122.089844 228.074219 122.148438 C 236.09375 122.628906 243.902344 124.25 251.621094 126.386719 C 259.226562 128.496094 259.316406 128.507812 261.140625 120.425781 C 262.246094 115.53125 263.710938 110.785156 265.851562 106.253906 C 267.859375 101.996094 270.410156 98.109375 274.046875 95.054688 C 276.355469 93.113281 278.855469 91.492188 281.941406 90.996094 C 286.78125 90.222656 290.492188 92.921875 291.230469 97.71875 C 291.863281 101.84375 290.804688 105.65625 289.070312 109.316406 C 285.871094 116.0625 280.992188 121.464844 275.375 126.296875 C 273.175781 128.1875 270.238281 129.429688 269.152344 132.476562 C 271.296875 135.4375 274.511719 136.605469 277.207031 138.453125 C 291.910156 148.496094 302.96875 161.433594 309.21875 178.246094 C 313.839844 190.675781 315.09375 203.4375 313.082031 216.535156 C 312.730469 218.835938 312.273438 221.117188 311.851562 223.40625 C 311.453125 225.582031 312.054688 227.304688 313.964844 228.550781 C 315.917969 229.820312 317.875 231.097656 319.746094 232.484375 C 323.511719 235.28125 326.96875 238.398438 329.453125 242.4375 C 334.277344 250.28125 334.378906 258.113281 329.277344 265.882812 Z M 265.75 126.492188 C 266.652344 126.628906 267.824219 126.621094 268.53125 126.15625 C 275.585938 121.515625 281.308594 115.613281 285.046875 107.984375 C 286.054688 105.925781 286.757812 103.667969 287.25 101.425781 C 287.679688 99.484375 287.628906 97.421875 285.636719 96.117188 C 283.738281 94.871094 281.832031 95.441406 279.945312 96.195312 C 277.054688 97.34375 274.984375 99.507812 273.191406 101.90625 C 268.308594 108.4375 265.875 115.929688 264.890625 122.4375 C 264.675781 125.214844 264.984375 126.382812 265.746094 126.5 Z M 204.90625 122.652344 C 205.886719 122.667969 206.867188 122.476562 207.917969 122.375 C 210.5625 121.386719 213.957031 122.601562 216.132812 119.910156 C 218.203125 117.351562 220.246094 114.746094 221.078125 111.476562 C 221.214844 110.933594 221.089844 110.105469 220.742188 109.707031 C 219.984375 108.839844 218.886719 108.992188 218.242188 109.808594 C 216.203125 112.375 214.363281 115.09375 212.28125 117.621094 C 211.773438 118.242188 210.625 118.335938 209.769531 118.675781 C 209.476562 117.769531 208.984375 116.863281 208.945312 115.941406 C 208.90625 114.988281 209.351562 114.027344 209.5 113.054688 C 209.898438 110.464844 210.359375 107.875 210.585938 105.261719 C 210.691406 103.996094 210.464844 102.421875 208.75 102.390625 C 207.996094 102.378906 206.941406 103.132812 206.511719 103.835938 C 203.523438 108.703125 202.070312 114.0625 201.820312 119.742188 C 201.726562 121.828125 203.039062 122.625 204.910156 122.652344 Z M 155.359375 137.609375 C 155.832031 137.886719 156.761719 137.832031 157.226562 137.535156 C 157.648438 137.265625 157.726562 136.457031 158.152344 135.386719 C 155.703125 127.589844 153.320312 119.332031 147.820312 112.449219 C 146.367188 110.628906 144.507812 109.25 142.277344 108.398438 C 139.054688 107.164062 136 109.203125 136.191406 112.519531 C 136.230469 113.179688 136.246094 113.855469 136.421875 114.480469 C 139.359375 124.933594 146.125 132.289062 155.351562 137.609375 Z M 295.277344 287.46875 C 295.277344 287.46875 295.257812 287.476562 295.25 287.480469 C 291.789062 288.667969 288.277344 289.71875 284.761719 290.75 C 282.527344 291.402344 281.511719 292.863281 281.449219 295.105469 C 281.441406 295.4375 281.425781 295.769531 281.433594 296.101562 C 281.761719 307.554688 278.222656 307.917969 269.316406 309.023438 C 265.035156 309.554688 260.6875 309.644531 256.359375 309.738281 C 252.539062 309.820312 250.113281 307.886719 249.25 304.097656 C 248.953125 302.800781 248.699219 301.476562 248.234375 300.238281 C 247.601562 298.542969 246.242188 297.636719 244.449219 297.464844 C 243.457031 297.367188 242.445312 297.292969 241.457031 297.382812 C 229.484375 298.488281 217.492188 298.175781 205.496094 298.039062 C 200.53125 297.984375 200.515625 298.136719 198.902344 303.4375 C 198.613281 304.386719 198.519531 305.402344 198.195312 306.339844 C 196.96875 309.886719 194.476562 311.84375 190.6875 311.726562 C 184.671875 311.539062 178.742188 310.617188 173.007812 308.808594 C 169.832031 307.808594 168.382812 305.296875 168.035156 302.011719 C 167.734375 299.140625 169.554688 295.515625 166.617188 293.589844 C 164.226562 292.023438 161.03125 291.640625 158.160156 290.863281 C 152.417969 289.3125 146.746094 287.570312 141.226562 285.421875 C 139.15625 297.210938 147.445312 308.804688 157.09375 315.382812 C 168.632812 323.246094 183.570312 326.714844 197.988281 329.292969 C 211.359375 331.679688 236.183594 330.234375 248.742188 329.007812 C 291.5625 324.8125 294.539062 300.546875 295.273438 287.46875 Z M 195.0625 300.632812 C 195.171875 297.960938 193.402344 297.109375 191.375 296.804688 C 186.445312 296.0625 181.480469 295.507812 176.523438 294.960938 C 175.1875 294.8125 173.890625 295.078125 172.972656 296.292969 C 170.691406 299.324219 172.046875 304.214844 175.664062 305.25 C 179.984375 306.492188 184.414062 307.246094 190.667969 307.1875 C 193.554688 306.824219 194.886719 304.730469 195.0625 300.632812 Z M 190.289062 307.230469 C 190.128906 307.238281 190.175781 307.242188 190.289062 307.230469 Z M 252.828125 301.667969 C 253.390625 304.328125 254.914062 305.917969 257.605469 305.753906 C 262.90625 305.433594 268.210938 304.945312 273.457031 304.152344 C 276.457031 303.699219 277.476562 300.976562 276.738281 296.945312 C 276.277344 294.421875 274.941406 293.617188 271.515625 293.871094 C 269.859375 293.996094 268.207031 294.1875 266.851562 294.320312 C 262.949219 294.996094 259.324219 295.496094 255.761719 296.292969 C 253.207031 296.859375 252.238281 298.898438 252.828125 301.667969 Z M 325.636719 244.949219 C 322.796875 240.734375 319.089844 237.382812 314.785156 234.800781 C 310.230469 232.070312 305.453125 229.710938 300.792969 227.152344 C 299.660156 226.527344 298.519531 225.863281 297.558594 225.019531 C 297.222656 224.722656 297.195312 223.734375 297.417969 223.242188 C 297.644531 222.746094 298.410156 222.101562 298.855469 222.164062 C 300.46875 222.382812 302.042969 222.894531 303.644531 223.257812 C 306.085938 223.8125 307.433594 222.710938 307.902344 220.355469 C 308.289062 218.402344 308.769531 216.464844 309.03125 214.5 C 311.71875 194.335938 306.476562 176.296875 294.179688 160.246094 C 284.421875 147.496094 271.710938 138.605469 256.789062 132.925781 C 233.101562 123.910156 209.148438 124.121094 185.476562 132.609375 C 163.40625 140.523438 146.078125 154.5 134.886719 175.460938 C 128.128906 188.121094 125.542969 201.660156 126.398438 215.902344 C 126.578125 218.886719 126.890625 221.890625 128.289062 224.609375 C 128.734375 225.480469 129.542969 226.210938 130.683594 225.917969 C 131.960938 225.589844 133.207031 225.144531 134.457031 224.734375 C 136.972656 223.90625 139.46875 223.007812 142.007812 222.28125 C 142.402344 222.171875 143.292969 222.722656 143.445312 223.148438 C 143.609375 223.617188 143.371094 224.601562 142.992188 224.820312 C 141.292969 225.824219 139.496094 226.660156 137.707031 227.511719 C 130.476562 230.957031 123.363281 234.601562 117.828125 240.589844 C 109.941406 249.136719 109.941406 257.753906 117.8125 266.226562 C 121.941406 270.667969 126.980469 273.886719 132.335938 276.648438 C 141.859375 281.558594 151.96875 284.816406 162.351562 287.296875 C 190.460938 294.011719 218.953125 294.875 245.222656 293.019531 C 264.574219 290.988281 281.191406 287.71875 297.21875 281.847656 C 304.105469 279.324219 310.714844 276.175781 316.695312 271.863281 C 320.226562 269.320312 323.417969 266.425781 325.765625 262.699219 C 329.515625 256.742188 329.609375 250.839844 325.632812 244.949219 Z M 282.175781 220.589844 C 282.457031 220.511719 282.765625 220.195312 282.875 219.914062 C 282.96875 219.675781 282.875 219.273438 282.722656 219.035156 C 281.324219 216.894531 278.902344 216.527344 276.765625 215.785156 C 252.195312 207.234375 226.9375 204.488281 195.324219 207.402344 C 189.386719 207.796875 177.972656 209.910156 167.066406 214.316406 C 165.863281 214.800781 164.703125 215.460938 163.671875 216.242188 C 163.304688 216.523438 163.148438 217.5 163.34375 217.980469 C 163.523438 218.417969 164.363281 218.929688 164.8125 218.847656 C 166.4375 218.554688 168.058594 218.132812 169.617188 217.574219 C 190.707031 209.953125 212.441406 208.683594 234.578125 210.683594 C 248.5625 211.949219 262.191406 214.710938 275.484375 219.207031 C 277.640625 219.9375 279.71875 221.289062 282.175781 220.59375 Z M 277.179688 242.078125 C 274.507812 245.738281 273.871094 249.875 274.613281 255.835938 C 274.699219 256.210938 274.921875 258.21875 275.636719 260.023438 C 276.640625 262.546875 278.359375 264.53125 281.355469 264.785156 C 284.3125 265.035156 286.46875 263.605469 287.898438 261.199219 C 291.316406 255.433594 291.6875 249.359375 289.023438 243.246094 C 286.699219 237.910156 280.605469 237.375 277.179688 242.078125 Z M 262.625 181.089844 C 264.945312 182.304688 267.34375 183.386719 269.734375 184.453125 C 271.742188 185.34375 273.816406 184.976562 273.882812 183.824219 C 273.972656 182.25 272.910156 181.417969 271.847656 180.695312 C 269.355469 178.996094 266.667969 177.8125 263.566406 178.203125 C 263.042969 178.617188 262.304688 178.917969 262.148438 179.402344 C 261.992188 179.886719 262.246094 180.890625 262.625 181.089844 Z M 181.03125 199.953125 C 183.855469 199.59375 186.042969 196.5 185.605469 193.5 C 185.199219 190.726562 182.769531 188.863281 180.070312 189.25 C 177.019531 189.683594 174.878906 192.566406 175.390625 195.5625 C 175.816406 198.058594 178.640625 200.257812 181.03125 199.949219 Z M 157.25 241.792969 C 154.609375 245.40625 153.539062 249.484375 153.9375 254.523438 C 154.164062 256.566406 154.410156 259.164062 156.035156 261.445312 C 158.671875 265.140625 163.105469 265.488281 166.1875 262.144531 C 170.644531 257.296875 171.707031 248.464844 168.527344 242.683594 C 165.882812 237.871094 160.445312 237.421875 157.25 241.796875 Z M 163.804688 184.414062 C 166.925781 182.636719 169.992188 180.761719 173.011719 178.8125 C 173.390625 178.566406 173.363281 177.691406 173.484375 177.257812 C 172.996094 176.804688 172.554688 176.046875 172.121094 176.050781 C 167.457031 176.070312 164.007812 178.253906 161.75 182.273438 C 161.519531 182.6875 161.703125 183.648438 162.054688 183.996094 C 162.425781 184.371094 163.402344 184.640625 163.804688 184.410156 Z M 163.804688 184.414062 " fill-opacity="1" fill-rule="nonzero"/></g></g></g></g></svg>