<svg xmlns="http://www.w3.org/2000/svg" xmlns:xlink="http://www.w3.org/1999/xlink" width="576" zoomAndPan="magnify" viewBox="0 0 432 431.999984" height="576" preserveAspectRatio="xMidYMid meet" version="1.0"><defs><clipPath id="871ee05f93"><path d="M 118 142 L 346 142 L 346 324 L 118 324 Z M 118 142 " clip-rule="nonzero"/></clipPath><clipPath id="71f23ab181"><path d="M 143.289062 77.375 L 361.265625 158.261719 L 288.46875 354.441406 L 70.492188 273.554688 Z M 143.289062 77.375 " clip-rule="nonzero"/></clipPath><clipPath id="1a74ae4c44"><path d="M 143.289062 77.375 L 361.265625 158.261719 L 288.46875 354.441406 L 70.492188 273.554688 Z M 143.289062 77.375 " clip-rule="nonzero"/></clipPath></defs><g clip-path="url(#871ee05f93)"><g clip-path="url(#71f23ab181)"><g clip-path="url(#1a74ae4c44)"><path fill="#ffffff" d="M 297.792969 208.394531 C 298.171875 211.472656 300.316406 213.765625 301.71875 216.359375 C 312.550781 236.417969 316.828125 257.753906 314.695312 280.457031 C 314.179688 285.953125 312.210938 290.5 308.59375 294.605469 C 301.53125 302.628906 293.121094 308.792969 283.515625 313.359375 C 265.320312 322.003906 246.042969 324.839844 226.125 323.433594 C 203.59375 321.839844 182.738281 315.265625 164.460938 301.550781 C 157.542969 296.359375 151.625 290.230469 146.792969 283.03125 C 144.414062 279.492188 143.257812 275.765625 143.019531 271.4375 C 141.941406 251.925781 145.667969 233.429688 154.273438 215.949219 C 156.464844 211.5 159.347656 207.394531 161.871094 203.109375 C 162.9375 201.292969 162.292969 200.027344 160.152344 199.59375 C 159.613281 199.488281 159.046875 199.496094 158.503906 199.421875 C 144.609375 197.496094 134.636719 189.949219 127.570312 178.074219 C 122.226562 169.097656 119.039062 159.496094 118.582031 149.050781 C 118.382812 144.5 119.652344 143.09375 124.273438 142.882812 C 134.28125 142.425781 144.164062 143.414062 153.863281 145.921875 C 159.578125 147.402344 164.648438 150.289062 169.234375 153.898438 C 175.785156 159.046875 179.941406 165.757812 181.316406 174.0625 C 181.632812 175.96875 181.789062 177.902344 182.214844 179.785156 C 182.496094 181.039062 183.621094 181.574219 184.75 181.039062 C 186.996094 179.976562 189.125 178.667969 191.328125 177.511719 C 193.335938 176.460938 193.972656 174.96875 193.394531 172.722656 C 192.007812 167.363281 190.964844 161.921875 190.714844 156.371094 C 190.574219 153.328125 190.582031 150.300781 191.808594 147.390625 C 193.292969 143.871094 196.242188 143.097656 199.023438 145.578125 C 201.550781 147.832031 203.359375 150.632812 204.695312 153.683594 C 206.582031 157.984375 208.214844 162.398438 209.996094 166.75 C 211.164062 169.605469 211.859375 170.179688 215.050781 169.734375 C 224.1875 168.472656 233.21875 168.800781 242.28125 170.511719 C 246.953125 171.394531 251.292969 173.144531 255.761719 174.589844 C 259.222656 175.707031 259.765625 175.410156 261.453125 171.941406 C 263.023438 168.707031 264.460938 165.398438 266.230469 162.277344 C 267.445312 160.132812 268.980469 158.125 270.636719 156.292969 C 272.335938 154.40625 274.433594 152.882812 277.210938 154.113281 C 279.953125 155.328125 280.214844 157.933594 280.226562 160.441406 C 280.242188 163.765625 279.824219 167.070312 278.671875 170.230469 C 277.441406 173.609375 276.363281 177.054688 274.917969 180.34375 C 273.6875 183.148438 274.433594 185.070312 276.730469 186.773438 C 278.285156 187.925781 279.695312 189.261719 281.234375 190.429688 C 282.921875 191.714844 284.132812 191.15625 284.691406 188.890625 C 284.894531 188.085938 285.078125 187.273438 285.191406 186.453125 C 286.527344 176.773438 292 169.71875 299.484375 163.972656 C 301.234375 162.632812 303.132812 161.445312 305.074219 160.398438 C 316.574219 154.175781 329.050781 152.171875 341.941406 152.195312 C 344.875 152.199219 346.066406 153.398438 345.929688 156.222656 C 345.335938 168.492188 343.453125 180.40625 336.679688 191.085938 C 329.746094 202.023438 319.949219 207.539062 307.003906 207.828125 C 304.039062 207.894531 300.957031 206.527344 297.800781 208.40625 Z M 192.167969 312.378906 C 213.984375 320.300781 236.28125 322.015625 259.027344 317.316406 C 270.21875 315.003906 280.773438 310.980469 290.441406 304.796875 C 297.730469 300.128906 303.992188 294.378906 308.976562 287.242188 C 310.296875 285.355469 311.035156 283.476562 311.273438 281.1875 C 311.878906 275.394531 312.050781 269.59375 311.621094 263.808594 C 309.5 235.289062 298.777344 210.863281 276.921875 191.867188 C 265.585938 182.015625 252.402344 175.734375 237.605469 173.605469 C 210.902344 169.765625 188.546875 178.730469 170.636719 198.511719 C 152.820312 218.1875 146.128906 241.878906 146.726562 268.058594 C 146.894531 275.363281 149.128906 281.496094 154.035156 286.820312 C 157.222656 290.277344 160.4375 293.683594 164.105469 296.644531 C 172.570312 303.472656 181.855469 308.816406 192.167969 312.378906 Z M 155.769531 151.03125 C 146.042969 147.308594 135.894531 146.691406 125.628906 147.03125 C 123.140625 147.117188 122.367188 148.105469 122.640625 150.894531 C 124.0625 165.511719 129.972656 177.988281 140.960938 187.816406 C 147.710938 193.851562 155.941406 195.710938 164.820312 195.277344 C 169.894531 195.03125 173.378906 191.691406 171.121094 186.523438 C 170.023438 184 169.394531 181.269531 168.261719 178.761719 C 163.652344 168.535156 155.824219 162.074219 144.925781 159.421875 C 143.074219 158.96875 141.101562 159.023438 139.207031 158.699219 C 138 158.488281 136.046875 158.753906 136.292969 156.816406 C 136.5 155.152344 138.402344 155.15625 139.660156 155.144531 C 142.964844 155.113281 146.238281 155.355469 149.433594 156.5 C 159.5625 160.125 166.984375 166.726562 171.605469 176.414062 C 172.792969 178.902344 173.648438 181.539062 174.683594 184.101562 C 175.101562 185.136719 175.753906 186.191406 177 185.785156 C 177.570312 185.601562 178.1875 184.554688 178.222656 183.871094 C 178.796875 172.664062 175.21875 163.316406 165.964844 156.425781 C 162.8125 154.078125 159.414062 152.363281 155.765625 151.027344 Z M 289.804688 191.835938 C 291.746094 188.804688 293.558594 185.78125 295.558594 182.886719 C 301.550781 174.214844 309.96875 169.421875 320.253906 167.703125 C 321.90625 167.421875 323.5625 167.261719 325.109375 168.046875 C 325.535156 168.257812 325.984375 168.8125 326.035156 169.253906 C 326.085938 169.695312 325.746094 170.515625 325.414062 170.613281 C 323.84375 171.070312 322.226562 171.402344 320.609375 171.664062 C 305.878906 174.039062 297.410156 183.503906 292.390625 196.75 C 291.023438 200.355469 292 201.910156 295.625 202.714844 C 297.511719 203.132812 299.410156 203.527344 301.324219 203.800781 C 317.046875 206.046875 329.699219 199.074219 336.152344 184.511719 C 338.847656 178.429688 340.972656 172.152344 341.644531 165.46875 C 341.835938 163.550781 342.207031 161.644531 342.292969 159.71875 C 342.40625 157.105469 341.53125 156.203125 338.902344 156.210938 C 331.398438 156.234375 324.035156 157.292969 316.859375 159.519531 C 310.457031 161.5 304.539062 164.40625 299.375 168.734375 C 293.65625 173.53125 290.042969 179.578125 288.613281 186.910156 C 288.289062 188.554688 288.160156 190.214844 289.808594 191.835938 Z M 206.398438 170.277344 C 206.4375 169.738281 206.617188 169.167969 206.492188 168.671875 C 204.878906 162.273438 202.554688 156.171875 198.777344 150.703125 C 198.019531 149.601562 197.125 148.417969 195.492188 149.035156 C 194.269531 149.5 194.167969 150.734375 194.105469 151.792969 C 193.703125 158.410156 194.738281 164.867188 196.503906 171.214844 C 197.171875 173.605469 198.3125 174.125 200.871094 173.332031 C 202.429688 172.84375 203.949219 172.210938 205.433594 171.527344 C 205.855469 171.332031 206.078125 170.707031 206.394531 170.28125 Z M 265.761719 171.160156 C 265.28125 172.457031 264.796875 173.75 264.328125 175.050781 C 264.230469 175.308594 264.191406 175.585938 264.15625 175.855469 C 263.925781 177.601562 265.082031 179.199219 267.28125 180.230469 C 269.148438 181.101562 270.515625 180.363281 271.476562 178.796875 C 275.042969 172.988281 276.519531 166.605469 276.441406 159.84375 C 276.433594 159.007812 275.914062 158.257812 275.003906 158.164062 C 274.503906 158.113281 273.839844 158.277344 273.464844 158.597656 C 269.542969 161.941406 267.507812 166.476562 265.761719 171.160156 Z M 204.925781 259.972656 C 207.613281 253.167969 204.875 246.050781 198.515625 243.335938 C 191.261719 240.230469 183.429688 243.253906 180.585938 250.253906 C 177.914062 256.820312 181.308594 264.800781 187.898438 267.453125 C 194.554688 270.128906 202.246094 266.75 204.925781 259.972656 Z M 271.152344 241.019531 C 264.351562 238.074219 256.519531 241.121094 253.75 247.777344 C 250.835938 254.785156 253.988281 262.121094 261.007812 264.6875 C 267.648438 267.117188 274.75 263.898438 277.328125 257.296875 C 279.714844 251.171875 276.789062 243.457031 271.152344 241.015625 Z M 275.367188 231.894531 C 271.941406 230.988281 268.277344 230.667969 264.816406 232.109375 C 264.1875 232.371094 263.816406 233.246094 263.328125 233.839844 C 263.992188 234.214844 264.621094 234.792969 265.332031 234.914062 C 266.398438 235.101562 267.53125 235.058594 268.625 234.96875 C 271.765625 234.707031 274.652344 235.652344 277.371094 236.992188 C 283.863281 240.191406 287.484375 245.492188 287.4375 252.746094 C 287.394531 260.074219 283.582031 265.164062 276.878906 268.074219 C 276.125 268.402344 275.316406 268.601562 274.527344 268.84375 C 274.003906 269.003906 273.476562 269.167969 272.9375 269.269531 C 271.515625 269.542969 270.027344 270.023438 270.617188 271.789062 C 271.183594 273.488281 272.960938 273.046875 274.207031 272.773438 C 281.695312 271.132812 287.117188 266.914062 291.140625 256.863281 C 294.945312 247.613281 286.929688 234.960938 275.367188 231.894531 Z M 184.59375 275.265625 C 185.273438 275.339844 185.71875 274.96875 185.695312 274.296875 C 185.679688 273.800781 185.617188 273.0625 185.308594 272.867188 C 184.148438 272.140625 182.890625 271.574219 181.644531 270.988281 C 178.085938 269.320312 175.035156 266.96875 172.648438 263.871094 C 165.96875 255.207031 168.582031 244.414062 178.4375 239.613281 C 181.210938 238.261719 184.171875 237.691406 187.207031 237.386719 C 189 237.210938 191.183594 238.152344 192.328125 235.902344 C 192.984375 234.625 190.804688 233.894531 186.84375 234.035156 C 182.328125 234.195312 178.144531 235.398438 174.347656 237.867188 C 165.675781 243.492188 162.9375 254.171875 167.804688 263.300781 C 170.65625 268.65625 175.136719 272.15625 181.335938 274.847656 C 181.910156 274.925781 183.253906 275.121094 184.597656 275.261719 Z M 220.195312 256.378906 C 217.476562 258.523438 217.933594 262.289062 221.007812 263.804688 C 225.46875 266 233.800781 264.710938 237.34375 261.277344 C 239.839844 258.859375 239.074219 255.300781 234.453125 253.480469 C 230.222656 252.410156 224.914062 252.65625 220.191406 256.382812 Z M 218.136719 247.175781 C 217.832031 247.445312 217.6875 248.222656 217.847656 248.601562 C 218.003906 248.96875 218.632812 249.179688 219.097656 249.347656 C 219.308594 249.425781 219.652344 249.289062 219.882812 249.164062 C 224.917969 246.421875 230.140625 245.382812 235.710938 247.398438 C 235.929688 247.480469 236.25 247.378906 236.484375 247.273438 C 236.730469 247.167969 237.109375 246.976562 237.121094 246.800781 C 237.160156 246.304688 237.207031 245.671875 236.945312 245.316406 C 236.480469 244.679688 235.789062 244.207031 235.164062 243.632812 C 228.953125 242.40625 223.125 242.765625 218.136719 247.171875 Z M 219.753906 282.757812 C 219.539062 283.621094 219.683594 284.4375 220.511719 284.820312 C 221.40625 285.238281 222.054688 284.683594 222.417969 283.886719 C 224.363281 279.574219 227.53125 276.875 232.300781 276.144531 C 232.71875 276.078125 233.050781 275.429688 233.417969 275.050781 C 232.847656 274.550781 232.3125 273.675781 231.691406 273.609375 C 226.589844 273.074219 222.246094 276.230469 219.96875 281.964844 C 219.898438 282.226562 219.820312 282.492188 219.757812 282.757812 Z M 219.753906 282.757812 " fill-opacity="1" fill-rule="nonzero"/></g></g></g></svg>