<svg xmlns="http://www.w3.org/2000/svg" xmlns:xlink="http://www.w3.org/1999/xlink" width="576" zoomAndPan="magnify" viewBox="0 0 432 431.999984" height="576" preserveAspectRatio="xMidYMid meet" version="1.0"><defs><clipPath id="e482d9adb2"><path d="M 118 142 L 346 142 L 346 324 L 118 324 Z M 118 142 " clip-rule="nonzero"/></clipPath><clipPath id="444604c360"><path d="M 143.289062 77.375 L 361.265625 158.261719 L 288.46875 354.441406 L 70.492188 273.554688 Z M 143.289062 77.375 " clip-rule="nonzero"/></clipPath><clipPath id="91185a84d9"><path d="M 143.289062 77.375 L 361.265625 158.261719 L 288.46875 354.441406 L 70.492188 273.554688 Z M 143.289062 77.375 " clip-rule="nonzero"/></clipPath><clipPath id="38a792ba25"><path d="M 143.289062 77.375 L 361.265625 158.261719 L 288.46875 354.441406 L 70.492188 273.554688 Z M 143.289062 77.375 " clip-rule="nonzero"/></clipPath></defs><g clip-path="url(#e482d9adb2)"><g clip-path="url(#444604c360)"><g clip-path="url(#91185a84d9)"><g clip-path="url(#38a792ba25)"><path fill="#000000" d="M 297.589844 208.289062 C 297.964844 211.363281 300.105469 213.65625 301.503906 216.246094 C 312.320312 236.292969 316.585938 257.617188 314.449219 280.308594 C 313.933594 285.808594 311.964844 290.351562 308.355469 294.453125 C 301.296875 302.476562 292.894531 308.640625 283.296875 313.207031 C 265.121094 321.851562 245.863281 324.691406 225.96875 323.289062 C 203.464844 321.703125 182.628906 315.136719 164.375 301.433594 C 157.46875 296.25 151.5625 290.125 146.734375 282.929688 C 144.359375 279.390625 143.203125 275.667969 142.96875 271.339844 C 141.894531 251.839844 145.621094 233.355469 154.226562 215.875 C 156.414062 211.429688 159.292969 207.328125 161.816406 203.042969 C 162.882812 201.230469 162.242188 199.960938 160.101562 199.53125 C 159.5625 199.421875 159 199.433594 158.453125 199.355469 C 144.574219 197.4375 134.617188 189.894531 127.558594 178.027344 C 122.226562 169.058594 119.042969 159.460938 118.589844 149.023438 C 118.390625 144.476562 119.664062 143.066406 124.277344 142.855469 C 134.273438 142.394531 144.144531 143.382812 153.832031 145.886719 C 159.542969 147.363281 164.605469 150.246094 169.1875 153.855469 C 175.726562 159 179.878906 165.703125 181.25 174.007812 C 181.5625 175.910156 181.71875 177.84375 182.140625 179.722656 C 182.425781 180.980469 183.550781 181.511719 184.675781 180.976562 C 186.921875 179.914062 189.046875 178.605469 191.25 177.449219 C 193.253906 176.398438 193.890625 174.90625 193.3125 172.664062 C 191.929688 167.304688 190.886719 161.871094 190.640625 156.320312 C 190.503906 153.277344 190.511719 150.25 191.734375 147.34375 C 193.21875 143.824219 196.164062 143.050781 198.941406 145.53125 C 201.46875 147.785156 203.273438 150.578125 204.605469 153.628906 C 206.488281 157.929688 208.121094 162.339844 209.898438 166.6875 C 211.0625 169.542969 211.757812 170.113281 214.949219 169.671875 C 224.074219 168.40625 233.09375 168.730469 242.144531 170.441406 C 246.8125 171.320312 251.148438 173.070312 255.613281 174.511719 C 259.070312 175.628906 259.609375 175.332031 261.296875 171.863281 C 262.863281 168.632812 264.304688 165.324219 266.074219 162.203125 C 267.285156 160.058594 268.820312 158.050781 270.472656 156.21875 C 272.171875 154.332031 274.269531 152.808594 277.039062 154.039062 C 279.78125 155.253906 280.039062 157.859375 280.054688 160.363281 C 280.070312 163.6875 279.648438 166.988281 278.496094 170.148438 C 277.265625 173.523438 276.1875 176.972656 274.746094 180.257812 C 273.515625 183.0625 274.257812 184.980469 276.554688 186.683594 C 278.105469 187.835938 279.515625 189.171875 281.050781 190.339844 C 282.738281 191.625 283.945312 191.0625 284.507812 188.796875 C 284.707031 187.992188 284.890625 187.183594 285.007812 186.363281 C 286.339844 176.6875 291.8125 169.632812 299.289062 163.890625 C 301.035156 162.546875 302.929688 161.363281 304.871094 160.316406 C 316.363281 154.09375 328.824219 152.085938 341.699219 152.105469 C 344.632812 152.109375 345.820312 153.304688 345.683594 156.128906 C 345.085938 168.394531 343.203125 180.300781 336.4375 190.980469 C 329.503906 201.914062 319.71875 207.425781 306.789062 207.722656 C 303.828125 207.789062 300.746094 206.421875 297.59375 208.300781 Z M 192.050781 312.253906 C 213.839844 320.164062 236.113281 321.871094 258.835938 317.167969 C 270.015625 314.855469 280.558594 310.828125 290.214844 304.644531 C 297.5 299.976562 303.753906 294.230469 308.738281 287.097656 C 310.058594 285.210938 310.792969 283.328125 311.035156 281.042969 C 311.640625 275.25 311.8125 269.453125 311.386719 263.671875 C 309.273438 235.167969 298.566406 210.757812 276.742188 191.773438 C 265.425781 181.933594 252.257812 175.65625 237.472656 173.53125 C 210.804688 169.703125 188.46875 178.671875 170.574219 198.445312 C 152.769531 218.117188 146.082031 241.796875 146.671875 267.964844 C 146.835938 275.265625 149.066406 281.394531 153.96875 286.714844 C 157.148438 290.171875 160.359375 293.574219 164.027344 296.53125 C 172.476562 303.351562 181.75 308.691406 192.050781 312.253906 Z M 155.738281 150.992188 C 146.019531 147.273438 135.882812 146.660156 125.628906 147.003906 C 123.144531 147.085938 122.371094 148.078125 122.644531 150.863281 C 124.0625 165.472656 129.960938 177.941406 140.933594 187.761719 C 147.675781 193.792969 155.894531 195.652344 164.765625 195.214844 C 169.835938 194.964844 173.3125 191.628906 171.0625 186.464844 C 169.964844 183.941406 169.335938 181.210938 168.207031 178.707031 C 163.605469 168.484375 155.789062 162.03125 144.902344 159.382812 C 143.050781 158.929688 141.082031 158.984375 139.191406 158.660156 C 137.984375 158.453125 136.035156 158.714844 136.277344 156.78125 C 136.488281 155.117188 138.386719 155.117188 139.640625 155.105469 C 142.941406 155.074219 146.214844 155.316406 149.40625 156.460938 C 159.523438 160.078125 166.933594 166.675781 171.546875 176.359375 C 172.734375 178.84375 173.585938 181.480469 174.621094 184.039062 C 175.039062 185.078125 175.6875 186.132812 176.933594 185.722656 C 177.503906 185.539062 178.121094 184.492188 178.15625 183.808594 C 178.730469 172.605469 175.160156 163.265625 165.921875 156.382812 C 162.769531 154.035156 159.375 152.324219 155.730469 150.988281 Z M 289.613281 191.738281 C 291.550781 188.710938 293.363281 185.6875 295.363281 182.792969 C 301.351562 174.125 309.757812 169.332031 320.035156 167.609375 C 321.683594 167.332031 323.339844 167.171875 324.882812 167.953125 C 325.308594 168.164062 325.757812 168.71875 325.808594 169.160156 C 325.859375 169.601562 325.519531 170.421875 325.1875 170.519531 C 323.617188 170.976562 322.003906 171.308594 320.386719 171.570312 C 305.671875 173.949219 297.210938 183.410156 292.191406 196.652344 C 290.828125 200.257812 291.800781 201.808594 295.421875 202.613281 C 297.304688 203.03125 299.203125 203.421875 301.113281 203.695312 C 316.820312 205.9375 329.460938 198.964844 335.910156 184.40625 C 338.601562 178.328125 340.730469 172.054688 341.402344 165.371094 C 341.59375 163.453125 341.964844 161.546875 342.050781 159.625 C 342.164062 157.015625 341.292969 156.113281 338.664062 156.121094 C 331.167969 156.144531 323.8125 157.207031 316.644531 159.429688 C 310.25 161.414062 304.339844 164.320312 299.175781 168.648438 C 293.464844 173.441406 289.851562 179.492188 288.421875 186.816406 C 288.101562 188.460938 287.96875 190.117188 289.617188 191.738281 Z M 206.300781 170.214844 C 206.34375 169.679688 206.523438 169.105469 206.398438 168.609375 C 204.785156 162.214844 202.464844 156.117188 198.699219 150.652344 C 197.9375 149.550781 197.046875 148.367188 195.414062 148.988281 C 194.195312 149.453125 194.09375 150.6875 194.027344 151.742188 C 193.628906 158.355469 194.65625 164.808594 196.421875 171.15625 C 197.085938 173.542969 198.226562 174.066406 200.785156 173.269531 C 202.339844 172.78125 203.859375 172.148438 205.339844 171.464844 C 205.761719 171.265625 205.984375 170.644531 206.300781 170.21875 Z M 265.601562 171.082031 C 265.121094 172.378906 264.636719 173.671875 264.167969 174.972656 C 264.070312 175.226562 264.03125 175.503906 263.992188 175.777344 C 263.765625 177.523438 264.917969 179.113281 267.117188 180.144531 C 268.980469 181.015625 270.347656 180.277344 271.308594 178.710938 C 274.871094 172.90625 276.347656 166.527344 276.273438 159.765625 C 276.265625 158.933594 275.746094 158.183594 274.835938 158.089844 C 274.335938 158.039062 273.671875 158.203125 273.296875 158.523438 C 269.382812 161.867188 267.347656 166.402344 265.597656 171.082031 Z M 204.808594 259.867188 C 207.496094 253.066406 204.761719 245.953125 198.410156 243.238281 C 191.167969 240.136719 183.339844 243.160156 180.496094 250.160156 C 177.828125 256.722656 181.214844 264.699219 187.796875 267.347656 C 194.449219 270.023438 202.132812 266.644531 204.808594 259.867188 Z M 270.96875 240.902344 C 264.175781 237.964844 256.347656 241.007812 253.582031 247.667969 C 250.667969 254.667969 253.816406 262.003906 260.828125 264.566406 C 267.460938 266.992188 274.554688 263.769531 277.132812 257.171875 C 279.519531 251.050781 276.597656 243.339844 270.96875 240.902344 Z M 275.179688 231.785156 C 271.757812 230.875 268.097656 230.5625 264.640625 232.003906 C 264.011719 232.261719 263.640625 233.136719 263.152344 233.730469 C 263.816406 234.105469 264.445312 234.683594 265.15625 234.804688 C 266.222656 234.992188 267.351562 234.949219 268.445312 234.855469 C 271.582031 234.59375 274.464844 235.539062 277.179688 236.878906 C 283.664062 240.074219 287.277344 245.371094 287.234375 252.621094 C 287.1875 259.945312 283.375 265.035156 276.679688 267.945312 C 275.929688 268.273438 275.117188 268.472656 274.332031 268.714844 C 273.808594 268.875 273.28125 269.039062 272.742188 269.140625 C 271.320312 269.414062 269.835938 269.894531 270.425781 271.660156 C 270.992188 273.359375 272.765625 272.917969 274.011719 272.644531 C 281.492188 271 286.90625 266.785156 290.929688 256.734375 C 294.734375 247.488281 286.726562 234.84375 275.179688 231.785156 Z M 184.496094 275.15625 C 185.175781 275.230469 185.617188 274.859375 185.597656 274.1875 C 185.578125 273.695312 185.519531 272.957031 185.207031 272.761719 C 184.050781 272.035156 182.792969 271.46875 181.550781 270.882812 C 177.996094 269.21875 174.949219 266.867188 172.566406 263.769531 C 165.894531 255.113281 168.511719 244.324219 178.355469 239.523438 C 181.125 238.171875 184.082031 237.601562 187.117188 237.296875 C 188.90625 237.121094 191.085938 238.058594 192.234375 235.8125 C 192.886719 234.535156 190.710938 233.804688 186.753906 233.945312 C 182.242188 234.109375 178.0625 235.3125 174.269531 237.777344 C 165.609375 243.40625 162.867188 254.078125 167.726562 263.203125 C 170.574219 268.554688 175.050781 272.054688 181.242188 274.742188 C 181.816406 274.816406 183.15625 275.011719 184.5 275.15625 Z M 220.0625 256.269531 C 217.347656 258.417969 217.804688 262.179688 220.871094 263.691406 C 225.328125 265.882812 233.652344 264.59375 237.191406 261.164062 C 239.683594 258.742188 238.921875 255.1875 234.304688 253.371094 C 230.078125 252.300781 224.777344 252.546875 220.058594 256.273438 Z M 218.007812 247.070312 C 217.703125 247.339844 217.558594 248.117188 217.71875 248.5 C 217.875 248.867188 218.503906 249.074219 218.96875 249.242188 C 219.179688 249.320312 219.519531 249.183594 219.753906 249.058594 C 224.785156 246.316406 230 245.277344 235.5625 247.292969 C 235.78125 247.371094 236.101562 247.269531 236.335938 247.167969 C 236.582031 247.058594 236.957031 246.871094 236.972656 246.691406 C 237.011719 246.195312 237.058594 245.566406 236.796875 245.207031 C 236.335938 244.570312 235.644531 244.101562 235.015625 243.527344 C 228.8125 242.300781 222.992188 242.664062 218.007812 247.066406 Z M 219.613281 282.636719 C 219.398438 283.496094 219.542969 284.316406 220.371094 284.699219 C 221.265625 285.117188 221.914062 284.5625 222.277344 283.761719 C 224.21875 279.453125 227.386719 276.753906 232.148438 276.023438 C 232.566406 275.957031 232.898438 275.308594 233.265625 274.929688 C 232.695312 274.429688 232.164062 273.554688 231.542969 273.492188 C 226.445312 272.953125 222.105469 276.109375 219.828125 281.84375 C 219.757812 282.105469 219.679688 282.371094 219.617188 282.636719 Z M 219.613281 282.636719 " fill-opacity="1" fill-rule="nonzero"/></g></g></g></g></svg>