<svg xmlns="http://www.w3.org/2000/svg" xmlns:xlink="http://www.w3.org/1999/xlink" width="576" zoomAndPan="magnify" viewBox="0 0 432 431.999984" height="576" preserveAspectRatio="xMidYMid meet" version="1.0"><defs><clipPath id="44ad66fe58"><path d="M 118 110 L 336 110 L 336 330 L 118 330 Z M 118 110 " clip-rule="nonzero"/></clipPath><clipPath id="414fd2e15a"><path d="M 134.746094 82.59375 L 346.238281 130.039062 L 296.984375 349.582031 L 85.492188 302.136719 Z M 134.746094 82.59375 " clip-rule="nonzero"/></clipPath><clipPath id="00e5d91595"><path d="M 134.746094 82.59375 L 346.238281 130.039062 L 296.984375 349.582031 L 85.492188 302.136719 Z M 134.746094 82.59375 " clip-rule="nonzero"/></clipPath></defs><g clip-path="url(#44ad66fe58)"><g clip-path="url(#414fd2e15a)"><g clip-path="url(#00e5d91595)"><path fill="#ffffff" d="M 315.304688 185.585938 C 314.980469 188.515625 316.21875 191.121094 316.925781 193.800781 C 320.871094 208.699219 321.960938 223.828125 320.765625 239.152344 C 320.113281 247.488281 316.585938 254.71875 311.839844 261.394531 C 306.34375 269.136719 299.183594 275.085938 291.03125 279.84375 C 288.074219 281.566406 285.011719 283.109375 281.929688 284.589844 C 279.839844 285.59375 278.605469 287.097656 277.6875 289.246094 C 275.484375 294.386719 273.136719 299.476562 270.585938 304.453125 C 268.449219 308.625 265.601562 312.351562 262.023438 315.4375 C 257.273438 319.542969 251.863281 321.347656 245.589844 319.964844 C 244.980469 319.828125 244.304688 319.859375 243.765625 319.59375 C 236.617188 316.109375 231.363281 318.003906 226.011719 323.941406 C 220.492188 330.074219 212.882812 330.472656 205.324219 327.117188 C 200.726562 325.078125 196.613281 322.214844 193.160156 318.597656 C 189.511719 314.777344 185.886719 310.867188 182.789062 306.605469 C 177.484375 299.3125 172.371094 291.851562 167.625 284.183594 C 165.25 280.347656 162.4375 277.398438 158.589844 275.105469 C 152.691406 271.597656 147.347656 267.320312 142.445312 262.496094 C 137.308594 257.433594 132.960938 251.792969 129.535156 245.433594 C 127.433594 241.539062 126.351562 237.519531 126.234375 232.988281 C 125.820312 217.292969 127.222656 201.90625 132.484375 187.011719 C 133.003906 185.546875 133.378906 184.03125 133.710938 182.511719 C 134.085938 180.820312 133.550781 179.445312 131.890625 178.726562 C 129.890625 177.863281 127.863281 177.066406 125.832031 176.273438 C 121.289062 174.5 119.128906 170.976562 118.441406 166.335938 C 117.5 159.972656 118.773438 153.816406 121.109375 148.042969 C 126.597656 134.464844 135.449219 123.378906 147.359375 114.796875 C 148.367188 114.070312 149.453125 113.4375 150.542969 112.851562 C 158.476562 108.574219 161.417969 109 167.625 115.757812 C 170.144531 118.5 172.296875 121.578125 174.570312 124.535156 C 175.863281 126.21875 177.355469 126.933594 179.386719 125.878906 C 181.316406 124.875 183.230469 123.820312 185.191406 122.878906 C 212.429688 109.769531 239.300781 110.945312 265.84375 124.945312 C 266.671875 125.382812 267.5 125.816406 268.292969 126.308594 C 274.488281 130.1875 274.976562 131.183594 280.46875 124.496094 C 281.644531 123.066406 283.0625 121.808594 284.507812 120.636719 C 287.347656 118.328125 290.601562 117.5625 294.140625 118.65625 C 296.207031 119.296875 298.351562 119.898438 300.207031 120.964844 C 312.84375 128.242188 323.203125 137.925781 330.671875 150.535156 C 332.90625 154.308594 334.5 158.347656 334.976562 162.769531 C 335.980469 172.074219 331.652344 179.199219 322.988281 182.648438 C 320.4375 183.664062 317.390625 183.402344 315.300781 185.589844 Z M 200.449219 287.265625 C 211.203125 290.261719 222.679688 291.054688 234.21875 290.785156 C 251.195312 290.386719 267.601562 287.234375 282.984375 279.738281 C 292.035156 275.328125 300.136719 269.632812 306.574219 261.78125 C 312.007812 255.152344 315.839844 247.828125 316.5625 239.09375 C 317.886719 223.117188 316.601562 207.402344 312.03125 191.996094 C 311.589844 190.507812 311.105469 189.023438 310.535156 187.582031 C 309.78125 185.675781 308.390625 184.515625 306.261719 184.652344 C 301.609375 184.953125 296.964844 185.382812 292.308594 185.667969 C 281.832031 186.3125 274.359375 181.738281 269.6875 172.441406 C 265.578125 164.257812 265.046875 155.734375 267.617188 147.03125 C 268.582031 143.757812 269.90625 140.578125 271.210938 137.421875 C 272.074219 135.332031 271.425781 133.777344 269.839844 132.515625 C 268.628906 131.554688 267.292969 130.738281 265.960938 129.941406 C 245.976562 118.019531 224.695312 115.003906 202.195312 120.847656 C 195.546875 122.578125 189.199219 125.171875 183.246094 128.632812 C 179.390625 130.878906 179.25 131.378906 180.878906 135.265625 C 181.605469 136.984375 182.425781 138.664062 183.160156 140.382812 C 185.132812 145 186.519531 149.824219 186.617188 154.832031 C 186.898438 168.871094 181.320312 176.507812 167.519531 179.273438 C 162.316406 180.3125 157.015625 180.292969 151.71875 179.863281 C 148.941406 179.636719 146.140625 179.644531 143.359375 179.480469 C 140.382812 179.304688 138.800781 181.015625 137.746094 183.476562 C 137.253906 184.617188 136.773438 185.773438 136.414062 186.960938 C 132.296875 200.421875 129.882812 214.117188 129.816406 228.28125 C 129.785156 234.816406 131.535156 240.515625 134.765625 245.957031 C 140.59375 255.792969 148.632812 263.507812 158.054688 269.792969 C 170.871094 278.347656 184.800781 284.320312 200.453125 287.269531 Z M 183.355469 286.824219 C 183.253906 286.808594 182.039062 286.519531 180.816406 286.417969 C 179.25 286.289062 177.34375 288.574219 177.535156 290.222656 C 178.007812 294.207031 182.808594 299.800781 186.652344 300.839844 C 193.195312 302.605469 193.566406 302.722656 193.804688 309.492188 C 193.914062 312.664062 195.105469 314.789062 197.304688 316.660156 C 198.71875 317.867188 200.152344 319.058594 201.667969 320.136719 C 205.773438 323.0625 205.933594 323.1875 210.027344 319.34375 C 212.71875 316.820312 215.378906 316.492188 218.464844 318.09375 C 219.277344 318.515625 219.957031 319.191406 220.683594 319.769531 C 222.136719 320.921875 223.683594 320.773438 224.847656 319.570312 C 231.148438 313.070312 236.238281 305.667969 240.519531 297.722656 C 241.171875 296.511719 240.433594 295.128906 238.960938 295.035156 C 235.566406 294.824219 232.148438 294.980469 228.753906 294.785156 C 222.582031 294.429688 216.671875 293.59375 212.296875 300.078125 C 210.097656 303.339844 204.984375 301.984375 202.882812 298.472656 C 202.410156 297.683594 202.027344 296.792969 201.824219 295.898438 C 201.210938 293.1875 199.628906 291.714844 196.894531 291.003906 C 192.695312 289.90625 188.585938 288.460938 183.355469 286.824219 Z M 271.6875 291.472656 C 271.65625 290.445312 271.351562 289.382812 270.203125 289.621094 C 265.347656 290.632812 260.550781 292.53125 255.679688 292.734375 C 249.492188 292.996094 245.964844 295.882812 243.503906 301.078125 C 242.578125 303.035156 241.164062 304.75 240.082031 306.636719 C 238.835938 308.804688 239.066406 309.957031 241.320312 311.054688 C 243.300781 312.027344 245.183594 312.941406 246.570312 314.761719 C 247.882812 316.480469 249.84375 316.234375 251.722656 316.03125 C 253.949219 315.789062 255.984375 314.949219 257.679688 313.554688 C 261.480469 310.421875 265.632812 307.707031 263.082031 301.3125 C 261.742188 297.949219 263.597656 296.003906 267.46875 294.339844 C 268.59375 293.859375 269.820312 293.59375 270.886719 293.015625 C 271.316406 292.785156 271.4375 291.984375 271.683594 291.476562 Z M 252.882812 236.734375 C 253.394531 236.007812 253.664062 235.046875 253.820312 234.152344 C 253.914062 233.613281 253.75 232.804688 253.378906 232.476562 C 253.023438 232.164062 252.027344 232.042969 251.710938 232.308594 C 250.308594 233.496094 248.984375 234.792969 247.746094 236.15625 C 244.34375 239.886719 240.417969 242.867188 235.703125 244.726562 C 229.242188 247.277344 228.863281 245.367188 228.59375 240.601562 C 228.507812 239.050781 228.585938 237.480469 228.382812 235.953125 C 227.933594 232.605469 228.734375 230.117188 231.820312 228.109375 C 236.402344 225.128906 239.101562 220.53125 240.710938 215.378906 C 241.921875 211.507812 240.191406 208.09375 236.40625 207.601562 C 229.003906 206.644531 221.507812 206.257812 214.234375 208.40625 C 208.519531 210.09375 206.921875 215.121094 210.238281 220.179688 C 212.136719 223.082031 214.484375 225.949219 217.652344 227.058594 C 224.074219 229.3125 224.527344 234.21875 224.421875 239.683594 C 224.398438 240.925781 224.476562 242.175781 224.402344 243.414062 C 224.269531 245.5625 222.839844 246.773438 220.648438 246.527344 C 216.214844 246.023438 212.332031 244.203125 208.8125 241.496094 C 207.359375 240.378906 205.851562 239.308594 204.273438 238.378906 C 203.886719 238.152344 202.894531 238.351562 202.609375 238.707031 C 202.320312 239.066406 202.332031 239.984375 202.597656 240.429688 C 205.996094 246.175781 211.445312 248.871094 218.582031 250.632812 C 229.710938 253.726562 244.894531 248.105469 252.882812 236.742188 Z M 172.449219 215.628906 C 173.9375 217.433594 176.195312 218.035156 178.21875 217.105469 C 183.265625 214.78125 185.726562 206.335938 182.566406 201.984375 C 182.046875 201.269531 181.265625 200.652344 180.46875 200.246094 C 176.0625 197.984375 171.996094 200.054688 170.730469 205.136719 C 169.8125 208.878906 169.835938 212.457031 172.449219 215.628906 Z M 242.746094 194.902344 C 227.871094 190.058594 213.476562 191.757812 199.453125 198.148438 C 195.976562 199.730469 194.507812 201.582031 195.902344 202.402344 C 197.914062 203.585938 199.414062 202.101562 200.976562 201.398438 C 213.8125 195.597656 226.988281 193.820312 240.71875 197.691406 C 241.882812 198.023438 243.128906 198.082031 244.339844 198.210938 C 245.128906 198.296875 245.484375 197.859375 245.378906 197.039062 C 244.988281 195.828125 244.671875 195.527344 242.746094 194.902344 Z M 279.089844 203.570312 C 277.808594 198.585938 273.136719 197.203125 269.113281 200.457031 C 265.992188 202.980469 264.976562 208.339844 266.992188 212.164062 C 268.015625 214.109375 269.449219 215.804688 271.839844 215.890625 C 274.484375 215.988281 276.546875 214.722656 277.847656 212.410156 C 278.441406 211.355469 278.804688 210.171875 279.382812 208.789062 C 279.3125 207.179688 279.535156 205.289062 279.089844 203.570312 Z M 227.988281 300.191406 C 226.277344 299.410156 223.671875 300.476562 222.542969 302.457031 C 222.242188 302.980469 222.007812 303.558594 221.828125 304.136719 C 220.957031 306.921875 221.726562 309.617188 223.648438 310.632812 C 225.492188 311.605469 228.125 310.164062 229.441406 307.425781 C 229.703125 306.878906 229.847656 306.269531 230.046875 305.695312 C 230.71875 303.238281 229.910156 301.066406 227.992188 300.191406 Z M 206.226562 307.917969 C 204.898438 307.667969 203.71875 308.132812 203.222656 309.425781 C 202.617188 311.003906 202.910156 312.492188 204.550781 313.351562 C 205.875 314.042969 207.605469 313.101562 208.148438 311.484375 C 208.671875 309.921875 207.796875 308.210938 206.226562 307.917969 Z M 188.980469 292.808594 C 188.507812 292.863281 187.890625 293.453125 187.707031 293.9375 C 187.347656 294.878906 187.742188 295.785156 188.761719 296 C 189.789062 296.21875 190.351562 295.492188 190.570312 294.523438 C 190.527344 293.496094 190.09375 292.683594 188.976562 292.804688 Z M 253.292969 301.550781 C 251.605469 301.105469 250.453125 302.28125 249.480469 303.453125 C 248.648438 304.457031 248.660156 305.648438 249.132812 306.84375 C 249.851562 308.683594 252.023438 309.25 253.585938 308.050781 C 254.605469 307.269531 255.152344 306.269531 255.328125 305.179688 C 255.566406 303.34375 254.964844 302 253.289062 301.554688 Z M 253.292969 301.550781 " fill-opacity="1" fill-rule="nonzero"/></g></g></g></svg>