<svg xmlns="http://www.w3.org/2000/svg" xmlns:xlink="http://www.w3.org/1999/xlink" width="576" zoomAndPan="magnify" viewBox="0 0 432 431.999984" height="576" preserveAspectRatio="xMidYMid meet" version="1.0"><defs><clipPath id="4f31de7e8d"><path d="M 118 110 L 335 110 L 335 330 L 118 330 Z M 118 110 " clip-rule="nonzero"/></clipPath><clipPath id="bbb7856545"><path d="M 134.746094 82.59375 L 346.238281 130.039062 L 296.984375 349.582031 L 85.492188 302.136719 Z M 134.746094 82.59375 " clip-rule="nonzero"/></clipPath><clipPath id="c865c93703"><path d="M 134.746094 82.59375 L 346.238281 130.039062 L 296.984375 349.582031 L 85.492188 302.136719 Z M 134.746094 82.59375 " clip-rule="nonzero"/></clipPath><clipPath id="99a402ad1a"><path d="M 134.746094 82.59375 L 346.238281 130.039062 L 296.984375 349.582031 L 85.492188 302.136719 Z M 134.746094 82.59375 " clip-rule="nonzero"/></clipPath></defs><g clip-path="url(#4f31de7e8d)"><g clip-path="url(#bbb7856545)"><g clip-path="url(#c865c93703)"><g clip-path="url(#99a402ad1a)"><path fill="#000000" d="M 315.101562 185.605469 C 314.773438 188.539062 316.011719 191.144531 316.71875 193.824219 C 320.65625 208.738281 321.738281 223.882812 320.535156 239.222656 C 319.878906 247.5625 316.351562 254.804688 311.609375 261.488281 C 306.113281 269.242188 298.957031 275.199219 290.808594 279.960938 C 287.855469 281.6875 284.792969 283.234375 281.714844 284.71875 C 279.625 285.726562 278.390625 287.230469 277.472656 289.378906 C 275.273438 294.523438 272.921875 299.621094 270.371094 304.605469 C 268.234375 308.78125 265.386719 312.511719 261.8125 315.605469 C 257.066406 319.714844 251.660156 321.523438 245.390625 320.140625 C 244.78125 320.003906 244.105469 320.035156 243.570312 319.769531 C 236.425781 316.285156 231.179688 318.183594 225.828125 324.132812 C 220.3125 330.269531 212.707031 330.675781 205.15625 327.320312 C 200.5625 325.28125 196.457031 322.414062 193.007812 318.796875 C 189.367188 314.972656 185.746094 311.0625 182.652344 306.796875 C 177.355469 299.5 172.25 292.03125 167.511719 284.359375 C 165.140625 280.519531 162.328125 277.570312 158.484375 275.277344 C 152.597656 271.769531 147.253906 267.488281 142.363281 262.660156 C 137.230469 257.597656 132.890625 251.953125 129.46875 245.589844 C 127.371094 241.691406 126.289062 237.671875 126.175781 233.132812 C 125.769531 217.425781 127.175781 202.023438 132.441406 187.109375 C 132.960938 185.644531 133.335938 184.125 133.667969 182.609375 C 134.042969 180.914062 133.511719 179.535156 131.851562 178.820312 C 129.851562 177.957031 127.828125 177.160156 125.800781 176.367188 C 121.261719 174.59375 119.105469 171.066406 118.421875 166.421875 C 117.480469 160.050781 118.757812 153.890625 121.09375 148.109375 C 126.582031 134.515625 135.429688 123.417969 147.332031 114.820312 C 148.339844 114.09375 149.425781 113.460938 150.515625 112.871094 C 158.445312 108.589844 161.382812 109.011719 167.582031 115.773438 C 170.097656 118.519531 172.246094 121.597656 174.519531 124.558594 C 175.808594 126.242188 177.300781 126.957031 179.328125 125.902344 C 181.257812 124.894531 183.171875 123.839844 185.132812 122.898438 C 212.347656 109.761719 239.199219 110.929688 265.710938 124.929688 C 266.539062 125.367188 267.363281 125.800781 268.15625 126.292969 C 274.347656 130.171875 274.835938 131.167969 280.324219 124.476562 C 281.496094 123.042969 282.917969 121.785156 284.359375 120.609375 C 287.199219 118.296875 290.449219 117.53125 293.984375 118.625 C 296.050781 119.261719 298.191406 119.863281 300.042969 120.933594 C 312.667969 128.210938 323.015625 137.894531 330.46875 150.515625 C 332.703125 154.292969 334.292969 158.332031 334.769531 162.761719 C 335.765625 172.070312 331.4375 179.203125 322.777344 182.660156 C 320.230469 183.679688 317.1875 183.417969 315.097656 185.609375 Z M 200.304688 287.429688 C 211.046875 290.425781 222.515625 291.214844 234.042969 290.941406 C 251.003906 290.53125 267.398438 287.371094 282.769531 279.863281 C 291.816406 275.445312 299.914062 269.738281 306.34375 261.878906 C 311.777344 255.242188 315.609375 247.90625 316.335938 239.164062 C 317.664062 223.167969 316.386719 207.441406 311.828125 192.023438 C 311.386719 190.535156 310.902344 189.050781 310.335938 187.605469 C 309.582031 185.699219 308.195312 184.535156 306.066406 184.675781 C 301.417969 184.980469 296.777344 185.414062 292.125 185.699219 C 281.65625 186.347656 274.195312 181.769531 269.53125 172.46875 C 265.429688 164.277344 264.902344 155.746094 267.472656 147.035156 C 268.4375 143.757812 269.761719 140.578125 271.066406 137.414062 C 271.933594 135.320312 271.285156 133.765625 269.703125 132.503906 C 268.492188 131.542969 267.15625 130.726562 265.828125 129.929688 C 245.863281 118.003906 224.601562 114.996094 202.117188 120.855469 C 195.476562 122.589844 189.132812 125.191406 183.183594 128.65625 C 179.332031 130.902344 179.1875 131.40625 180.816406 135.296875 C 181.542969 137.015625 182.359375 138.695312 183.089844 140.414062 C 185.0625 145.039062 186.445312 149.867188 186.542969 154.878906 C 186.816406 168.929688 181.238281 176.578125 167.449219 179.351562 C 162.25 180.394531 156.953125 180.375 151.664062 179.945312 C 148.886719 179.722656 146.089844 179.734375 143.308594 179.570312 C 140.335938 179.394531 138.753906 181.109375 137.699219 183.570312 C 137.207031 184.714844 136.730469 185.871094 136.367188 187.058594 C 132.25 200.535156 129.832031 214.242188 129.757812 228.417969 C 129.722656 234.960938 131.46875 240.664062 134.695312 246.113281 C 140.511719 255.953125 148.542969 263.675781 157.953125 269.960938 C 170.757812 278.519531 184.671875 284.492188 200.308594 287.433594 Z M 183.226562 286.996094 C 183.125 286.980469 181.910156 286.691406 180.6875 286.589844 C 179.121094 286.460938 177.21875 288.75 177.410156 290.402344 C 177.878906 294.390625 182.675781 299.988281 186.515625 301.023438 C 193.050781 302.789062 193.417969 302.90625 193.65625 309.683594 C 193.765625 312.855469 194.953125 314.984375 197.148438 316.855469 C 198.5625 318.0625 199.996094 319.253906 201.507812 320.332031 C 205.609375 323.261719 205.769531 323.382812 209.859375 319.535156 C 212.550781 317.007812 215.207031 316.679688 218.289062 318.28125 C 219.101562 318.703125 219.78125 319.378906 220.507812 319.957031 C 221.960938 321.109375 223.503906 320.960938 224.667969 319.757812 C 230.964844 313.246094 236.050781 305.835938 240.335938 297.882812 C 240.988281 296.667969 240.246094 295.285156 238.777344 295.191406 C 235.386719 294.980469 231.972656 295.140625 228.578125 294.945312 C 222.414062 294.59375 216.507812 293.757812 212.136719 300.25 C 209.9375 303.515625 204.828125 302.160156 202.730469 298.644531 C 202.257812 297.859375 201.878906 296.964844 201.675781 296.070312 C 201.0625 293.355469 199.480469 291.886719 196.75 291.175781 C 192.554688 290.078125 188.449219 288.632812 183.222656 286.996094 Z M 271.476562 291.613281 C 271.449219 290.585938 271.144531 289.519531 269.996094 289.757812 C 265.144531 290.773438 260.351562 292.675781 255.484375 292.882812 C 249.300781 293.144531 245.773438 296.039062 243.316406 301.238281 C 242.390625 303.195312 240.972656 304.914062 239.890625 306.804688 C 238.648438 308.976562 238.875 310.128906 241.128906 311.226562 C 243.109375 312.195312 244.988281 313.113281 246.371094 314.933594 C 247.683594 316.652344 249.644531 316.40625 251.519531 316.203125 C 253.742188 315.957031 255.777344 315.113281 257.46875 313.71875 C 261.273438 310.582031 265.421875 307.863281 262.875 301.464844 C 261.539062 298.101562 263.394531 296.148438 267.261719 294.484375 C 268.386719 294 269.613281 293.734375 270.675781 293.15625 C 271.105469 292.921875 271.226562 292.125 271.476562 291.617188 Z M 252.710938 236.832031 C 253.226562 236.101562 253.492188 235.140625 253.648438 234.246094 C 253.742188 233.707031 253.578125 232.894531 253.210938 232.570312 C 252.855469 232.253906 251.859375 232.132812 251.546875 232.402344 C 250.140625 233.585938 248.820312 234.886719 247.582031 236.25 C 244.179688 239.988281 240.257812 242.972656 235.546875 244.835938 C 229.089844 247.394531 228.710938 245.484375 228.445312 240.710938 C 228.359375 239.160156 228.4375 237.589844 228.234375 236.054688 C 227.789062 232.707031 228.589844 230.214844 231.671875 228.207031 C 236.25 225.222656 238.953125 220.617188 240.5625 215.457031 C 241.773438 211.585938 240.046875 208.167969 236.261719 207.679688 C 228.867188 206.71875 221.378906 206.339844 214.109375 208.492188 C 208.398438 210.183594 206.800781 215.214844 210.113281 220.277344 C 212.007812 223.179688 214.351562 226.050781 217.519531 227.160156 C 223.933594 229.414062 224.382812 234.324219 224.277344 239.792969 C 224.253906 241.039062 224.332031 242.285156 224.253906 243.527344 C 224.121094 245.679688 222.691406 246.890625 220.5 246.644531 C 216.074219 246.140625 212.191406 244.324219 208.679688 241.613281 C 207.226562 240.496094 205.722656 239.425781 204.144531 238.496094 C 203.757812 238.269531 202.769531 238.46875 202.484375 238.824219 C 202.195312 239.183594 202.203125 240.105469 202.46875 240.546875 C 205.863281 246.300781 211.308594 248.996094 218.4375 250.757812 C 229.554688 253.847656 244.726562 248.214844 252.714844 236.835938 Z M 172.355469 215.738281 C 173.84375 217.546875 176.101562 218.148438 178.121094 217.214844 C 183.164062 214.886719 185.628906 206.429688 182.476562 202.078125 C 181.953125 201.363281 181.171875 200.746094 180.378906 200.335938 C 175.976562 198.078125 171.914062 200.148438 170.648438 205.238281 C 169.726562 208.980469 169.75 212.566406 172.355469 215.738281 Z M 242.601562 194.960938 C 227.746094 190.117188 213.359375 191.828125 199.347656 198.230469 C 195.871094 199.816406 194.402344 201.671875 195.796875 202.488281 C 197.804688 203.671875 199.304688 202.1875 200.867188 201.480469 C 213.691406 195.667969 226.859375 193.886719 240.574219 197.757812 C 241.738281 198.085938 242.984375 198.144531 244.195312 198.273438 C 244.984375 198.359375 245.335938 197.921875 245.230469 197.101562 C 244.84375 195.886719 244.527344 195.585938 242.601562 194.960938 Z M 278.910156 203.625 C 277.636719 198.632812 272.96875 197.25 268.941406 200.511719 C 265.824219 203.039062 264.808594 208.402344 266.820312 212.226562 C 267.84375 214.175781 269.273438 215.871094 271.660156 215.957031 C 274.304688 216.054688 276.367188 214.785156 277.667969 212.472656 C 278.261719 211.414062 278.621094 210.230469 279.199219 208.84375 C 279.132812 207.238281 279.355469 205.34375 278.910156 203.621094 Z M 227.8125 300.355469 C 226.101562 299.578125 223.5 300.644531 222.371094 302.625 C 222.070312 303.152344 221.835938 303.730469 221.65625 304.308594 C 220.785156 307.097656 221.550781 309.796875 223.472656 310.808594 C 225.316406 311.78125 227.945312 310.339844 229.261719 307.597656 C 229.523438 307.050781 229.667969 306.441406 229.867188 305.867188 C 230.539062 303.40625 229.730469 301.230469 227.816406 300.355469 Z M 206.066406 308.101562 C 204.738281 307.851562 203.558594 308.316406 203.0625 309.609375 C 202.457031 311.191406 202.75 312.679688 204.390625 313.539062 C 205.714844 314.230469 207.445312 313.285156 207.984375 311.671875 C 208.507812 310.105469 207.636719 308.390625 206.066406 308.101562 Z M 188.84375 292.984375 C 188.371094 293.039062 187.753906 293.628906 187.570312 294.113281 C 187.210938 295.058594 187.601562 295.964844 188.625 296.179688 C 189.652344 296.398438 190.214844 295.671875 190.429688 294.703125 C 190.386719 293.671875 189.953125 292.859375 188.839844 292.980469 Z M 253.09375 301.707031 C 251.410156 301.261719 250.257812 302.4375 249.285156 303.613281 C 248.457031 304.617188 248.464844 305.808594 248.933594 307.007812 C 249.652344 308.847656 251.824219 309.414062 253.386719 308.210938 C 254.402344 307.429688 254.949219 306.429688 255.125 305.335938 C 255.363281 303.5 254.765625 302.15625 253.09375 301.710938 Z M 253.09375 301.707031 " fill-opacity="1" fill-rule="nonzero"/></g></g></g></g></svg>