<svg xmlns="http://www.w3.org/2000/svg" xmlns:xlink="http://www.w3.org/1999/xlink" width="576" zoomAndPan="magnify" viewBox="0 0 432 431.999984" height="576" preserveAspectRatio="xMidYMid meet" version="1.0"><defs><clipPath id="3df9014589"><path d="M 78 100 L 341 100 L 341 317 L 78 317 Z M 78 100 " clip-rule="nonzero"/></clipPath><clipPath id="d0ae5cfb5c"><path d="M 127.351562 64.796875 L 375.023438 142.25 L 304.730469 367.015625 L 57.058594 289.5625 Z M 127.351562 64.796875 " clip-rule="nonzero"/></clipPath><clipPath id="ea6d9a3d75"><path d="M 127.351562 64.796875 L 375.023438 142.25 L 304.730469 367.015625 L 57.058594 289.5625 Z M 127.351562 64.796875 " clip-rule="nonzero"/></clipPath></defs><g clip-path="url(#3df9014589)"><g clip-path="url(#d0ae5cfb5c)"><g clip-path="url(#ea6d9a3d75)"><path fill="#ffffff" d="M 111.421875 267.570312 C 109.109375 267.378906 108.082031 268.796875 107.082031 269.992188 C 103.027344 274.839844 99.425781 279.976562 96.9375 285.855469 C 95.644531 288.90625 94.195312 291.90625 92.601562 294.808594 C 91.054688 297.617188 88.789062 298.164062 85.882812 296.777344 C 80.617188 294.273438 77.605469 288.804688 78.40625 282.882812 C 78.851562 279.566406 80.144531 276.519531 81.828125 273.605469 C 86.234375 265.988281 92.21875 259.882812 99.460938 254.976562 C 101.929688 253.300781 104.515625 251.796875 107.054688 250.226562 C 108.5625 249.292969 109.644531 248.105469 109.144531 246.183594 C 107.890625 241.371094 107.519531 236.460938 107.882812 231.679688 C 104.300781 230.558594 102.355469 232.847656 100.082031 233.996094 C 96.203125 235.964844 92.273438 237.722656 87.875 237.988281 C 82.609375 238.308594 78.875 235.292969 78.242188 230.039062 C 77.589844 224.605469 78.980469 219.519531 81.363281 214.644531 C 89.242188 198.542969 100.296875 184.96875 114.859375 174.609375 C 120 170.949219 123.453125 166.578125 126.070312 161.15625 C 131.296875 150.320312 138.097656 140.546875 146.183594 131.664062 C 154.523438 122.5 164.042969 114.800781 175.179688 109.292969 C 203.507812 95.285156 231.035156 97.253906 257.410156 114.226562 C 274.609375 125.292969 286.621094 141.039062 295.582031 159.210938 C 297.925781 163.972656 299.25 169.429688 302.378906 173.546875 C 305.285156 177.367188 310.105469 179.683594 313.859375 182.914062 C 322.730469 190.558594 330.285156 199.3125 335.640625 209.816406 C 338.226562 214.886719 340.140625 220.164062 340.183594 225.960938 C 340.242188 234.222656 335.066406 239.929688 326.8125 240.058594 C 322.871094 240.125 318.921875 239.203125 314.964844 238.796875 C 313.519531 238.648438 312.445312 239.308594 311.941406 240.738281 C 311.832031 241.050781 311.726562 241.367188 311.613281 241.675781 C 307.65625 252.796875 307.707031 252.769531 313.582031 263.652344 C 316.734375 269.492188 319.839844 275.363281 322.683594 281.355469 C 324.089844 284.324219 325.183594 287.53125 325.84375 290.746094 C 326.925781 296 325.015625 299.792969 320.539062 302.542969 C 315.03125 305.921875 311.640625 305.386719 307.851562 299.902344 C 305.410156 296.371094 303.359375 292.53125 301.507812 288.648438 C 298.511719 282.359375 295.867188 275.90625 292.988281 269.558594 C 291.28125 265.800781 290.445312 265.480469 286.957031 266.773438 C 279.289062 269.621094 278.335938 270.59375 279.789062 275.0625 C 281.433594 280.105469 283.464844 285.023438 285.136719 290.0625 C 286.070312 292.875 286.894531 295.785156 287.265625 298.714844 C 287.753906 302.636719 286.148438 305.792969 282.753906 308.011719 C 277.050781 311.738281 272.492188 310.726562 270.066406 304.351562 C 267.597656 297.863281 265.71875 291.113281 264.050781 284.363281 C 261.515625 274.113281 261.792969 274.6875 251.242188 276.75 C 248.746094 277.238281 248.117188 278.886719 248.558594 281.15625 C 249.433594 285.71875 250.425781 290.257812 251.183594 294.835938 C 251.773438 298.425781 252.179688 302.050781 252.5 305.675781 C 252.796875 309.023438 251.273438 311.492188 248.183594 312.78125 C 244.113281 314.484375 239.570312 313.582031 237.171875 310.84375 C 235.585938 309.03125 234.695312 306.886719 234.308594 304.589844 C 233.535156 300.015625 232.875 295.417969 232.292969 290.816406 C 231.960938 288.191406 231.984375 285.515625 231.65625 282.886719 C 231.28125 279.878906 229.925781 278.734375 227.132812 278.71875 C 223.609375 278.703125 221.789062 279.957031 221.710938 283.058594 C 221.582031 288.023438 221.726562 293 221.886719 297.96875 C 221.980469 300.949219 222.398438 303.917969 222.542969 306.894531 C 222.835938 312.976562 221.550781 315.160156 217.339844 316.011719 C 210.613281 317.363281 205.898438 315.460938 204 310.472656 C 202.554688 306.671875 202.609375 302.648438 202.75 298.671875 C 202.9375 293.371094 203.421875 288.082031 203.59375 282.78125 C 203.699219 279.523438 202.925781 278.421875 199.789062 278.085938 C 184.746094 276.484375 183.90625 273.929688 183.421875 290.859375 C 183.277344 295.8125 184.015625 300.78125 184.199219 305.746094 C 184.40625 311.222656 182.691406 313.617188 178.214844 314.515625 C 171.488281 315.871094 167.703125 314.390625 165.960938 309.242188 C 165.015625 306.453125 164.644531 303.429688 164.296875 300.484375 C 163.472656 293.507812 164.460938 286.582031 165.140625 279.648438 C 165.300781 278.023438 165.378906 276.375 165.277344 274.75 C 165.25 274.273438 164.546875 273.636719 164.015625 273.429688 C 163.097656 273.074219 161.949219 272.996094 161.371094 273.972656 C 160.710938 275.085938 160.207031 276.328125 159.867188 277.578125 C 158.101562 284.042969 157.9375 290.667969 157.882812 297.316406 C 157.847656 301.625 157.742188 305.949219 157.308594 310.226562 C 157.003906 313.210938 155.089844 314.761719 152.042969 315.34375 C 143.933594 316.890625 139.191406 313.859375 137.703125 305.777344 C 135.804688 295.488281 137.253906 285.289062 139.074219 275.132812 C 139.484375 272.859375 140.078125 270.578125 140.140625 268.289062 C 140.179688 266.988281 138.988281 266.058594 137.535156 265.734375 C 136.367188 265.472656 135.464844 266.035156 134.988281 266.8125 C 132.867188 270.308594 132.273438 274.253906 131.996094 278.246094 C 131.695312 282.546875 131.699219 286.875 131.1875 291.148438 C 130.523438 296.691406 128.300781 299.085938 124.199219 299.394531 C 117.917969 299.871094 112.898438 297.035156 111.578125 292.03125 C 110.289062 287.140625 110.734375 282.144531 111.164062 277.1875 C 111.445312 273.960938 112.519531 270.742188 111.410156 267.5625 Z M 142.226562 262.226562 C 164.117188 269.148438 186.515625 273.238281 209.507812 274.148438 C 226.796875 274.828125 243.945312 273.945312 260.90625 270.414062 C 270.679688 268.378906 280.160156 265.429688 289 260.679688 C 294.304688 257.828125 299.164062 254.390625 302.988281 249.691406 C 305.535156 246.5625 307.085938 243.152344 307.257812 238.867188 C 308.511719 208.339844 302.613281 179.515625 287.21875 152.917969 C 279.660156 139.859375 270.089844 128.453125 257.648438 119.792969 C 230.222656 100.691406 201.761719 99.34375 172.542969 115.5625 C 163.777344 120.429688 156.199219 126.882812 149.425781 134.238281 C 137.371094 147.332031 128.589844 162.460938 122.425781 179.089844 C 115.683594 197.289062 112.449219 216.152344 112.257812 235.5625 C 112.148438 246.925781 116.65625 253.839844 127.058594 257.457031 C 132.0625 259.199219 137.171875 260.648438 142.226562 262.230469 Z M 83.941406 219.460938 C 83.492188 221.949219 82.722656 224.84375 82.507812 227.773438 C 82.261719 231.082031 84.773438 233.460938 88.105469 233.214844 C 90.039062 233.074219 92.109375 232.722656 93.8125 231.867188 C 97.339844 230.097656 100.679688 227.953125 104.070312 225.917969 C 107.4375 223.898438 108.96875 220.910156 109.429688 216.984375 C 110.503906 207.792969 112.214844 198.703125 114.992188 189.84375 C 115.679688 187.640625 116.273438 185.402344 116.792969 183.152344 C 117.011719 182.210938 117.066406 180.964844 115.984375 180.601562 C 115.207031 180.339844 113.945312 180.449219 113.335938 180.9375 C 100.492188 191.234375 90.53125 203.753906 83.941406 219.460938 Z M 318.09375 234.332031 C 318.414062 234.433594 318.726562 234.542969 319.042969 234.628906 C 323.972656 235.953125 329.152344 236.886719 333.15625 233.003906 C 337.230469 229.054688 336.441406 223.804688 334.765625 218.960938 C 329.832031 204.714844 320.453125 193.726562 308.851562 184.457031 C 308.429688 184.121094 307.546875 184.007812 307.039062 184.207031 C 305.980469 184.613281 305.769531 185.6875 306.011719 186.664062 C 309.210938 199.589844 311.058594 212.695312 311.679688 225.996094 C 311.964844 232.144531 312.472656 232.601562 318.097656 234.332031 Z M 321.882812 295.007812 C 322.515625 291.8125 321.714844 288.574219 320.207031 285.605469 C 315.695312 276.734375 311.070312 267.925781 306.339844 259.167969 C 304.878906 256.460938 303.429688 256.390625 300.683594 258.355469 C 299.601562 259.125 298.546875 259.941406 297.554688 260.816406 C 296.238281 261.980469 295.410156 263.445312 296.09375 265.21875 C 300.289062 276.058594 304.742188 286.78125 310.925781 296.679688 C 311.976562 298.359375 313.285156 300.054688 315.628906 299.761719 C 318.464844 299.40625 320.449219 297.75 321.882812 295.007812 Z M 151.933594 269.523438 C 146.390625 267.855469 144.625 268.785156 143.546875 274.335938 C 141.976562 282.472656 140.566406 290.636719 141.128906 298.988281 C 141.328125 301.972656 141.503906 304.953125 142.710938 307.738281 C 143.910156 310.503906 146.542969 311.648438 150.226562 311.113281 C 152.503906 310.78125 153.484375 309.5 153.507812 305.839844 C 153.570312 295.230469 153.875 284.652344 155.910156 274.1875 C 156.394531 271.691406 155.175781 270.496094 151.933594 269.523438 Z M 83.480469 279.105469 C 81.722656 284.378906 82.386719 287.96875 85.207031 291.136719 C 86.855469 292.988281 88.941406 292.90625 90.015625 290.867188 C 90.789062 289.410156 91.386719 287.863281 92.082031 286.359375 C 96.71875 276.339844 102.785156 267.34375 111.066406 259.941406 C 111.800781 259.28125 112.539062 258.609375 113.203125 257.875 C 114.183594 256.796875 114.476562 255.457031 113.617188 254.285156 C 112.78125 253.136719 111.414062 252.847656 110.085938 253.472656 C 101.234375 257.625 93.730469 263.5 87.988281 271.4375 C 86.0625 274.101562 84.628906 277.121094 83.476562 279.109375 Z M 125.355469 261.292969 C 120.808594 259.714844 119.5625 260.269531 117.941406 264.875 C 115.488281 271.839844 114.5625 279.039062 114.878906 286.394531 C 114.933594 287.710938 115.085938 289.050781 115.417969 290.324219 C 116.316406 293.746094 119.074219 295.398438 123.078125 295.070312 C 125.902344 294.835938 127.179688 293.4375 127.21875 289.453125 C 127.296875 282.128906 128.242188 274.933594 129.496094 267.734375 C 130.238281 263.488281 129.609375 262.773438 125.355469 261.292969 Z M 177.390625 275.347656 C 172.722656 273.769531 170.65625 274.792969 169.757812 278.945312 C 168.199219 286.128906 167.847656 293.398438 168.546875 300.703125 C 168.765625 302.984375 169.320312 305.285156 170.066406 307.457031 C 170.867188 309.808594 173.75 310.835938 176.820312 310.105469 C 179.195312 309.542969 179.839844 307.78125 179.695312 305.582031 C 179.230469 298.308594 178.574219 291.039062 179.589844 283.753906 C 179.820312 282.121094 179.773438 280.445312 179.808594 278.789062 C 179.855469 276.875 178.832031 275.742188 177.390625 275.347656 Z M 215.277344 279.023438 C 211.824219 278.070312 208.574219 279.195312 208.292969 281.414062 C 207.28125 289.261719 206.5 297.132812 207.171875 305.054688 C 207.277344 306.347656 207.660156 307.65625 208.160156 308.859375 C 209.085938 311.082031 212.003906 312.285156 214.925781 311.65625 C 217.167969 311.175781 218.179688 309.609375 218.105469 307.351562 C 217.839844 298.792969 217.597656 290.234375 217.246094 281.679688 C 217.1875 280.335938 216.289062 279.277344 215.277344 279.019531 Z M 273.285156 272.507812 C 271.304688 272.347656 269.398438 272.71875 267.734375 273.90625 C 266.9375 274.476562 266.28125 275.21875 266.523438 276.363281 C 268.46875 285.34375 270.382812 294.339844 274.015625 302.835938 C 274.710938 304.457031 276.089844 305.371094 277.9375 305.160156 C 280.160156 304.90625 282.644531 302.792969 282.871094 300.933594 C 282.992188 299.972656 283.070312 298.90625 282.78125 298.011719 C 280.167969 289.890625 277.480469 281.792969 274.746094 273.714844 C 274.578125 273.214844 273.8125 272.921875 273.28125 272.503906 Z M 248.109375 306.292969 C 248.117188 305.214844 248.367188 303.53125 248.085938 301.949219 C 246.871094 295.101562 245.574219 288.265625 244.15625 281.457031 C 243.589844 278.730469 241.753906 277.683594 239.070312 278.09375 C 236.601562 278.472656 235.859375 280.167969 235.910156 282.363281 C 236.074219 289.332031 236.667969 296.269531 238.234375 303.074219 C 238.59375 304.632812 239.332031 306.210938 240.28125 307.496094 C 241.3125 308.886719 243.03125 309.21875 244.765625 309.039062 C 246.199219 308.886719 247.167969 308.078125 248.105469 306.296875 Z M 230.980469 144.128906 C 233.316406 143.417969 234.96875 141.890625 236.015625 139.753906 C 236.980469 137.800781 236.675781 135.839844 235.207031 134.296875 C 231.316406 130.222656 221.757812 128.800781 216.855469 131.453125 C 212.996094 133.535156 212.222656 138.351562 215.417969 141.261719 C 216.835938 142.554688 218.589844 143.46875 219.726562 144.242188 C 223.910156 145.226562 227.449219 145.203125 230.980469 144.125 Z M 201.554688 242.535156 C 199.664062 244.472656 196.933594 243.863281 196.328125 241.203125 C 195.832031 239 195.894531 236.675781 195.550781 234.429688 C 195.480469 233.953125 194.742188 233.285156 194.265625 233.246094 C 193.792969 233.207031 193.015625 233.726562 192.792969 234.199219 C 191.148438 237.734375 191.445312 241.25 193.285156 244.617188 C 194.871094 247.511719 197.757812 249.519531 200.609375 248.242188 C 204.679688 246.414062 207.25 248.21875 210.507812 249.875 C 214.542969 251.929688 218.476562 250.125 220.265625 246.03125 C 221.921875 242.246094 222.125 238.386719 220.351562 234.574219 C 220.125 234.089844 219.371094 233.582031 218.855469 233.578125 C 218.394531 233.574219 217.574219 234.203125 217.515625 234.632812 C 217.117188 237.546875 217.050781 240.507812 216.550781 243.402344 C 216.132812 245.792969 212.628906 246.703125 211.027344 244.808594 C 209.363281 242.851562 208.0625 240.59375 206.28125 238 C 203.492188 239.039062 202.90625 241.148438 201.550781 242.53125 Z M 261.722656 156.863281 C 263.171875 155.082031 262.886719 153.074219 262.242188 151.230469 C 260.996094 147.675781 258.78125 144.886719 255.03125 143.613281 C 252.613281 142.792969 250.097656 143.3125 248.707031 145.101562 C 247.402344 146.78125 247.070312 148.71875 247.820312 150.703125 C 249.1875 154.296875 251.667969 156.800781 255.019531 157.882812 C 257.996094 158.960938 260.414062 158.484375 261.726562 156.871094 Z M 166.558594 230.703125 C 166.035156 228.992188 164.886719 227.867188 163.191406 227.503906 C 161.472656 227.132812 159.984375 227.789062 158.847656 229.136719 C 156.625 231.757812 156.261719 236.238281 158.011719 239.195312 C 159.347656 241.445312 163.0625 241.839844 164.800781 239.828125 C 165.636719 238.859375 166.234375 237.695312 166.457031 237.355469 C 167.367188 234.539062 167.148438 232.621094 166.5625 230.707031 Z M 247.984375 235.589844 C 248.160156 239.058594 249.175781 242.132812 252.503906 243.847656 C 253.804688 244.519531 255.21875 244.046875 256.203125 243.179688 C 258.757812 240.925781 259.402344 236.429688 257.613281 233.121094 C 257.027344 232.035156 255.871094 231.257812 255.460938 230.835938 C 251.242188 229.492188 247.800781 232.027344 247.984375 235.589844 Z M 191.773438 130.4375 C 188.171875 126.675781 181.40625 128.070312 179.414062 132.898438 C 178.703125 134.613281 179.933594 137.109375 181.789062 137.714844 C 185.625 138.972656 190.09375 137.429688 192.226562 134.097656 C 192.398438 133.828125 192.433594 133.472656 192.632812 132.839844 C 192.417969 132.199219 192.371094 131.054688 191.777344 130.433594 Z M 282.804688 170.824219 C 283.125 166.359375 279.945312 162.203125 275.785156 161.792969 C 274.410156 161.65625 273.15625 162.359375 272.597656 163.597656 C 271.21875 166.621094 273.601562 171.292969 277.433594 173.078125 C 278.257812 173.464844 279.382812 173.597656 280.257812 173.390625 C 281.128906 173.1875 281.859375 172.40625 282.53125 171.957031 C 282.65625 171.453125 282.785156 171.140625 282.808594 170.824219 Z M 248.488281 124.058594 C 246.304688 123.480469 243.503906 125.839844 243.980469 127.972656 C 244.722656 131.332031 246.222656 134.164062 249.800781 135.339844 C 251.289062 135.828125 253.386719 134.8125 253.761719 133.351562 C 254.78125 129.386719 252.332031 125.074219 248.492188 124.058594 Z M 207.652344 119.484375 C 208.179688 117.679688 207.035156 115.070312 205.492188 114.554688 C 202.921875 113.695312 199.539062 115.234375 198.136719 117.894531 C 197.277344 119.53125 198.117188 122.347656 199.652344 122.976562 C 202.636719 124.199219 206.804688 122.382812 207.652344 119.484375 Z M 207.652344 119.484375 " fill-opacity="1" fill-rule="nonzero"/></g></g></g></svg>