<svg xmlns="http://www.w3.org/2000/svg" xmlns:xlink="http://www.w3.org/1999/xlink" width="576" zoomAndPan="magnify" viewBox="0 0 432 431.999984" height="576" preserveAspectRatio="xMidYMid meet" version="1.0"><defs><clipPath id="413d83979b"><path d="M 78 99 L 341 99 L 341 317 L 78 317 Z M 78 99 " clip-rule="nonzero"/></clipPath><clipPath id="b1bfd2fb5f"><path d="M 127.351562 64.796875 L 375.023438 142.25 L 304.730469 367.015625 L 57.058594 289.5625 Z M 127.351562 64.796875 " clip-rule="nonzero"/></clipPath><clipPath id="53769fdf2e"><path d="M 127.351562 64.796875 L 375.023438 142.25 L 304.730469 367.015625 L 57.058594 289.5625 Z M 127.351562 64.796875 " clip-rule="nonzero"/></clipPath><clipPath id="6e94bbb3b2"><path d="M 127.351562 64.796875 L 375.023438 142.25 L 304.730469 367.015625 L 57.058594 289.5625 Z M 127.351562 64.796875 " clip-rule="nonzero"/></clipPath></defs><g clip-path="url(#413d83979b)"><g clip-path="url(#b1bfd2fb5f)"><g clip-path="url(#53769fdf2e)"><g clip-path="url(#6e94bbb3b2)"><path fill="#000000" d="M 111.476562 267.414062 C 109.164062 267.21875 108.140625 268.636719 107.140625 269.828125 C 103.085938 274.671875 99.484375 279.804688 96.996094 285.679688 C 95.707031 288.726562 94.257812 291.722656 92.664062 294.625 C 91.117188 297.429688 88.851562 297.976562 85.945312 296.589844 C 80.679688 294.085938 77.667969 288.621094 78.464844 282.707031 C 78.910156 279.390625 80.203125 276.347656 81.886719 273.4375 C 86.289062 265.824219 92.269531 259.722656 99.511719 254.824219 C 101.980469 253.152344 104.566406 251.652344 107.105469 250.082031 C 108.613281 249.148438 109.695312 247.960938 109.191406 246.042969 C 107.9375 241.234375 107.566406 236.324219 107.929688 231.546875 C 104.34375 230.425781 102.402344 232.710938 100.128906 233.863281 C 96.25 235.824219 92.320312 237.578125 87.917969 237.847656 C 82.65625 238.164062 78.917969 235.152344 78.289062 229.898438 C 77.632812 224.472656 79.023438 219.386719 81.402344 214.519531 C 89.277344 198.429688 100.328125 184.867188 114.890625 174.523438 C 120.027344 170.867188 123.480469 166.5 126.097656 161.082031 C 131.320312 150.253906 138.117188 140.492188 146.203125 131.617188 C 154.542969 122.464844 164.058594 114.773438 175.195312 109.273438 C 203.519531 95.285156 231.050781 97.257812 257.429688 114.226562 C 274.632812 125.289062 286.652344 141.023438 295.617188 159.1875 C 297.960938 163.945312 299.285156 169.398438 302.417969 173.511719 C 305.324219 177.332031 310.144531 179.648438 313.902344 182.878906 C 322.777344 190.515625 330.335938 199.269531 335.691406 209.765625 C 338.277344 214.832031 340.195312 220.105469 340.238281 225.898438 C 340.296875 234.152344 335.125 239.851562 326.871094 239.984375 C 322.929688 240.046875 318.980469 239.125 315.023438 238.71875 C 313.578125 238.570312 312.503906 239.230469 312 240.65625 C 311.890625 240.96875 311.785156 241.285156 311.671875 241.59375 C 307.71875 252.703125 307.769531 252.675781 313.644531 263.554688 C 316.800781 269.390625 319.90625 275.257812 322.753906 281.246094 C 324.160156 284.210938 325.253906 287.417969 325.917969 290.632812 C 327 295.882812 325.089844 299.671875 320.613281 302.417969 C 315.105469 305.789062 311.714844 305.257812 307.925781 299.777344 C 305.484375 296.246094 303.429688 292.410156 301.578125 288.527344 C 298.578125 282.242188 295.933594 275.792969 293.054688 269.449219 C 291.347656 265.695312 290.507812 265.375 287.023438 266.664062 C 279.351562 269.507812 278.402344 270.480469 279.855469 274.945312 C 281.5 279.988281 283.535156 284.902344 285.207031 289.933594 C 286.140625 292.746094 286.964844 295.65625 287.335938 298.582031 C 287.828125 302.5 286.226562 305.65625 282.828125 307.871094 C 277.125 311.59375 272.566406 310.582031 270.140625 304.210938 C 267.667969 297.726562 265.789062 290.980469 264.121094 284.234375 C 261.578125 273.992188 261.855469 274.566406 251.308594 276.621094 C 248.8125 277.109375 248.183594 278.757812 248.625 281.027344 C 249.5 285.585938 250.492188 290.121094 251.253906 294.695312 C 251.847656 298.28125 252.25 301.90625 252.570312 305.527344 C 252.871094 308.875 251.347656 311.339844 248.261719 312.628906 C 244.1875 314.328125 239.644531 313.425781 237.246094 310.6875 C 235.660156 308.878906 234.769531 306.734375 234.378906 304.4375 C 233.605469 299.867188 232.941406 295.273438 232.359375 290.675781 C 232.027344 288.050781 232.050781 285.378906 231.722656 282.75 C 231.347656 279.746094 229.992188 278.597656 227.199219 278.585938 C 223.671875 278.566406 221.851562 279.820312 221.777344 282.921875 C 221.648438 287.878906 221.792969 292.855469 221.957031 297.816406 C 222.054688 300.796875 222.46875 303.761719 222.613281 306.738281 C 222.910156 312.816406 221.625 315 217.414062 315.84375 C 210.6875 317.195312 205.96875 315.292969 204.074219 310.308594 C 202.625 306.511719 202.679688 302.488281 202.816406 298.515625 C 203.003906 293.21875 203.488281 287.933594 203.660156 282.636719 C 203.765625 279.382812 202.988281 278.28125 199.851562 277.945312 C 184.808594 276.339844 183.96875 273.789062 183.488281 290.703125 C 183.347656 295.652344 184.085938 300.617188 184.269531 305.578125 C 184.476562 311.050781 182.761719 313.445312 178.285156 314.34375 C 171.558594 315.691406 167.773438 314.214844 166.03125 309.066406 C 165.082031 306.277344 164.710938 303.261719 164.363281 300.316406 C 163.539062 293.347656 164.523438 286.425781 165.203125 279.496094 C 165.359375 277.871094 165.441406 276.226562 165.335938 274.601562 C 165.308594 274.125 164.605469 273.492188 164.074219 273.28125 C 163.15625 272.925781 162.011719 272.847656 161.429688 273.824219 C 160.773438 274.9375 160.269531 276.175781 159.925781 277.425781 C 158.164062 283.882812 158.003906 290.503906 157.949219 297.148438 C 157.914062 301.453125 157.808594 305.773438 157.375 310.050781 C 157.074219 313.03125 155.160156 314.582031 152.113281 315.160156 C 144.003906 316.703125 139.261719 313.675781 137.769531 305.597656 C 135.871094 295.316406 137.316406 285.125 139.136719 274.976562 C 139.542969 272.703125 140.136719 270.425781 140.199219 268.136719 C 140.234375 266.839844 139.042969 265.910156 137.589844 265.585938 C 136.421875 265.324219 135.523438 265.882812 135.046875 266.664062 C 132.925781 270.152344 132.332031 274.097656 132.054688 278.085938 C 131.757812 282.382812 131.761719 286.707031 131.25 290.976562 C 130.589844 296.515625 128.363281 298.90625 124.261719 299.21875 C 117.980469 299.691406 112.964844 296.855469 111.640625 291.851562 C 110.347656 286.96875 110.792969 281.976562 111.222656 277.023438 C 111.5 273.796875 112.578125 270.582031 111.464844 267.40625 Z M 142.285156 262.082031 C 164.175781 269.003906 186.578125 273.097656 209.570312 274.011719 C 226.863281 274.699219 244.011719 273.816406 260.972656 270.296875 C 270.746094 268.265625 280.222656 265.320312 289.0625 260.574219 C 294.363281 257.730469 299.222656 254.296875 303.050781 249.601562 C 305.59375 246.476562 307.144531 243.066406 307.316406 238.785156 C 308.558594 208.285156 302.652344 179.476562 287.25 152.894531 C 279.6875 139.847656 270.113281 128.445312 257.671875 119.785156 C 230.238281 100.691406 201.773438 99.339844 172.5625 115.535156 C 163.796875 120.398438 156.21875 126.84375 149.445312 134.191406 C 137.394531 147.269531 128.617188 162.386719 122.457031 179.003906 C 115.71875 197.183594 112.488281 216.035156 112.304688 235.425781 C 112.199219 246.78125 116.710938 253.695312 127.113281 257.3125 C 132.117188 259.050781 137.226562 260.503906 142.28125 262.085938 Z M 83.984375 219.332031 C 83.53125 221.820312 82.765625 224.710938 82.550781 227.640625 C 82.304688 230.945312 84.820312 233.320312 88.148438 233.074219 C 90.085938 232.933594 92.152344 232.585938 93.855469 231.730469 C 97.386719 229.964844 100.722656 227.820312 104.113281 225.789062 C 107.480469 223.773438 109.011719 220.785156 109.46875 216.863281 C 110.542969 207.679688 112.25 198.597656 115.027344 189.746094 C 115.714844 187.542969 116.304688 185.308594 116.828125 183.058594 C 117.046875 182.121094 117.097656 180.871094 116.019531 180.507812 C 115.238281 180.25 113.976562 180.355469 113.367188 180.84375 C 100.523438 191.132812 90.566406 203.636719 83.984375 219.332031 Z M 318.152344 234.257812 C 318.46875 234.359375 318.78125 234.46875 319.101562 234.554688 C 324.03125 235.878906 329.207031 236.8125 333.214844 232.933594 C 337.285156 228.988281 336.496094 223.742188 334.816406 218.902344 C 329.878906 204.664062 320.5 193.679688 308.894531 184.417969 C 308.472656 184.082031 307.589844 183.96875 307.078125 184.164062 C 306.023438 184.574219 305.8125 185.648438 306.054688 186.621094 C 309.257812 199.539062 311.109375 212.632812 311.730469 225.925781 C 312.023438 232.066406 312.527344 232.523438 318.15625 234.257812 Z M 321.957031 294.886719 C 322.589844 291.695312 321.789062 288.457031 320.28125 285.492188 C 315.765625 276.628906 311.136719 267.820312 306.402344 259.070312 C 304.941406 256.367188 303.492188 256.292969 300.746094 258.257812 C 299.664062 259.027344 298.609375 259.839844 297.617188 260.71875 C 296.300781 261.878906 295.472656 263.34375 296.160156 265.117188 C 300.359375 275.945312 304.8125 286.664062 311 296.554688 C 312.050781 298.234375 313.359375 299.929688 315.703125 299.636719 C 318.539062 299.28125 320.523438 297.625 321.957031 294.886719 Z M 151.992188 269.375 C 146.445312 267.707031 144.683594 268.636719 143.609375 274.183594 C 142.039062 282.308594 140.632812 290.46875 141.195312 298.816406 C 141.394531 301.796875 141.574219 304.777344 142.78125 307.558594 C 143.980469 310.320312 146.613281 311.46875 150.296875 310.933594 C 152.574219 310.601562 153.554688 309.324219 153.578125 305.664062 C 153.636719 295.0625 153.9375 284.492188 155.96875 274.035156 C 156.457031 271.542969 155.234375 270.347656 151.992188 269.375 Z M 83.539062 278.933594 C 81.78125 284.199219 82.449219 287.785156 85.265625 290.953125 C 86.917969 292.804688 89.003906 292.722656 90.078125 290.6875 C 90.847656 289.226562 91.449219 287.683594 92.140625 286.183594 C 96.773438 276.167969 102.839844 267.183594 111.117188 259.789062 C 111.855469 259.128906 112.59375 258.460938 113.257812 257.726562 C 114.238281 256.648438 114.527344 255.308594 113.671875 254.136719 C 112.832031 252.992188 111.46875 252.703125 110.140625 253.328125 C 101.285156 257.472656 93.785156 263.339844 88.042969 271.269531 C 86.117188 273.929688 84.6875 276.949219 83.535156 278.933594 Z M 125.410156 261.144531 C 120.863281 259.566406 119.617188 260.117188 117.996094 264.722656 C 115.546875 271.679688 114.621094 278.871094 114.941406 286.222656 C 114.996094 287.539062 115.148438 288.878906 115.480469 290.148438 C 116.382812 293.570312 119.136719 295.222656 123.140625 294.894531 C 125.964844 294.664062 127.242188 293.261719 127.28125 289.285156 C 127.359375 281.964844 128.300781 274.773438 129.554688 267.582031 C 130.292969 263.339844 129.664062 262.625 125.410156 261.144531 Z M 177.449219 275.203125 C 172.78125 273.621094 170.71875 274.648438 169.820312 278.792969 C 168.265625 285.972656 167.914062 293.238281 168.613281 300.535156 C 168.835938 302.816406 169.390625 305.113281 170.132812 307.285156 C 170.9375 309.636719 173.820312 310.660156 176.890625 309.933594 C 179.269531 309.371094 179.910156 307.613281 179.765625 305.414062 C 179.296875 298.144531 178.636719 290.882812 179.652344 283.601562 C 179.882812 281.96875 179.835938 280.296875 179.871094 278.640625 C 179.914062 276.726562 178.890625 275.59375 177.449219 275.203125 Z M 215.339844 278.882812 C 211.886719 277.933594 208.636719 279.054688 208.355469 281.273438 C 207.347656 289.113281 206.570312 296.976562 207.242188 304.894531 C 207.351562 306.183594 207.734375 307.496094 208.234375 308.695312 C 209.15625 310.917969 212.074219 312.121094 214.996094 311.496094 C 217.242188 311.015625 218.25 309.449219 218.175781 307.191406 C 217.910156 298.640625 217.667969 290.089844 217.308594 281.539062 C 217.253906 280.195312 216.351562 279.140625 215.339844 278.878906 Z M 273.351562 272.394531 C 271.367188 272.230469 269.464844 272.597656 267.796875 273.785156 C 267 274.359375 266.347656 275.097656 266.589844 276.238281 C 268.535156 285.214844 270.453125 294.207031 274.089844 302.695312 C 274.785156 304.316406 276.164062 305.230469 278.011719 305.023438 C 280.234375 304.769531 282.71875 302.65625 282.945312 300.796875 C 283.066406 299.835938 283.144531 298.769531 282.855469 297.875 C 280.238281 289.761719 277.550781 281.667969 274.8125 273.597656 C 274.644531 273.101562 273.878906 272.804688 273.347656 272.386719 Z M 248.183594 306.144531 C 248.191406 305.066406 248.441406 303.386719 248.160156 301.804688 C 246.941406 294.960938 245.644531 288.128906 244.222656 281.324219 C 243.65625 278.601562 241.820312 277.554688 239.136719 277.964844 C 236.664062 278.339844 235.921875 280.035156 235.976562 282.230469 C 236.144531 289.191406 236.738281 296.125 238.304688 302.921875 C 238.664062 304.484375 239.402344 306.0625 240.355469 307.34375 C 241.386719 308.734375 243.105469 309.066406 244.839844 308.886719 C 246.273438 308.734375 247.242188 307.925781 248.179688 306.148438 Z M 231.007812 144.097656 C 233.34375 143.386719 234.992188 141.863281 236.042969 139.730469 C 237.007812 137.773438 236.703125 135.816406 235.230469 134.273438 C 231.339844 130.203125 221.78125 128.78125 216.878906 131.425781 C 213.019531 133.507812 212.246094 138.316406 215.441406 141.230469 C 216.859375 142.523438 218.617188 143.4375 219.753906 144.207031 C 223.9375 145.191406 227.476562 145.171875 231.007812 144.09375 Z M 201.609375 242.417969 C 199.714844 244.355469 196.984375 243.746094 196.382812 241.085938 C 195.882812 238.886719 195.945312 236.566406 195.601562 234.316406 C 195.53125 233.84375 194.792969 233.179688 194.316406 233.136719 C 193.84375 233.097656 193.066406 233.617188 192.84375 234.089844 C 191.199219 237.621094 191.5 241.136719 193.339844 244.496094 C 194.925781 247.394531 197.8125 249.398438 200.664062 248.121094 C 204.734375 246.300781 207.304688 248.101562 210.5625 249.757812 C 214.597656 251.8125 218.53125 250.007812 220.320312 245.921875 C 221.976562 242.140625 222.179688 238.28125 220.402344 234.472656 C 220.175781 233.984375 219.421875 233.480469 218.910156 233.476562 C 218.445312 233.472656 217.625 234.101562 217.566406 234.53125 C 217.171875 237.441406 217.105469 240.398438 216.601562 243.289062 C 216.1875 245.679688 212.683594 246.589844 211.078125 244.699219 C 209.417969 242.738281 208.113281 240.484375 206.332031 237.890625 C 203.542969 238.929688 202.957031 241.035156 201.605469 242.417969 Z M 261.753906 156.832031 C 263.203125 155.050781 262.917969 153.046875 262.269531 151.203125 C 261.027344 147.648438 258.808594 144.863281 255.058594 143.589844 C 252.640625 142.769531 250.125 143.289062 248.734375 145.074219 C 247.429688 146.75 247.097656 148.6875 247.851562 150.671875 C 249.21875 154.261719 251.703125 156.765625 255.050781 157.847656 C 258.03125 158.925781 260.445312 158.449219 261.757812 156.835938 Z M 166.609375 230.585938 C 166.082031 228.878906 164.933594 227.753906 163.238281 227.390625 C 161.519531 227.019531 160.03125 227.675781 158.894531 229.019531 C 156.671875 231.636719 156.308594 236.117188 158.0625 239.070312 C 159.398438 241.320312 163.117188 241.714844 164.851562 239.707031 C 165.683594 238.738281 166.285156 237.574219 166.507812 237.234375 C 167.417969 234.421875 167.195312 232.503906 166.609375 230.589844 Z M 248.035156 235.492188 C 248.214844 238.960938 249.230469 242.03125 252.558594 243.75 C 253.859375 244.421875 255.273438 243.945312 256.257812 243.082031 C 258.8125 240.828125 259.457031 236.335938 257.667969 233.027344 C 257.082031 231.945312 255.925781 231.167969 255.511719 230.746094 C 251.292969 229.402344 247.855469 231.933594 248.035156 235.492188 Z M 191.796875 130.40625 C 188.191406 126.644531 181.429688 128.039062 179.433594 132.863281 C 178.722656 134.574219 179.957031 137.070312 181.8125 137.675781 C 185.648438 138.933594 190.117188 137.394531 192.25 134.0625 C 192.421875 133.792969 192.457031 133.441406 192.65625 132.804688 C 192.441406 132.167969 192.390625 131.023438 191.796875 130.402344 Z M 282.839844 170.789062 C 283.164062 166.324219 279.980469 162.171875 275.820312 161.761719 C 274.445312 161.625 273.191406 162.328125 272.632812 163.5625 C 271.253906 166.585938 273.636719 171.253906 277.46875 173.039062 C 278.292969 173.425781 279.417969 173.558594 280.296875 173.351562 C 281.167969 173.148438 281.894531 172.367188 282.566406 171.917969 C 282.695312 171.414062 282.820312 171.101562 282.847656 170.785156 Z M 248.511719 124.046875 C 246.328125 123.46875 243.527344 125.828125 244.003906 127.957031 C 244.746094 131.316406 246.246094 134.144531 249.824219 135.320312 C 251.316406 135.808594 253.414062 134.796875 253.789062 133.332031 C 254.804688 129.375 252.355469 125.0625 248.515625 124.050781 Z M 207.671875 119.46875 C 208.199219 117.664062 207.054688 115.054688 205.511719 114.539062 C 202.941406 113.679688 199.554688 115.21875 198.15625 117.875 C 197.296875 119.511719 198.136719 122.324219 199.671875 122.953125 C 202.660156 124.175781 206.824219 122.363281 207.671875 119.46875 Z M 207.671875 119.46875 " fill-opacity="1" fill-rule="nonzero"/></g></g></g></g></svg>