<svg xmlns="http://www.w3.org/2000/svg" xmlns:xlink="http://www.w3.org/1999/xlink" width="576" zoomAndPan="magnify" viewBox="0 0 432 431.999984" height="576" preserveAspectRatio="xMidYMid meet" version="1.0"><defs><clipPath id="9859232c4d"><path d="M 103 71 L 306 71 L 306 351 L 103 351 Z M 103 71 " clip-rule="nonzero"/></clipPath><clipPath id="cd8f1ba64e"><path d="M 160.5 56.800781 L 342.011719 103.816406 L 271.675781 375.355469 L 90.164062 328.339844 Z M 160.5 56.800781 " clip-rule="nonzero"/></clipPath><clipPath id="7880e76484"><path d="M 160.5 56.800781 L 342.011719 103.816406 L 271.675781 375.355469 L 90.164062 328.339844 Z M 160.5 56.800781 " clip-rule="nonzero"/></clipPath><clipPath id="7c6bfd311f"><path d="M 160.5 56.800781 L 342.011719 103.816406 L 271.675781 375.355469 L 90.164062 328.339844 Z M 160.5 56.800781 " clip-rule="nonzero"/></clipPath></defs><g clip-path="url(#9859232c4d)"><g clip-path="url(#cd8f1ba64e)"><g clip-path="url(#7880e76484)"><g clip-path="url(#7c6bfd311f)"><path fill="#000000" d="M 215.453125 161.898438 C 208.808594 148.222656 205.058594 134.40625 201.867188 120.230469 C 198.875 120.867188 196.839844 121.289062 194.804688 121.730469 C 192.753906 122.175781 190.726562 122.824219 188.652344 123.058594 C 183.757812 123.613281 181.164062 121.414062 180.898438 116.640625 C 180.75 113.921875 180.980469 111.226562 181.902344 108.644531 C 186.335938 96.285156 193.195312 85.496094 202.90625 76.597656 C 204.222656 75.386719 205.71875 74.34375 207.238281 73.394531 C 211.226562 70.902344 214.894531 70.96875 218.789062 74.109375 C 228.945312 82.304688 235.648438 92.71875 239.605469 105.019531 C 242.878906 115.199219 243.199219 125.648438 242.367188 136.195312 C 242.203125 138.285156 242.019531 140.371094 241.976562 142.464844 C 241.96875 142.964844 242.359375 143.691406 242.789062 143.941406 C 243.8125 144.546875 244.414062 143.703125 244.734375 142.925781 C 251.054688 127.835938 262.96875 118.691406 277.449219 112.378906 C 282.671875 110.105469 288.066406 108.214844 293.445312 106.332031 C 295.402344 105.644531 297.527344 105.246094 299.601562 105.113281 C 303.539062 104.863281 305.847656 107.292969 305.371094 111.273438 C 305.089844 113.625 304.382812 115.960938 303.578125 118.199219 C 300.75 126.113281 297.792969 133.976562 294.890625 141.863281 C 292.566406 148.183594 288.695312 153.472656 284.003906 158.21875 C 278.707031 163.582031 272.753906 168.136719 266.679688 172.5625 C 264.988281 173.796875 263.292969 175.058594 261.800781 176.507812 C 261.222656 177.074219 261.292969 178.320312 262.332031 178.703125 C 264.292969 179.425781 266.300781 180.050781 268.332031 180.554688 C 271.871094 181.433594 275.1875 182.820312 278.261719 184.730469 C 283.023438 187.6875 284.480469 191.984375 282.109375 197.085938 C 280.730469 200.050781 278.761719 202.761719 276.910156 205.484375 C 274.546875 208.957031 272.070312 212.351562 269.570312 215.722656 C 268.324219 217.40625 268.378906 219 269.425781 220.703125 C 270.054688 221.722656 270.625 222.785156 271.234375 223.816406 C 279.503906 237.808594 283.789062 252.957031 284.382812 269.167969 C 284.429688 270.367188 284.507812 271.566406 284.554688 272.765625 C 284.632812 274.730469 285.441406 276.140625 287.34375 276.945312 C 293.597656 279.605469 294.128906 284.828125 293.113281 290.519531 C 291.941406 297.089844 289.195312 303.109375 285.949219 308.886719 C 279.621094 320.144531 270.578125 328.785156 259.625 335.464844 C 243.324219 345.410156 225.449219 349.851562 206.472656 350.28125 C 177.574219 350.9375 151.375 342.871094 127.988281 325.851562 C 120.417969 320.34375 113.792969 313.828125 108.105469 306.382812 C 107.015625 304.953125 105.839844 303.546875 105.015625 301.96875 C 102.738281 297.589844 102.46875 292.964844 106.230469 289.503906 C 110.035156 286.003906 110.265625 282.128906 110.179688 277.40625 C 109.757812 252.699219 117.660156 230.839844 133.753906 212.046875 C 142.886719 201.371094 154.003906 193.355469 166.996094 187.960938 C 168.660156 187.269531 170.335938 186.597656 172.027344 185.988281 C 174.320312 185.167969 175.335938 183.523438 175.234375 181.164062 C 175.011719 175.988281 176.195312 171.03125 177.53125 166.09375 C 178.238281 163.46875 179.234375 161 180.929688 158.804688 C 184.757812 153.859375 189.40625 152.234375 195.21875 154.492188 C 199.398438 156.113281 203.355469 158.3125 207.433594 160.214844 C 209.574219 161.210938 211.578125 162.722656 215.453125 161.914062 Z M 172.292969 342.082031 C 182.125 344.703125 193.070312 346.328125 204.261719 346.113281 C 222.898438 345.757812 240.566406 341.785156 256.695312 332.121094 C 266.632812 326.167969 274.929688 318.492188 281.019531 308.550781 C 284.976562 302.089844 287.820312 295.1875 289.214844 287.738281 C 289.863281 284.273438 289.042969 281.835938 286.082031 281.214844 C 280.671875 280.074219 279.5 276.90625 280.066406 272.09375 C 280.277344 270.332031 280 268.503906 279.863281 266.707031 C 278.199219 244.316406 270.007812 224.789062 253.984375 208.847656 C 239.523438 194.46875 221.882812 186.738281 201.601562 185.988281 C 173.84375 184.957031 151.417969 196.351562 134.128906 217.636719 C 118.902344 236.378906 112.757812 258.300781 113.964844 282.261719 C 114.148438 285.890625 113.84375 288.3125 110.792969 290.765625 C 107.230469 293.628906 107.167969 296.3125 109.21875 300.351562 C 111.132812 304.128906 113.75 307.40625 116.667969 310.460938 C 131.804688 326.296875 150.179688 336.5 172.292969 342.089844 Z M 234.8125 161.378906 C 237.332031 150.25 238.492188 140.125 238.882812 129.929688 C 239.429688 115.800781 236.398438 102.527344 228.53125 90.5625 C 225.378906 85.769531 221.6875 81.429688 217.1875 77.859375 C 213.59375 75.011719 211.296875 75.070312 207.417969 77.765625 C 206.679688 78.28125 205.960938 78.835938 205.300781 79.441406 C 197.457031 86.636719 191.324219 95.074219 187.257812 104.917969 C 186.117188 107.667969 185.382812 110.625 184.808594 113.554688 C 183.960938 117.90625 185.898438 119.671875 190.441406 118.734375 C 193.078125 118.1875 195.664062 117.355469 198.21875 116.496094 C 205.359375 114.109375 212.101562 110.839844 218.722656 107.292969 C 220.5625 106.308594 222.46875 105.4375 224.398438 104.644531 C 224.707031 104.519531 225.539062 104.996094 225.722656 105.382812 C 225.925781 105.824219 225.890625 106.71875 225.578125 107 C 224.261719 108.199219 222.917969 109.453125 221.375 110.304688 C 217.433594 112.46875 213.371094 114.40625 209.378906 116.484375 C 206.054688 118.210938 205.671875 118.738281 206.316406 122.027344 C 209.335938 137.433594 214.035156 152.226562 222.261719 165.75 C 223.402344 167.625 224.839844 168.984375 226.699219 170.058594 C 229.738281 171.8125 232.03125 171.203125 233.042969 168.066406 C 233.871094 165.5 234.429688 162.851562 234.808594 161.382812 Z M 243.753906 156.917969 C 243.917969 156.957031 244.078125 157.007812 244.242188 157.054688 C 243.265625 160.820312 242.082031 164.550781 241.367188 168.367188 C 240.464844 173.183594 243.085938 176.332031 247.960938 177.058594 C 250.84375 177.492188 253.253906 176.558594 255.617188 175.144531 C 263.878906 170.207031 271.507812 164.433594 278.714844 158.0625 C 285.398438 152.160156 290.023438 144.988281 292.914062 136.585938 C 294.863281 130.929688 297.125 125.378906 299.132812 119.738281 C 300.035156 117.207031 300.730469 114.601562 301.363281 111.988281 C 301.714844 110.535156 300.25 109.085938 298.660156 109.242188 C 297.183594 109.382812 295.679688 109.585938 294.265625 110.015625 C 284.171875 113.078125 274.574219 117.238281 265.757812 123.082031 C 257.515625 128.546875 251.597656 135.949219 247.808594 145.007812 C 246.195312 148.867188 245.09375 152.9375 243.757812 156.914062 Z M 211.214844 174.949219 C 211.214844 174.949219 211.21875 174.941406 211.21875 174.9375 C 212.667969 175.3125 214.113281 175.726562 215.574219 176.054688 C 217.316406 176.441406 219.070312 176.921875 220.835938 177.023438 C 221.515625 177.0625 222.582031 176.292969 222.855469 175.636719 C 223.113281 175.011719 222.679688 174 222.34375 173.253906 C 222.113281 172.746094 221.578125 172.320312 221.085938 172 C 212.5 166.4375 203.078125 162.523438 193.78125 158.382812 C 190.878906 157.089844 187.949219 157.265625 185.449219 159.679688 C 183.886719 161.195312 182.835938 163.046875 182.347656 165.066406 C 181.214844 169.714844 180.207031 174.398438 179.410156 179.117188 C 178.867188 182.332031 180.03125 183.402344 183.535156 182.871094 C 194.289062 181.234375 205 181.078125 215.71875 183.167969 C 216.425781 183.308594 217.644531 183.425781 217.484375 182.042969 C 217.429688 181.535156 217.015625 180.8125 216.589844 180.644531 C 214.085938 179.667969 211.535156 178.78125 208.980469 177.941406 C 206.136719 177.003906 203.242188 176.210938 200.421875 175.210938 C 199.726562 174.964844 198.644531 174.445312 199.363281 173.25 C 199.886719 172.371094 200.777344 172.265625 201.644531 172.480469 C 204.84375 173.265625 208.027344 174.117188 211.214844 174.945312 Z M 262.183594 183.882812 L 262.273438 183.542969 C 258.746094 182.824219 255.246094 181.992188 251.695312 181.429688 C 249.378906 181.0625 245.832031 180.28125 245.144531 182.484375 C 244.273438 185.277344 247.894531 185.726562 250.003906 186.617188 C 251.375 187.203125 252.929688 187.421875 254.222656 188.132812 C 256.960938 189.636719 260.753906 189.824219 261.941406 193.363281 C 262.460938 194.902344 258.960938 194.644531 253.128906 192.167969 C 251.203125 191.347656 249.347656 190.355469 247.40625 189.566406 C 246.3125 189.125 245.121094 188.867188 243.949219 188.664062 C 242.570312 188.425781 241.621094 189.285156 241.105469 190.378906 C 240.578125 191.5 240.695312 192.769531 241.863281 193.546875 C 249.632812 198.714844 256.660156 204.726562 262.859375 211.703125 C 264 212.988281 265.515625 213.277344 266.753906 211.957031 C 271.058594 207.359375 274.890625 202.347656 277.648438 196.683594 C 279.988281 191.878906 278.671875 188.796875 273.453125 186.878906 C 269.820312 185.542969 265.945312 184.855469 262.175781 183.878906 Z M 232.617188 188.769531 C 235.121094 189.671875 236.480469 189.3125 237.757812 187.078125 C 238.476562 185.820312 239.1875 184.433594 239.414062 183.027344 C 240.222656 177.890625 235.785156 174.460938 230.964844 176.429688 C 229.886719 176.867188 228.808594 177.5 227.96875 178.296875 C 223.9375 182.113281 223.316406 185.75 229.261719 187.308594 C 230.394531 187.601562 231.433594 188.246094 232.621094 188.769531 Z M 203.589844 258.75 C 206.863281 259.535156 208.597656 260.601562 209.414062 262.75 C 210.191406 264.796875 209.300781 266.90625 206.789062 268.851562 C 205.847656 269.578125 204.753906 270.109375 203.71875 270.707031 C 202.253906 271.550781 201.679688 272.867188 201.886719 274.464844 C 202.378906 278.1875 201.375 282.199219 204.003906 285.511719 C 209.003906 285.328125 210.628906 281.070312 213.109375 277.894531 C 213.828125 276.964844 214.160156 275.746094 214.785156 274.730469 C 215.640625 273.347656 216.023438 270.722656 218.386719 272.007812 C 219.820312 272.789062 218.921875 274.71875 218.308594 276.070312 C 217.566406 277.703125 216.800781 279.332031 215.914062 280.894531 C 214.792969 282.863281 214.730469 284.835938 215.445312 286.9375 C 216.023438 288.632812 216.386719 290.40625 216.992188 292.09375 C 218.804688 297.140625 218.628906 300.929688 212.96875 303.976562 C 210.0625 305.535156 208.289062 309.144531 204.242188 309.410156 C 201.503906 309.589844 199.464844 308.734375 198.292969 306.371094 C 197.238281 304.242188 196.238281 301.996094 195.757812 299.683594 C 194.859375 295.386719 192.96875 292.667969 188.121094 292.519531 C 185.765625 292.449219 183.390625 291.570312 181.550781 289.910156 C 180.964844 289.378906 180.355469 288.421875 180.421875 287.726562 C 180.515625 286.742188 181.644531 286.507812 182.523438 286.703125 C 184.863281 287.21875 187.167969 287.890625 189.496094 288.441406 C 191.542969 288.925781 193.605469 289.242188 195.710938 288.710938 C 197.308594 288.3125 198.480469 287.488281 198.488281 285.726562 C 198.503906 283.335938 198.3125 280.945312 198.308594 278.558594 C 198.296875 274.558594 197.316406 271.464844 192.460938 271.339844 C 191.648438 271.316406 190.804688 270.691406 190.058594 270.222656 C 187.09375 268.351562 186.828125 264.964844 189.457031 262.71875 C 193.914062 258.917969 199.300781 258.894531 203.585938 258.75 Z M 202.179688 292.359375 C 200.746094 292.066406 198.511719 293.125 198.535156 294.191406 C 198.621094 298.113281 199.496094 301.824219 202.339844 304.722656 C 202.824219 305.214844 204.027344 305.1875 204.867188 305.105469 C 205.820312 305.003906 206.46875 304.144531 206.402344 303.253906 C 206.160156 299.984375 205.488281 296.789062 204.15625 293.777344 C 203.800781 292.980469 203.242188 292.234375 202.179688 292.359375 Z M 213.671875 298.285156 C 213.8125 298.023438 214.0625 297.765625 214.074219 297.496094 C 214.25 294.460938 213.519531 291.644531 211.769531 289.152344 C 211.503906 288.773438 210.636719 288.449219 210.25 288.605469 C 209.5 288.898438 208.464844 289.449219 208.3125 290.078125 C 207.5 293.425781 208.414062 296.449219 210.605469 299.078125 C 211.136719 299.722656 213.332031 299.113281 213.667969 298.28125 Z M 166.398438 251.890625 C 163.457031 250.601562 163.511719 253.878906 162.566406 255.460938 C 161.957031 256.484375 161.609375 257.664062 160.984375 258.671875 C 159.03125 261.808594 155.652344 261.839844 153.890625 258.605469 C 152.753906 256.53125 152.0625 254.207031 151.171875 252.003906 C 150.808594 251.105469 150.007812 250.382812 149.21875 250.785156 C 148.582031 251.105469 147.9375 252.246094 148.003906 252.949219 C 148.214844 255.003906 148.511719 257.128906 149.257812 259.035156 C 150.609375 262.5 152.742188 265.617188 156.871094 265.730469 C 161.257812 265.855469 163.945312 263 165.773438 259.289062 C 166.167969 258.488281 166.417969 257.617188 166.722656 256.8125 C 166.996094 255.078125 168.296875 252.726562 166.398438 251.890625 Z M 250.816406 253.9375 C 250.828125 252.734375 250.675781 251.339844 249.117188 251.347656 C 248.496094 251.347656 247.605469 252.222656 247.304688 252.902344 C 246.464844 254.796875 246.066406 256.902344 245.128906 258.738281 C 243.785156 261.375 240.320312 261.925781 238.332031 259.8125 C 237.136719 258.535156 236.402344 256.835938 235.382812 255.375 C 234.886719 254.667969 234.214844 253.855469 233.261719 254.75 C 232.875 255.109375 232.5 255.777344 232.542969 256.265625 C 232.984375 260.976562 235.960938 264.632812 239.832031 265.359375 C 243.773438 266.101562 247.742188 263.597656 249.609375 259.152344 C 249.957031 258.328125 250.164062 257.449219 250.457031 256.503906 C 250.578125 255.707031 250.804688 254.824219 250.8125 253.9375 Z M 250.816406 253.9375 " fill-opacity="1" fill-rule="nonzero"/></g></g></g></g></svg>