<svg xmlns="http://www.w3.org/2000/svg" xmlns:xlink="http://www.w3.org/1999/xlink" width="576" zoomAndPan="magnify" viewBox="0 0 432 431.999984" height="576" preserveAspectRatio="xMidYMid meet" version="1.0"><defs><clipPath id="ecd2e10cf3"><path d="M 103 71 L 306 71 L 306 351 L 103 351 Z M 103 71 " clip-rule="nonzero"/></clipPath><clipPath id="181b92ba20"><path d="M 160.5 56.800781 L 342.011719 103.816406 L 271.675781 375.355469 L 90.164062 328.339844 Z M 160.5 56.800781 " clip-rule="nonzero"/></clipPath><clipPath id="9f4075674e"><path d="M 160.5 56.800781 L 342.011719 103.816406 L 271.675781 375.355469 L 90.164062 328.339844 Z M 160.5 56.800781 " clip-rule="nonzero"/></clipPath></defs><g clip-path="url(#ecd2e10cf3)"><g clip-path="url(#181b92ba20)"><g clip-path="url(#9f4075674e)"><path fill="#ffffff" d="M 215.371094 161.839844 C 208.738281 148.171875 204.992188 134.359375 201.808594 120.195312 C 198.816406 120.828125 196.785156 121.253906 194.753906 121.695312 C 192.707031 122.140625 190.679688 122.789062 188.605469 123.023438 C 183.71875 123.578125 181.128906 121.378906 180.863281 116.605469 C 180.714844 113.890625 180.945312 111.195312 181.871094 108.617188 C 186.296875 96.261719 193.152344 85.476562 202.855469 76.578125 C 204.171875 75.371094 205.664062 74.328125 207.183594 73.378906 C 211.167969 70.886719 214.828125 70.949219 218.71875 74.089844 C 228.863281 82.28125 235.554688 92.6875 239.507812 104.980469 C 242.777344 115.15625 243.09375 125.601562 242.257812 136.144531 C 242.09375 138.230469 241.914062 140.316406 241.871094 142.410156 C 241.859375 142.910156 242.25 143.632812 242.679688 143.886719 C 243.699219 144.488281 244.300781 143.648438 244.625 142.867188 C 250.9375 127.785156 262.84375 118.644531 277.308594 112.332031 C 282.523438 110.058594 287.910156 108.167969 293.285156 106.285156 C 295.238281 105.597656 297.363281 105.195312 299.433594 105.0625 C 303.367188 104.8125 305.675781 107.242188 305.199219 111.222656 C 304.914062 113.570312 304.210938 115.90625 303.402344 118.144531 C 300.574219 126.054688 297.621094 133.914062 294.722656 141.796875 C 292.398438 148.113281 288.53125 153.402344 283.84375 158.148438 C 278.554688 163.507812 272.601562 168.066406 266.535156 172.492188 C 264.847656 173.722656 263.152344 174.984375 261.664062 176.433594 C 261.085938 177 261.15625 178.242188 262.195312 178.628906 C 264.152344 179.347656 266.15625 179.972656 268.1875 180.476562 C 271.71875 181.355469 275.03125 182.742188 278.101562 184.648438 C 282.859375 187.605469 284.316406 191.898438 281.945312 197 C 280.566406 199.960938 278.601562 202.671875 276.75 205.394531 C 274.390625 208.863281 271.914062 212.257812 269.417969 215.628906 C 268.171875 217.3125 268.222656 218.902344 269.269531 220.605469 C 269.898438 221.625 270.46875 222.6875 271.078125 223.71875 C 279.335938 237.703125 283.613281 252.84375 284.203125 269.046875 C 284.246094 270.246094 284.324219 271.441406 284.375 272.640625 C 284.449219 274.605469 285.257812 276.011719 287.160156 276.820312 C 293.402344 279.476562 293.933594 284.699219 292.917969 290.386719 C 291.746094 296.953125 289.003906 302.972656 285.757812 308.746094 C 279.433594 320 270.402344 328.640625 259.460938 335.316406 C 243.175781 345.257812 225.320312 349.703125 206.367188 350.136719 C 177.5 350.796875 151.332031 342.742188 127.976562 325.730469 C 120.414062 320.226562 113.796875 313.71875 108.121094 306.273438 C 107.03125 304.847656 105.855469 303.441406 105.03125 301.863281 C 102.761719 297.488281 102.488281 292.867188 106.25 289.40625 C 110.050781 285.90625 110.28125 282.035156 110.199219 277.3125 C 109.78125 252.617188 117.675781 230.769531 133.753906 211.976562 C 142.882812 201.308594 153.988281 193.292969 166.964844 187.898438 C 168.628906 187.207031 170.300781 186.535156 171.992188 185.925781 C 174.28125 185.105469 175.296875 183.460938 175.191406 181.101562 C 174.972656 175.929688 176.15625 170.972656 177.488281 166.039062 C 178.199219 163.414062 179.191406 160.949219 180.890625 158.753906 C 184.710938 153.808594 189.355469 152.183594 195.160156 154.4375 C 199.335938 156.058594 203.289062 158.257812 207.363281 160.15625 C 209.496094 161.15625 211.5 162.664062 215.371094 161.855469 Z M 172.226562 341.949219 C 182.046875 344.566406 192.980469 346.1875 204.160156 345.972656 C 222.773438 345.613281 240.421875 341.640625 256.535156 331.976562 C 266.460938 326.023438 274.75 318.351562 280.835938 308.414062 C 284.789062 301.953125 287.632812 295.054688 289.023438 287.605469 C 289.671875 284.140625 288.855469 281.707031 285.898438 281.085938 C 280.496094 279.949219 279.324219 276.78125 279.890625 271.972656 C 280.101562 270.210938 279.824219 268.382812 279.6875 266.589844 C 278.03125 244.207031 269.851562 224.691406 253.851562 208.761719 C 239.410156 194.390625 221.785156 186.667969 201.53125 185.921875 C 173.804688 184.894531 151.402344 196.289062 134.128906 217.566406 C 118.914062 236.304688 112.773438 258.214844 113.976562 282.164062 C 114.160156 285.789062 113.851562 288.214844 110.808594 290.664062 C 107.246094 293.527344 107.183594 296.210938 109.230469 300.246094 C 111.144531 304.023438 113.757812 307.300781 116.671875 310.351562 C 131.789062 326.175781 150.136719 336.371094 172.226562 341.953125 Z M 234.710938 161.316406 C 237.226562 150.195312 238.386719 140.070312 238.78125 129.882812 C 239.328125 115.757812 236.300781 102.492188 228.449219 90.53125 C 225.300781 85.742188 221.613281 81.40625 217.117188 77.839844 C 213.53125 74.992188 211.238281 75.050781 207.359375 77.75 C 206.625 78.261719 205.90625 78.820312 205.246094 79.425781 C 197.40625 86.617188 191.28125 95.050781 187.21875 104.890625 C 186.078125 107.636719 185.34375 110.59375 184.769531 113.523438 C 183.921875 117.871094 185.859375 119.636719 190.394531 118.699219 C 193.027344 118.152344 195.609375 117.320312 198.167969 116.464844 C 205.296875 114.074219 212.035156 110.804688 218.648438 107.257812 C 220.484375 106.273438 222.390625 105.402344 224.316406 104.613281 C 224.625 104.484375 225.457031 104.960938 225.636719 105.347656 C 225.839844 105.789062 225.804688 106.683594 225.496094 106.964844 C 224.179688 108.164062 222.835938 109.414062 221.296875 110.265625 C 217.359375 112.433594 213.300781 114.371094 209.3125 116.445312 C 205.992188 118.175781 205.609375 118.703125 206.253906 121.988281 C 209.265625 137.386719 213.957031 152.171875 222.171875 165.6875 C 223.308594 167.5625 224.746094 168.921875 226.601562 169.992188 C 229.636719 171.746094 231.929688 171.136719 232.941406 168 C 233.769531 165.4375 234.324219 162.789062 234.703125 161.320312 Z M 243.640625 156.855469 C 243.804688 156.894531 243.964844 156.945312 244.128906 156.992188 C 243.152344 160.757812 241.96875 164.484375 241.253906 168.300781 C 240.351562 173.113281 242.972656 176.257812 247.839844 176.988281 C 250.714844 177.417969 253.125 176.484375 255.488281 175.070312 C 263.738281 170.136719 271.363281 164.363281 278.5625 157.992188 C 285.238281 152.089844 289.859375 144.925781 292.75 136.523438 C 294.695312 130.867188 296.957031 125.320312 298.964844 119.683594 C 299.863281 117.15625 300.5625 114.546875 301.191406 111.9375 C 301.542969 110.484375 300.082031 109.035156 298.496094 109.191406 C 297.019531 109.332031 295.515625 109.535156 294.101562 109.964844 C 284.019531 113.027344 274.433594 117.191406 265.625 123.03125 C 257.390625 128.496094 251.476562 135.894531 247.695312 144.949219 C 246.082031 148.808594 244.976562 152.878906 243.644531 156.851562 Z M 211.136719 174.882812 C 211.136719 174.882812 211.136719 174.875 211.140625 174.871094 C 212.585938 175.246094 214.027344 175.664062 215.488281 175.988281 C 217.230469 176.375 218.980469 176.855469 220.746094 176.953125 C 221.421875 176.992188 222.492188 176.226562 222.761719 175.570312 C 223.019531 174.945312 222.585938 173.933594 222.25 173.1875 C 222.023438 172.683594 221.484375 172.253906 220.996094 171.933594 C 212.417969 166.378906 203.011719 162.464844 193.726562 158.332031 C 190.824219 157.039062 187.898438 157.214844 185.402344 159.628906 C 183.839844 161.140625 182.789062 162.992188 182.300781 165.011719 C 181.171875 169.65625 180.160156 174.339844 179.367188 179.054688 C 178.820312 182.269531 179.984375 183.339844 183.484375 182.808594 C 194.230469 181.171875 204.925781 181.011719 215.628906 183.097656 C 216.335938 183.238281 217.554688 183.355469 217.398438 181.972656 C 217.339844 181.46875 216.929688 180.742188 216.5 180.578125 C 214 179.601562 211.457031 178.714844 208.902344 177.875 C 206.0625 176.941406 203.171875 176.148438 200.355469 175.148438 C 199.660156 174.902344 198.578125 174.386719 199.296875 173.1875 C 199.820312 172.3125 200.710938 172.203125 201.578125 172.417969 C 204.769531 173.203125 207.953125 174.054688 211.136719 174.878906 Z M 262.046875 183.804688 L 262.132812 183.464844 C 258.609375 182.746094 255.113281 181.914062 251.566406 181.355469 C 249.253906 180.988281 245.710938 180.207031 245.023438 182.410156 C 244.152344 185.203125 247.769531 185.648438 249.875 186.542969 C 251.25 187.125 252.800781 187.34375 254.09375 188.054688 C 256.828125 189.558594 260.613281 189.742188 261.800781 193.28125 C 262.320312 194.820312 258.824219 194.558594 253 192.085938 C 251.074219 191.269531 249.21875 190.277344 247.28125 189.488281 C 246.1875 189.046875 245 188.792969 243.828125 188.585938 C 242.453125 188.347656 241.503906 189.207031 240.992188 190.300781 C 240.460938 191.425781 240.578125 192.691406 241.746094 193.46875 C 249.503906 198.632812 256.523438 204.640625 262.714844 211.613281 C 263.851562 212.894531 265.367188 213.183594 266.605469 211.867188 C 270.90625 207.265625 274.730469 202.261719 277.488281 196.597656 C 279.828125 191.792969 278.515625 188.710938 273.300781 186.796875 C 269.671875 185.464844 265.800781 184.777344 262.039062 183.800781 Z M 232.511719 188.695312 C 235.011719 189.59375 236.371094 189.234375 237.648438 187.003906 C 238.367188 185.746094 239.074219 184.359375 239.300781 182.953125 C 240.109375 177.816406 235.679688 174.390625 230.859375 176.359375 C 229.785156 176.800781 228.707031 177.429688 227.871094 178.226562 C 223.84375 182.042969 223.21875 185.679688 229.15625 187.234375 C 230.289062 187.527344 231.328125 188.171875 232.511719 188.695312 Z M 203.503906 258.648438 C 206.773438 259.429688 208.503906 260.496094 209.320312 262.644531 C 210.097656 264.691406 209.207031 266.796875 206.695312 268.742188 C 205.753906 269.472656 204.664062 270.003906 203.628906 270.597656 C 202.164062 271.445312 201.589844 272.757812 201.796875 274.355469 C 202.289062 278.078125 201.285156 282.085938 203.914062 285.398438 C 208.90625 285.210938 210.53125 280.957031 213.007812 277.78125 C 213.726562 276.851562 214.058594 275.632812 214.683594 274.621094 C 215.535156 273.238281 215.921875 270.613281 218.28125 271.898438 C 219.710938 272.675781 218.8125 274.605469 218.199219 275.957031 C 217.460938 277.589844 216.695312 279.21875 215.808594 280.78125 C 214.6875 282.75 214.625 284.71875 215.339844 286.816406 C 215.917969 288.511719 216.277344 290.285156 216.882812 291.972656 C 218.695312 297.015625 218.515625 300.804688 212.859375 303.851562 C 209.960938 305.410156 208.1875 309.019531 204.144531 309.285156 C 201.410156 309.464844 199.375 308.609375 198.203125 306.246094 C 197.152344 304.117188 196.152344 301.875 195.671875 299.566406 C 194.777344 295.269531 192.890625 292.550781 188.046875 292.40625 C 185.695312 292.335938 183.324219 291.457031 181.480469 289.796875 C 180.898438 289.265625 180.292969 288.3125 180.355469 287.613281 C 180.449219 286.632812 181.578125 286.398438 182.457031 286.589844 C 184.792969 287.105469 187.09375 287.777344 189.421875 288.328125 C 191.464844 288.8125 193.523438 289.128906 195.628906 288.597656 C 197.222656 288.195312 198.394531 287.371094 198.402344 285.609375 C 198.417969 283.222656 198.226562 280.832031 198.222656 278.445312 C 198.214844 274.449219 197.234375 271.355469 192.382812 271.234375 C 191.574219 271.210938 190.730469 270.585938 189.984375 270.117188 C 187.023438 268.246094 186.761719 264.863281 189.386719 262.617188 C 193.839844 258.816406 199.21875 258.792969 203.5 258.648438 Z M 202.085938 292.242188 C 200.660156 291.949219 198.425781 293.007812 198.445312 294.074219 C 198.535156 297.996094 199.40625 301.703125 202.246094 304.597656 C 202.730469 305.089844 203.929688 305.066406 204.769531 304.980469 C 205.722656 304.878906 206.367188 304.023438 206.304688 303.132812 C 206.0625 299.863281 205.390625 296.667969 204.0625 293.660156 C 203.710938 292.859375 203.148438 292.117188 202.085938 292.242188 Z M 213.566406 298.160156 C 213.707031 297.902344 213.953125 297.644531 213.96875 297.375 C 214.144531 294.339844 213.414062 291.527344 211.667969 289.035156 C 211.402344 288.65625 210.535156 288.332031 210.148438 288.488281 C 209.402344 288.78125 208.367188 289.332031 208.214844 289.960938 C 207.402344 293.308594 208.316406 296.328125 210.5 298.957031 C 211.035156 299.597656 213.226562 298.992188 213.5625 298.160156 Z M 166.355469 251.800781 C 163.417969 250.511719 163.472656 253.785156 162.527344 255.367188 C 161.917969 256.390625 161.570312 257.570312 160.945312 258.578125 C 158.992188 261.714844 155.621094 261.742188 153.859375 258.515625 C 152.726562 256.4375 152.035156 254.117188 151.144531 251.914062 C 150.78125 251.015625 149.980469 250.296875 149.195312 250.699219 C 148.558594 251.019531 147.914062 252.15625 147.984375 252.863281 C 148.191406 254.914062 148.488281 257.039062 149.234375 258.941406 C 150.582031 262.40625 152.714844 265.519531 156.835938 265.632812 C 161.21875 265.757812 163.902344 262.902344 165.730469 259.191406 C 166.125 258.394531 166.375 257.523438 166.675781 256.714844 C 166.953125 254.984375 168.253906 252.632812 166.355469 251.800781 Z M 250.675781 253.828125 C 250.691406 252.625 250.535156 251.230469 248.980469 251.238281 C 248.359375 251.242188 247.472656 252.117188 247.167969 252.796875 C 246.332031 254.691406 245.929688 256.792969 244.996094 258.628906 C 243.652344 261.265625 240.191406 261.816406 238.207031 259.703125 C 237.011719 258.429688 236.277344 256.726562 235.261719 255.269531 C 234.765625 254.558594 234.09375 253.75 233.144531 254.640625 C 232.757812 255.003906 232.378906 255.671875 232.425781 256.160156 C 232.867188 260.867188 235.835938 264.519531 239.703125 265.25 C 243.636719 265.988281 247.601562 263.484375 249.472656 259.042969 C 249.816406 258.21875 250.023438 257.339844 250.320312 256.394531 C 250.4375 255.597656 250.664062 254.714844 250.671875 253.828125 Z M 250.675781 253.828125 " fill-opacity="1" fill-rule="nonzero"/></g></g></g></svg>