<svg xmlns="http://www.w3.org/2000/svg" xmlns:xlink="http://www.w3.org/1999/xlink" width="576" zoomAndPan="magnify" viewBox="0 0 432 431.999984" height="576" preserveAspectRatio="xMidYMid meet" version="1.0"><defs><clipPath id="7b1db27837"><path d="M 81 92 L 337 92 L 337 335 L 81 335 Z M 81 92 " clip-rule="nonzero"/></clipPath><clipPath id="19215c32bb"><path d="M 106.566406 79.273438 L 356.546875 111.125 L 325.738281 352.917969 L 75.757812 321.066406 Z M 106.566406 79.273438 " clip-rule="nonzero"/></clipPath><clipPath id="4a0a7f016e"><path d="M 106.566406 79.273438 L 356.546875 111.125 L 325.738281 352.917969 L 75.757812 321.066406 Z M 106.566406 79.273438 " clip-rule="nonzero"/></clipPath></defs><g clip-path="url(#7b1db27837)"><g clip-path="url(#19215c32bb)"><g clip-path="url(#4a0a7f016e)"><path fill="#ffffff" d="M 208.636719 107.316406 C 210.613281 108.253906 212.070312 106.972656 213.636719 106.3125 C 215.816406 105.390625 218.007812 104.621094 220.425781 104.589844 C 226.390625 104.507812 229.03125 108.578125 226.308594 113.980469 C 224.429688 117.707031 221.484375 120.609375 218.3125 123.300781 C 216.097656 125.175781 213.21875 126.261719 211.484375 128.964844 C 212.578125 131.429688 214.925781 130.710938 216.761719 130.875 C 228.273438 131.890625 239.402344 134.253906 250.007812 139.046875 C 284.84375 154.789062 307.097656 189.6875 306.296875 227.707031 C 306.222656 231.226562 305.871094 234.777344 305.226562 238.234375 C 304.578125 241.730469 305.113281 244.429688 307.933594 246.886719 C 312.621094 250.976562 316.441406 255.859375 319.355469 261.375 C 320.589844 263.703125 322.324219 264.761719 324.949219 264.929688 C 328.453125 265.152344 331.945312 265.660156 335.429688 266.15625 C 335.78125 266.203125 336.261719 266.980469 336.257812 267.414062 C 336.25 267.800781 335.679688 268.480469 335.316406 268.511719 C 332.097656 268.773438 328.859375 268.859375 325.640625 269.121094 C 323.941406 269.257812 323.035156 270.292969 323.164062 272.066406 C 323.230469 272.945312 323.457031 273.835938 323.382812 274.703125 C 323.109375 278.03125 324.234375 280.332031 327.625 281.394531 C 329 281.824219 330.261719 282.679688 331.476562 283.488281 C 331.855469 283.738281 332.152344 284.53125 332.039062 284.964844 C 331.953125 285.324219 331.164062 285.808594 330.769531 285.746094 C 329.042969 285.464844 327.292969 285.140625 325.644531 284.574219 C 323.253906 283.75 321.703125 284.542969 320.527344 286.625 C 319.949219 287.644531 319.152344 288.542969 318.566406 289.558594 C 317.121094 292.074219 313.421875 293.34375 313.566406 296.457031 C 313.679688 298.925781 315.386719 301.324219 316.371094 303.761719 C 316.476562 304.023438 316.566406 304.371094 316.484375 304.617188 C 316.316406 305.140625 316.148438 305.820312 315.75 306.070312 C 315.40625 306.285156 314.613281 306.171875 314.246094 305.894531 C 311.71875 303.988281 311.445312 299.355469 307.691406 299.328125 C 304.90625 299.308594 302.148438 301.113281 299.300781 301.75 C 295.585938 302.578125 291.8125 303.449219 288.035156 303.613281 C 279.898438 303.96875 280.695312 305.105469 278.6875 311.574219 C 277.203125 316.347656 276.070312 321.226562 274.523438 325.976562 C 273.804688 328.179688 272.691406 330.328125 271.394531 332.253906 C 269.066406 335.707031 265.507812 335.503906 263.898438 331.773438 C 262.621094 328.824219 261.660156 325.695312 260.9375 322.5625 C 259.421875 315.972656 258.207031 309.3125 256.757812 302.707031 C 256.152344 299.949219 250.019531 296.953125 247.425781 298.160156 C 246.4375 298.617188 245.523438 299.578125 244.964844 300.535156 C 240.632812 307.992188 233.292969 310.140625 225.589844 311.179688 C 221.257812 311.765625 216.714844 311.769531 212.394531 311.164062 C 206.296875 310.300781 200.222656 308.933594 194.304688 307.21875 C 188.1875 305.445312 183.054688 302.09375 180.773438 295.609375 C 180.484375 294.800781 179.972656 294.03125 179.402344 293.375 C 179.058594 292.980469 178.328125 292.542969 177.925781 292.65625 C 177.144531 292.882812 176.066406 293.339844 175.832031 293.964844 C 175.234375 295.59375 175.03125 297.371094 174.652344 299.085938 C 173.074219 306.273438 171.644531 313.496094 169.839844 320.617188 C 169.054688 323.710938 167.699219 326.714844 166.210938 329.5625 C 164.9375 332.003906 161.957031 331.878906 160.546875 329.382812 C 159.25 327.09375 158.144531 324.664062 157.269531 322.183594 C 155.3125 316.636719 153.601562 311.003906 151.703125 305.4375 C 150.4375 301.726562 149.785156 301.320312 145.957031 301.574219 C 144.199219 301.691406 142.441406 302.242188 140.707031 302.171875 C 136.792969 302.011719 134.621094 303.539062 134.210938 307.589844 C 134.066406 308.980469 133.308594 310.335938 132.660156 311.617188 C 132.5 311.9375 131.691406 311.988281 131.164062 312.03125 C 131.027344 312.039062 130.761719 311.589844 130.710938 311.320312 C 130.601562 310.753906 130.53125 310.164062 130.558594 309.589844 C 130.890625 302.449219 130.5625 302.09375 124.203125 301.035156 C 121.480469 300.582031 119.667969 301.394531 118.445312 303.851562 C 117.664062 305.425781 116.765625 306.957031 115.777344 308.414062 C 115.160156 309.328125 114.589844 310.398438 113.171875 310.449219 C 112.140625 310.484375 112.035156 308.839844 112.902344 306.765625 C 113.90625 304.347656 116.070312 302.070312 115.566406 299.453125 C 115.042969 296.765625 111.835938 295.960938 109.980469 294.136719 C 109.347656 293.519531 108.621094 292.988281 108.054688 292.324219 C 106.25 290.203125 104.1875 290.007812 101.730469 291.132812 C 99.070312 292.355469 96.339844 293.433594 93.597656 294.457031 C 93.253906 294.582031 92.441406 294.109375 92.230469 293.710938 C 92.03125 293.34375 92.167969 292.40625 92.46875 292.222656 C 94.972656 290.699219 97.53125 289.269531 100.097656 287.855469 C 101.863281 286.886719 102.652344 285.507812 102.128906 283.503906 C 101.984375 282.9375 101.757812 282.386719 101.566406 281.832031 C 98.402344 272.675781 101.261719 272.832031 89.65625 273.765625 C 87.023438 273.972656 83.992188 275.738281 81.960938 272.371094 C 83.890625 270.074219 86.757812 270.84375 89.191406 270.242188 C 90.890625 269.820312 92.683594 269.773438 94.433594 269.597656 C 97.359375 269.300781 99.230469 268.171875 99.699219 264.847656 C 101.207031 254.191406 107.265625 246.578125 116.273438 241.089844 C 117.28125 240.476562 118.300781 239.890625 119.304688 239.277344 C 120.964844 238.269531 121.664062 236.863281 121.484375 234.855469 C 121.085938 230.460938 120.757812 226.066406 120.566406 221.660156 C 119.132812 188.914062 138.625 151.816406 176.988281 136.851562 C 179.984375 135.683594 183.480469 135.054688 185.792969 133.0625 C 188.375 130.851562 186.734375 126.917969 187.253906 123.773438 C 188.566406 115.871094 190.660156 108.265625 194.773438 101.324219 C 196.589844 98.257812 198.730469 95.484375 201.789062 93.519531 C 203.65625 92.320312 205.625 91.894531 207.578125 93.105469 C 209.253906 94.148438 209.441406 95.929688 209.445312 97.773438 C 209.449219 100.980469 207.722656 104.050781 208.636719 107.296875 Z M 271.753906 298.515625 C 274.382812 298.847656 277 299.34375 279.640625 299.488281 C 287.351562 299.914062 294.917969 299.136719 302.15625 296.242188 C 305.269531 294.996094 305.511719 294.28125 304.214844 290.894531 C 303.636719 289.378906 301.65625 287.621094 303.925781 286.394531 C 305.238281 285.683594 306.324219 287.636719 307.273438 288.722656 C 307.46875 288.941406 307.640625 289.1875 307.859375 289.382812 C 309.972656 291.257812 311.164062 291.273438 313.0625 289.242188 C 314.84375 287.335938 317.203125 285.480469 316.570312 282.527344 C 316.058594 280.136719 313.296875 280.410156 311.570312 279.449219 C 311.3125 279.308594 310.972656 279.171875 310.867188 278.941406 C 310.640625 278.441406 310.320312 277.816406 310.457031 277.371094 C 310.578125 276.964844 311.261719 276.46875 311.6875 276.472656 C 312.847656 276.484375 314.003906 276.808594 315.167969 276.898438 C 318.222656 277.125 319.402344 275.726562 318.828125 272.738281 C 318.332031 270.152344 317.105469 268.421875 314.238281 268.273438 C 313.078125 268.214844 311.605469 268.066406 311.324219 266.839844 C 310.996094 265.417969 312.449219 265.007812 313.546875 264.625 C 314.535156 264.277344 315.050781 263.519531 314.707031 262.621094 C 314.191406 261.273438 313.570312 259.890625 312.6875 258.753906 C 301.796875 244.6875 288.128906 235.253906 269.976562 233.367188 C 266.761719 233.03125 263.546875 232.664062 260.355469 232.175781 C 259.535156 232.046875 258.59375 231.304688 258.90625 230.34375 C 259.128906 229.660156 260 228.765625 260.648438 228.710938 C 268.0625 228.074219 275.292969 229.171875 282.375 231.375 C 287.75 233.050781 292.597656 235.828125 297.488281 238.554688 C 300.316406 240.125 301.714844 239.324219 302.277344 236.011719 C 303.269531 230.15625 303.054688 224.230469 302.609375 218.386719 C 298.007812 158.730469 235.707031 118.929688 179.648438 139.734375 C 144.535156 152.761719 122.324219 186.199219 124.027344 223.570312 C 124.160156 226.492188 124.691406 229.417969 125.296875 232.285156 C 125.890625 235.097656 126.980469 235.769531 129.621094 235.34375 C 131.65625 235.011719 133.65625 234.519531 135.683594 234.160156 C 143.898438 232.707031 152.085938 233.015625 160.253906 234.566406 C 162.902344 235.070312 165.402344 235.84375 167.234375 237.976562 C 167.363281 238.125 167.238281 238.558594 167.140625 238.828125 C 167.058594 239.050781 166.855469 239.386719 166.683594 239.398438 C 165.832031 239.464844 164.871094 239.695312 164.125 239.410156 C 157.054688 236.695312 149.691406 236.65625 142.332031 237.089844 C 132.144531 237.6875 122.652344 240.53125 114.398438 246.785156 C 108.796875 251.027344 104.984375 256.441406 103.722656 263.480469 C 103.207031 266.363281 103.578125 266.976562 106.988281 268.253906 C 107.78125 268.554688 108.785156 268.671875 108.757812 269.671875 C 108.730469 270.625 107.789062 270.957031 106.980469 271.386719 C 103.316406 273.332031 103.179688 273.5625 103.878906 276.421875 C 104.230469 277.84375 104.667969 279.257812 105.222656 280.613281 C 106.214844 283.042969 107.542969 283.503906 110.128906 282.738281 C 112.285156 282.105469 113.984375 279.8125 116.625 280.90625 C 117.167969 284.554688 113.5 284.328125 111.878906 285.964844 C 110.296875 287.566406 110 288.867188 111.644531 290.382812 C 112.929688 291.570312 114.363281 292.609375 115.792969 293.628906 C 117.210938 294.644531 118.582031 294.363281 119.6875 293.09375 C 120.640625 291.988281 121.425781 290.730469 122.414062 289.660156 C 122.6875 289.367188 123.566406 289.304688 123.921875 289.527344 C 124.273438 289.75 124.511719 290.496094 124.449219 290.960938 C 124.292969 292.121094 123.785156 293.242188 123.710938 294.398438 C 123.660156 295.191406 123.832031 296.335938 124.355469 296.773438 C 126.03125 298.15625 128.1875 298.136719 130.242188 298.082031 C 131.976562 298.035156 132.480469 296.597656 133.261719 295.316406 C 134.8125 292.773438 135.339844 292.734375 136.191406 295.296875 C 136.886719 297.378906 137.957031 298.082031 139.925781 298.152344 C 145.015625 298.328125 149.867188 297.039062 154.625 295.535156 C 162.480469 293.058594 170.183594 290.089844 178.074219 287.746094 C 199.050781 281.515625 219.816406 282.089844 240.347656 289.996094 C 250.507812 293.914062 260.828125 297.382812 271.757812 298.515625 Z M 209.824219 306.679688 C 212.4375 307.015625 215.042969 307.460938 217.667969 307.660156 C 223.3125 308.089844 228.710938 306.921875 233.984375 304.960938 C 237.148438 303.785156 239.511719 301.753906 241.125 298.800781 C 242.070312 297.066406 241.570312 295.359375 239.734375 294.414062 C 238.957031 294.011719 238.109375 293.757812 237.296875 293.421875 C 221.636719 286.941406 205.417969 286.722656 188.976562 289.148438 C 183.011719 290.027344 182.378906 291.992188 185.863281 297.492188 C 187.644531 300.308594 190.523438 301.800781 193.613281 302.957031 C 198.859375 304.914062 204.253906 306.179688 209.824219 306.679688 Z M 169.417969 305.339844 C 169.042969 302.957031 172.609375 298.804688 170.054688 296.351562 C 166.980469 293.398438 163.105469 297.4375 159.507812 298.050781 C 158.65625 298.191406 157.867188 298.683594 157.035156 298.984375 C 155.035156 299.710938 154.265625 301.230469 154.824219 303.152344 C 156.21875 307.949219 157.753906 312.710938 159.3125 317.457031 C 159.953125 319.410156 160.746094 321.320312 161.597656 323.1875 C 161.953125 323.960938 162.667969 324.851562 163.625 324.472656 C 164.292969 324.207031 164.941406 323.421875 165.222656 322.71875 C 167.300781 317.492188 168.367188 312 169.414062 305.34375 Z M 267.605469 302.539062 C 266.738281 302.429688 265.871094 302.300781 265.003906 302.207031 C 261.761719 301.878906 260.605469 302.890625 261.269531 306.1875 C 262.585938 312.75 264.191406 319.25 265.707031 325.773438 C 265.972656 326.921875 266.445312 328.035156 267.75 328.34375 C 269.347656 328.71875 269.742188 327.316406 270.070312 326.347656 C 271.5625 321.9375 273 317.507812 274.277344 313.035156 C 276.824219 304.113281 276.683594 303.957031 267.609375 302.539062 Z M 198.960938 128.980469 C 199.246094 129.046875 199.585938 129.242188 199.816406 129.152344 C 208.734375 125.789062 216.816406 121.238281 222.328125 113.097656 C 222.488281 112.855469 222.601562 112.574219 222.703125 112.300781 C 223.113281 111.183594 223.539062 109.949219 222.445312 109.082031 C 221.824219 108.589844 220.792969 108.210938 220.054688 108.355469 C 218.339844 108.683594 216.585938 109.140625 215.042969 109.933594 C 208.609375 113.230469 203.636719 118.144531 199.847656 124.265625 C 199.238281 125.246094 198.761719 126.335938 198.433594 127.4375 C 198.308594 127.863281 198.765625 128.464844 198.957031 128.988281 Z M 191.359375 121.234375 C 191.257812 122.027344 191.128906 122.609375 191.121094 123.1875 C 191.109375 124.328125 190.789062 125.738281 192.082031 126.296875 C 193.484375 126.910156 194.019531 125.457031 194.652344 124.640625 C 200.144531 117.5625 203.300781 109.398438 205.601562 100.851562 C 205.820312 100.042969 205.722656 99.113281 205.605469 98.265625 C 205.445312 97.101562 204.4375 97.003906 203.597656 97.171875 C 201.753906 97.546875 200.675781 99.015625 199.609375 100.402344 C 194.8125 106.613281 192.539062 113.820312 191.355469 121.234375 Z M 240.117188 224.542969 C 240.296875 224.324219 240.496094 224.019531 240.480469 223.773438 C 240.441406 223.226562 240.441406 222.515625 240.109375 222.207031 C 239.800781 221.914062 238.882812 221.796875 238.578125 222.039062 C 236.753906 223.5 235.007812 225.0625 233.269531 226.632812 C 223.191406 235.730469 212.050781 237.191406 199.871094 231.320312 C 197.496094 230.175781 195.152344 228.953125 192.707031 227.972656 C 192.058594 227.710938 191.101562 228.214844 190.289062 228.367188 C 190.550781 229.144531 190.570312 230.21875 191.109375 230.648438 C 196.523438 234.949219 202.84375 237.160156 209.535156 238.519531 C 222.484375 239.820312 232.28125 234.332031 240.121094 224.542969 Z M 162.339844 218.355469 C 163.679688 220.480469 166.78125 220.886719 168.394531 219.0625 C 170.886719 216.25 171.710938 212.875 171.460938 209.230469 C 171.148438 204.65625 168.539062 201.257812 165.714844 201.550781 C 163.15625 201.8125 160.992188 204.953125 160.582031 209.308594 C 160.734375 212.175781 160.511719 215.445312 162.339844 218.355469 Z M 269.453125 208.875 C 269.195312 206.597656 267.578125 204.804688 265.6875 204.539062 C 263.816406 204.285156 261.648438 205.515625 260.769531 207.558594 C 259.199219 211.222656 258.863281 214.941406 260.8125 218.609375 C 261.761719 220.394531 264.707031 220.808594 266.171875 219.425781 C 268.207031 217.511719 269.125 215.09375 269.519531 211.589844 C 269.515625 211.210938 269.582031 210.03125 269.457031 208.875 Z M 269.453125 208.875 " fill-opacity="1" fill-rule="nonzero"/></g></g></g></svg>