<svg xmlns="http://www.w3.org/2000/svg" xmlns:xlink="http://www.w3.org/1999/xlink" width="576" zoomAndPan="magnify" viewBox="0 0 432 431.999984" height="576" preserveAspectRatio="xMidYMid meet" version="1.0"><defs><clipPath id="c77da6a61f"><path d="M 81 92 L 337 92 L 337 335 L 81 335 Z M 81 92 " clip-rule="nonzero"/></clipPath><clipPath id="06eea28790"><path d="M 106.566406 79.273438 L 356.546875 111.125 L 325.738281 352.917969 L 75.757812 321.066406 Z M 106.566406 79.273438 " clip-rule="nonzero"/></clipPath><clipPath id="8bf7de184f"><path d="M 106.566406 79.273438 L 356.546875 111.125 L 325.738281 352.917969 L 75.757812 321.066406 Z M 106.566406 79.273438 " clip-rule="nonzero"/></clipPath><clipPath id="4e3802f011"><path d="M 106.566406 79.273438 L 356.546875 111.125 L 325.738281 352.917969 L 75.757812 321.066406 Z M 106.566406 79.273438 " clip-rule="nonzero"/></clipPath></defs><g clip-path="url(#c77da6a61f)"><g clip-path="url(#06eea28790)"><g clip-path="url(#8bf7de184f)"><g clip-path="url(#4e3802f011)"><path fill="#000000" d="M 208.773438 107.339844 C 210.75 108.28125 212.210938 107 213.777344 106.339844 C 215.960938 105.414062 218.152344 104.644531 220.574219 104.613281 C 226.546875 104.535156 229.191406 108.609375 226.464844 114.015625 C 224.585938 117.742188 221.636719 120.644531 218.460938 123.335938 C 216.242188 125.214844 213.359375 126.300781 211.625 129.007812 C 212.722656 131.472656 215.070312 130.753906 216.910156 130.914062 C 228.433594 131.933594 239.582031 134.300781 250.199219 139.097656 C 285.082031 154.851562 307.363281 189.773438 306.566406 227.816406 C 306.492188 231.339844 306.144531 234.894531 305.496094 238.355469 C 304.847656 241.847656 305.386719 244.550781 308.210938 247.011719 C 312.902344 251.101562 316.726562 255.992188 319.648438 261.507812 C 320.882812 263.839844 322.617188 264.898438 325.246094 265.066406 C 328.753906 265.289062 332.253906 265.800781 335.742188 266.292969 C 336.09375 266.34375 336.574219 267.117188 336.570312 267.554688 C 336.5625 267.941406 335.992188 268.621094 335.628906 268.652344 C 332.402344 268.910156 329.164062 269 325.9375 269.261719 C 324.238281 269.398438 323.332031 270.429688 323.460938 272.207031 C 323.523438 273.089844 323.753906 273.976562 323.679688 274.84375 C 323.40625 278.175781 324.535156 280.476562 327.929688 281.542969 C 329.304688 281.972656 330.570312 282.828125 331.785156 283.636719 C 332.164062 283.886719 332.460938 284.683594 332.347656 285.113281 C 332.261719 285.476562 331.472656 285.960938 331.078125 285.894531 C 329.347656 285.613281 327.597656 285.292969 325.945312 284.722656 C 323.550781 283.898438 321.996094 284.691406 320.820312 286.773438 C 320.242188 287.796875 319.445312 288.691406 318.859375 289.710938 C 317.410156 292.226562 313.707031 293.496094 313.851562 296.613281 C 313.964844 299.085938 315.675781 301.480469 316.660156 303.921875 C 316.765625 304.1875 316.855469 304.53125 316.773438 304.777344 C 316.605469 305.304688 316.4375 305.984375 316.039062 306.234375 C 315.695312 306.449219 314.898438 306.332031 314.535156 306.054688 C 312.003906 304.148438 311.730469 299.511719 307.972656 299.488281 C 305.179688 299.464844 302.417969 301.269531 299.570312 301.90625 C 295.851562 302.734375 292.070312 303.609375 288.289062 303.769531 C 280.140625 304.125 280.9375 305.265625 278.929688 311.738281 C 277.445312 316.511719 276.308594 321.394531 274.761719 326.148438 C 274.042969 328.351562 272.929688 330.503906 271.632812 332.425781 C 269.296875 335.882812 265.734375 335.679688 264.121094 331.949219 C 262.84375 328.996094 261.878906 325.867188 261.160156 322.730469 C 259.636719 316.136719 258.421875 309.472656 256.972656 302.863281 C 256.367188 300.105469 250.226562 297.101562 247.625 298.308594 C 246.636719 298.769531 245.71875 299.730469 245.164062 300.6875 C 240.824219 308.148438 233.476562 310.296875 225.761719 311.335938 C 221.425781 311.921875 216.875 311.925781 212.550781 311.320312 C 206.445312 310.457031 200.363281 309.089844 194.4375 307.371094 C 188.3125 305.59375 183.171875 302.242188 180.886719 295.753906 C 180.597656 294.945312 180.085938 294.175781 179.515625 293.519531 C 179.171875 293.125 178.4375 292.683594 178.035156 292.796875 C 177.253906 293.023438 176.171875 293.480469 175.941406 294.109375 C 175.339844 295.738281 175.136719 297.515625 174.757812 299.234375 C 173.179688 306.421875 171.75 313.648438 169.941406 320.777344 C 169.15625 323.875 167.796875 326.878906 166.3125 329.726562 C 165.035156 332.171875 162.046875 332.046875 160.636719 329.546875 C 159.339844 327.257812 158.230469 324.824219 157.355469 322.34375 C 155.398438 316.792969 153.683594 311.15625 151.78125 305.585938 C 150.511719 301.871094 149.859375 301.464844 146.027344 301.71875 C 144.265625 301.835938 142.507812 302.386719 140.769531 302.316406 C 136.851562 302.15625 134.675781 303.683594 134.265625 307.734375 C 134.121094 309.128906 133.359375 310.484375 132.714844 311.769531 C 132.554688 312.089844 131.742188 312.136719 131.214844 312.179688 C 131.078125 312.191406 130.8125 311.738281 130.761719 311.46875 C 130.652344 310.902344 130.582031 310.3125 130.609375 309.738281 C 130.941406 302.59375 130.613281 302.238281 124.242188 301.179688 C 121.519531 300.726562 119.703125 301.535156 118.480469 303.996094 C 117.699219 305.570312 116.796875 307.105469 115.8125 308.5625 C 115.191406 309.476562 114.621094 310.546875 113.199219 310.597656 C 112.167969 310.632812 112.0625 308.984375 112.929688 306.910156 C 113.9375 304.488281 116.101562 302.210938 115.59375 299.59375 C 115.074219 296.902344 111.859375 296.097656 110 294.273438 C 109.371094 293.65625 108.640625 293.125 108.074219 292.457031 C 106.265625 290.335938 104.203125 290.140625 101.742188 291.269531 C 99.078125 292.492188 96.34375 293.566406 93.597656 294.59375 C 93.253906 294.71875 92.441406 294.246094 92.230469 293.847656 C 92.03125 293.480469 92.167969 292.539062 92.46875 292.359375 C 94.972656 290.832031 97.539062 289.402344 100.109375 287.988281 C 101.875 287.019531 102.664062 285.640625 102.140625 283.632812 C 101.996094 283.066406 101.769531 282.515625 101.574219 281.960938 C 98.410156 272.796875 101.273438 272.953125 89.652344 273.886719 C 87.015625 274.097656 83.980469 275.859375 81.945312 272.492188 C 83.878906 270.191406 86.75 270.964844 89.1875 270.363281 C 90.886719 269.941406 92.683594 269.894531 94.433594 269.714844 C 97.363281 269.417969 99.234375 268.289062 99.707031 264.96875 C 101.214844 254.304688 107.277344 246.6875 116.300781 241.191406 C 117.308594 240.578125 118.328125 239.992188 119.335938 239.382812 C 120.996094 238.371094 121.695312 236.964844 121.515625 234.953125 C 121.121094 230.558594 120.789062 226.160156 120.597656 221.753906 C 119.160156 188.988281 138.671875 151.863281 177.082031 136.894531 C 180.085938 135.726562 183.582031 135.09375 185.902344 133.105469 C 188.484375 130.890625 186.839844 126.957031 187.363281 123.808594 C 188.675781 115.902344 190.769531 108.292969 194.890625 101.34375 C 196.710938 98.277344 198.851562 95.5 201.914062 93.539062 C 203.785156 92.339844 205.753906 91.910156 207.710938 93.121094 C 209.386719 94.164062 209.574219 95.949219 209.578125 97.792969 C 209.582031 101.003906 207.855469 104.074219 208.773438 107.324219 Z M 271.988281 298.667969 C 274.617188 299.003906 277.238281 299.496094 279.882812 299.640625 C 287.601562 300.070312 295.179688 299.292969 302.425781 296.394531 C 305.546875 295.148438 305.785156 294.4375 304.488281 291.046875 C 303.910156 289.53125 301.925781 287.769531 304.199219 286.542969 C 305.515625 285.832031 306.601562 287.785156 307.550781 288.871094 C 307.746094 289.089844 307.917969 289.339844 308.136719 289.535156 C 310.253906 291.410156 311.445312 291.425781 313.347656 289.394531 C 315.132812 287.484375 317.492188 285.632812 316.859375 282.671875 C 316.347656 280.285156 313.582031 280.554688 311.851562 279.59375 C 311.59375 279.453125 311.253906 279.316406 311.148438 279.085938 C 310.921875 278.585938 310.601562 277.960938 310.738281 277.515625 C 310.859375 277.109375 311.542969 276.609375 311.972656 276.617188 C 313.132812 276.628906 314.289062 276.953125 315.457031 277.042969 C 318.515625 277.269531 319.691406 275.871094 319.121094 272.878906 C 318.625 270.292969 317.394531 268.558594 314.523438 268.414062 C 313.359375 268.351562 311.886719 268.203125 311.605469 266.976562 C 311.273438 265.554688 312.730469 265.144531 313.828125 264.757812 C 314.820312 264.410156 315.335938 263.65625 314.992188 262.757812 C 314.476562 261.40625 313.851562 260.023438 312.96875 258.886719 C 302.0625 244.808594 288.378906 235.367188 270.203125 233.476562 C 266.984375 233.140625 263.765625 232.773438 260.570312 232.285156 C 259.746094 232.160156 258.804688 231.414062 259.117188 230.453125 C 259.339844 229.769531 260.210938 228.875 260.863281 228.820312 C 268.285156 228.183594 275.523438 229.28125 282.613281 231.488281 C 288 233.164062 292.851562 235.945312 297.75 238.671875 C 300.578125 240.242188 301.980469 239.441406 302.542969 236.128906 C 303.539062 230.269531 303.324219 224.339844 302.871094 218.492188 C 298.261719 158.796875 235.878906 118.964844 179.746094 139.777344 C 144.589844 152.8125 122.351562 186.269531 124.0625 223.664062 C 124.195312 226.585938 124.726562 229.515625 125.332031 232.382812 C 125.929688 235.199219 127.019531 235.871094 129.664062 235.445312 C 131.699219 235.113281 133.703125 234.617188 135.734375 234.261719 C 143.960938 232.808594 152.15625 233.117188 160.335938 234.671875 C 162.988281 235.175781 165.492188 235.949219 167.328125 238.082031 C 167.457031 238.230469 167.332031 238.667969 167.234375 238.933594 C 167.152344 239.15625 166.945312 239.492188 166.777344 239.507812 C 165.921875 239.570312 164.960938 239.800781 164.210938 239.515625 C 157.132812 236.800781 149.761719 236.761719 142.390625 237.191406 C 132.191406 237.789062 122.6875 240.632812 114.421875 246.890625 C 108.816406 251.136719 104.996094 256.554688 103.734375 263.59375 C 103.21875 266.480469 103.589844 267.09375 107.003906 268.375 C 107.800781 268.671875 108.804688 268.792969 108.777344 269.792969 C 108.75 270.746094 107.804688 271.078125 107 271.507812 C 103.328125 273.453125 103.191406 273.683594 103.890625 276.546875 C 104.242188 277.972656 104.683594 279.382812 105.238281 280.742188 C 106.230469 283.175781 107.558594 283.632812 110.148438 282.867188 C 112.308594 282.234375 114.011719 279.941406 116.65625 281.035156 C 117.199219 284.683594 113.527344 284.457031 111.90625 286.097656 C 110.316406 287.699219 110.019531 289 111.667969 290.515625 C 112.957031 291.707031 114.390625 292.746094 115.824219 293.769531 C 117.242188 294.78125 118.617188 294.503906 119.722656 293.230469 C 120.675781 292.125 121.460938 290.867188 122.453125 289.792969 C 122.722656 289.503906 123.609375 289.441406 123.960938 289.664062 C 124.3125 289.886719 124.550781 290.632812 124.488281 291.097656 C 124.332031 292.257812 123.824219 293.382812 123.753906 294.539062 C 123.703125 295.332031 123.871094 296.476562 124.398438 296.910156 C 126.074219 298.296875 128.234375 298.277344 130.292969 298.222656 C 132.027344 298.175781 132.53125 296.738281 133.316406 295.457031 C 134.867188 292.914062 135.394531 292.871094 136.25 295.433594 C 136.945312 297.523438 138.015625 298.226562 139.988281 298.296875 C 145.085938 298.46875 149.941406 297.179688 154.707031 295.679688 C 162.570312 293.203125 170.285156 290.230469 178.183594 287.886719 C 199.1875 281.648438 219.980469 282.226562 240.539062 290.144531 C 250.710938 294.0625 261.046875 297.53125 271.988281 298.667969 Z M 209.976562 306.835938 C 212.59375 307.167969 215.203125 307.613281 217.828125 307.8125 C 223.484375 308.242188 228.890625 307.078125 234.167969 305.117188 C 237.335938 303.941406 239.703125 301.90625 241.316406 298.953125 C 242.265625 297.214844 241.761719 295.507812 239.925781 294.5625 C 239.148438 294.160156 238.296875 293.902344 237.484375 293.570312 C 221.804688 287.082031 205.5625 286.863281 189.101562 289.289062 C 183.128906 290.167969 182.492188 292.132812 185.984375 297.636719 C 187.769531 300.453125 190.652344 301.949219 193.746094 303.105469 C 199 305.0625 204.398438 306.332031 209.976562 306.835938 Z M 169.515625 305.488281 C 169.144531 303.105469 172.714844 298.953125 170.15625 296.496094 C 167.074219 293.542969 163.195312 297.582031 159.59375 298.195312 C 158.742188 298.335938 157.953125 298.828125 157.121094 299.128906 C 155.117188 299.855469 154.34375 301.375 154.90625 303.296875 C 156.304688 308.097656 157.839844 312.863281 159.402344 317.613281 C 160.042969 319.566406 160.835938 321.476562 161.6875 323.347656 C 162.042969 324.121094 162.761719 325.011719 163.71875 324.632812 C 164.386719 324.367188 165.039062 323.582031 165.320312 322.878906 C 167.398438 317.648438 168.464844 312.152344 169.515625 305.492188 Z M 267.832031 302.695312 C 266.964844 302.585938 266.097656 302.457031 265.226562 302.363281 C 261.980469 302.035156 260.824219 303.046875 261.488281 306.34375 C 262.808594 312.910156 264.414062 319.414062 265.933594 325.945312 C 266.203125 327.09375 266.671875 328.207031 267.976562 328.515625 C 269.578125 328.890625 269.972656 327.488281 270.300781 326.519531 C 271.796875 322.105469 273.234375 317.671875 274.515625 313.199219 C 277.0625 304.273438 276.921875 304.117188 267.835938 302.695312 Z M 199.085938 129.019531 C 199.371094 129.085938 199.707031 129.28125 199.941406 129.191406 C 208.871094 125.828125 216.964844 121.273438 222.480469 113.128906 C 222.640625 112.886719 222.753906 112.605469 222.859375 112.332031 C 223.265625 111.214844 223.691406 109.980469 222.597656 109.109375 C 221.976562 108.617188 220.945312 108.242188 220.203125 108.382812 C 218.488281 108.710938 216.730469 109.171875 215.1875 109.960938 C 208.746094 113.261719 203.765625 118.179688 199.96875 124.304688 C 199.363281 125.28125 198.882812 126.371094 198.554688 127.476562 C 198.429688 127.902344 198.890625 128.503906 199.082031 129.027344 Z M 191.472656 121.269531 C 191.371094 122.058594 191.242188 122.640625 191.234375 123.222656 C 191.222656 124.363281 190.902344 125.773438 192.195312 126.335938 C 193.597656 126.945312 194.136719 125.496094 194.773438 124.675781 C 200.269531 117.597656 203.429688 109.425781 205.730469 100.875 C 205.949219 100.066406 205.851562 99.136719 205.734375 98.285156 C 205.574219 97.121094 204.5625 97.023438 203.726562 97.191406 C 201.878906 97.566406 200.800781 99.039062 199.730469 100.425781 C 194.929688 106.636719 192.65625 113.851562 191.46875 121.269531 Z M 240.304688 224.648438 C 240.480469 224.429688 240.683594 224.125 240.664062 223.878906 C 240.628906 223.332031 240.625 222.617188 240.292969 222.308594 C 239.984375 222.015625 239.066406 221.898438 238.761719 222.140625 C 236.933594 223.601562 235.183594 225.167969 233.445312 226.734375 C 223.355469 235.839844 212.199219 237.300781 200.003906 231.425781 C 197.625 230.277344 195.277344 229.054688 192.832031 228.074219 C 192.179688 227.8125 191.222656 228.316406 190.410156 228.46875 C 190.671875 229.246094 190.691406 230.324219 191.230469 230.753906 C 196.652344 235.058594 202.980469 237.269531 209.683594 238.628906 C 222.648438 239.933594 232.457031 234.441406 240.308594 224.648438 Z M 162.425781 218.449219 C 163.765625 220.574219 166.871094 220.980469 168.488281 219.15625 C 170.984375 216.34375 171.808594 212.964844 171.554688 209.316406 C 171.242188 204.738281 168.628906 201.34375 165.800781 201.632812 C 163.242188 201.894531 161.074219 205.039062 160.660156 209.398438 C 160.816406 212.265625 160.59375 215.535156 162.425781 218.449219 Z M 269.671875 208.96875 C 269.417969 206.695312 267.796875 204.898438 265.902344 204.632812 C 264.027344 204.378906 261.859375 205.609375 260.980469 207.652344 C 259.40625 211.320312 259.070312 215.042969 261.027344 218.710938 C 261.976562 220.496094 264.921875 220.910156 266.390625 219.527344 C 268.425781 217.613281 269.347656 215.191406 269.742188 211.6875 C 269.738281 211.308594 269.804688 210.128906 269.675781 208.96875 Z M 269.671875 208.96875 " fill-opacity="1" fill-rule="nonzero"/></g></g></g></g></svg>