<svg xmlns="http://www.w3.org/2000/svg" xmlns:xlink="http://www.w3.org/1999/xlink" width="576" zoomAndPan="magnify" viewBox="0 0 432 431.999984" height="576" preserveAspectRatio="xMidYMid meet" version="1.0"><defs><clipPath id="cb80bb69ca"><path d="M 91 119 L 343 119 L 343 316 L 91 316 Z M 91 119 " clip-rule="nonzero"/></clipPath><clipPath id="fca38370a3"><path d="M 101.75 102.328125 L 351.617188 128.679688 L 330.375 330.0625 L 80.511719 303.710938 Z M 101.75 102.328125 " clip-rule="nonzero"/></clipPath><clipPath id="6d7d22262f"><path d="M 101.75 102.328125 L 351.617188 128.679688 L 330.375 330.0625 L 80.511719 303.710938 Z M 101.75 102.328125 " clip-rule="nonzero"/></clipPath></defs><g clip-path="url(#cb80bb69ca)"><g clip-path="url(#fca38370a3)"><g clip-path="url(#6d7d22262f)"><path fill="#ffffff" d="M 96.976562 224.636719 C 90.496094 219.941406 89.65625 217.117188 92.6875 211.109375 C 94.554688 207.417969 97.265625 204.328125 100.171875 201.414062 C 104.949219 196.628906 110.210938 192.410156 115.699219 188.511719 C 129.785156 178.511719 143.964844 168.632812 158.113281 158.71875 C 160.027344 157.375 162.007812 156.117188 163.929688 154.78125 C 165.460938 153.714844 166.453125 152.421875 165.925781 150.355469 C 165.640625 149.230469 165.546875 148.035156 165.523438 146.871094 C 165.285156 136.109375 173.25 127.691406 183.890625 127.421875 C 187.886719 127.320312 191.230469 129.15625 194.558594 131.019531 C 196.050781 131.855469 197.359375 131.570312 198.480469 130.386719 C 199.289062 129.539062 199.941406 128.542969 200.769531 127.726562 C 206.765625 121.8125 212.984375 120.632812 220.839844 123.96875 C 222.171875 124.535156 223.359375 125.4375 224.65625 126.105469 C 225.808594 126.703125 226.910156 126.46875 227.851562 125.589844 C 228.277344 125.191406 228.597656 124.679688 229.027344 124.289062 C 237.304688 116.761719 246.601562 117.671875 253.027344 126.644531 C 253.539062 127.355469 254.046875 128.113281 254.332031 128.925781 C 255.546875 132.371094 257.75 132.867188 261.203125 132.183594 C 265.664062 131.300781 269.890625 132.683594 273.59375 135.433594 C 278.332031 138.949219 279.636719 142.730469 277.652344 148.421875 C 276.972656 150.371094 276.265625 152.027344 276.738281 154.257812 C 277.539062 158.035156 279.328125 160.527344 283.039062 161.882812 C 289.902344 164.402344 296.734375 167.015625 303.472656 169.847656 C 311.84375 173.367188 319.925781 177.476562 327.433594 182.644531 C 331.304688 185.316406 335.007812 188.1875 338.015625 191.824219 C 339.3125 193.390625 340.550781 195.074219 341.460938 196.882812 C 343.648438 201.230469 343.289062 205.910156 336.328125 207.117188 C 334.625 207.414062 332.898438 207.5625 330.949219 207.804688 C 330.503906 210.566406 332.707031 211.976562 333.722656 213.84375 C 336.078125 218.167969 337.875 222.359375 333.53125 226.589844 C 332.597656 227.5 332.964844 228.683594 333.585938 229.792969 C 334.871094 232.082031 336.390625 234.304688 337.21875 236.757812 C 338.679688 241.0625 337.417969 243.296875 332.902344 245.683594 C 332.167969 246.070312 331.488281 246.578125 330.558594 247.175781 C 331.070312 249.519531 331.695312 251.753906 332.007812 254.035156 C 332.523438 257.75 331.617188 261.117188 328.472656 263.398438 C 324.976562 265.933594 321.148438 265.4375 317.734375 263.355469 C 315.023438 261.699219 312.710938 259.386719 310.234375 257.347656 C 308.386719 255.832031 306.976562 256.324219 306.613281 258.671875 C 305.988281 262.71875 305.546875 266.796875 304.769531 270.8125 C 302.914062 280.429688 297.871094 288.136719 290.132812 294.054688 C 280.710938 301.257812 270.167969 306.222656 258.71875 309.246094 C 255.609375 310.066406 252.414062 310.550781 249.316406 311.410156 C 225.21875 318.082031 201.113281 315.949219 177.117188 311.097656 C 167.359375 309.121094 158.144531 305.308594 149.546875 300.046875 C 141.152344 294.910156 135.5625 287.789062 132.554688 278.480469 C 130.652344 272.589844 129.609375 266.558594 129.179688 260.410156 C 128.875 256.054688 128.601562 251.707031 128.3125 247.386719 C 125.667969 247.234375 125.25 249.167969 124.511719 250.609375 C 122.78125 254.003906 121.113281 257.4375 118.433594 260.214844 C 114.808594 263.96875 110.863281 263.5625 108.703125 258.816406 C 107.609375 256.40625 106.550781 255.304688 103.847656 254.746094 C 99.589844 253.867188 98.625 252.140625 98.5625 247.957031 C 98.546875 247.085938 98.636719 246.195312 98.816406 245.34375 C 99.273438 243.121094 98.738281 241.726562 96.664062 240.265625 C 92.738281 237.488281 92.238281 235.371094 93.75 231.332031 C 94.566406 229.152344 95.757812 227.121094 96.96875 224.632812 Z M 200.007812 164.011719 C 199.273438 164.511719 198.320312 165.125 197.402344 165.789062 C 195.980469 166.816406 194.605469 167.835938 192.757812 168.101562 C 188.117188 168.753906 184.648438 167.082031 182.546875 161.832031 C 181.359375 158.863281 179.855469 157.628906 176.871094 157.566406 C 175.417969 157.535156 173.929688 157.324219 172.539062 156.929688 C 169.730469 156.128906 167.3125 156.914062 165.109375 158.550781 C 163 160.121094 160.886719 161.714844 158.953125 163.492188 C 148.273438 173.339844 141.957031 185.640625 138.476562 199.621094 C 135.421875 211.894531 134.152344 224.410156 132.792969 236.925781 C 131.742188 246.582031 132.277344 256.226562 133.328125 265.847656 C 133.871094 270.824219 135.214844 275.601562 137.019531 280.265625 C 139.421875 286.460938 143.300781 291.425781 148.789062 295.210938 C 153.878906 298.722656 159.296875 301.558594 165.09375 303.691406 C 182.386719 310.054688 200.410156 311.84375 218.640625 311.898438 C 231.910156 311.9375 244.808594 309.015625 257.542969 305.609375 C 267.785156 302.871094 277.402344 298.582031 286.109375 292.414062 C 295.488281 285.769531 300.714844 276.789062 302.164062 265.34375 C 303.542969 254.460938 302.445312 243.726562 301.316406 232.945312 C 298.9375 210.277344 289.820312 190.121094 278.304688 170.859375 C 276.382812 167.640625 275.785156 167.414062 272.003906 169.429688 C 266.019531 172.628906 260.273438 172.796875 254.648438 168.832031 C 252.59375 167.382812 251.164062 167.859375 249.25 169.324219 C 241.574219 175.183594 236.574219 175.328125 228.632812 169.753906 C 226.324219 168.136719 224.84375 168.101562 222.433594 169.503906 C 215.011719 173.816406 210.484375 173.140625 204.292969 167.417969 C 203.03125 166.25 202.289062 164.46875 200.011719 164.011719 Z M 185.089844 152.695312 C 186.554688 155.15625 185.097656 157.894531 185.9375 160.441406 C 187.320312 164.632812 191.695312 165.882812 194.953125 162.875 C 196.71875 161.246094 197.808594 159.214844 198.574219 156.964844 C 199.042969 155.582031 199.667969 154.125 201.441406 154.277344 C 202.863281 154.398438 203.039062 155.796875 203.335938 156.90625 C 204.019531 159.457031 204.734375 161.988281 206.421875 164.097656 C 209.921875 168.480469 216.359375 171.515625 222.007812 164.691406 C 222.933594 163.574219 223.734375 162.351562 224.691406 161.257812 C 225.371094 160.480469 226.414062 160.546875 226.992188 161.210938 C 227.933594 162.289062 228.679688 163.566406 229.398438 164.824219 C 233.085938 171.265625 243.730469 172.121094 247.742188 165.132812 C 248.324219 164.121094 248.855469 163.070312 249.527344 162.121094 C 250.492188 160.757812 252.121094 160.566406 253.203125 161.859375 C 255.285156 164.347656 257.371094 166.726562 260.648438 167.714844 C 264.578125 168.894531 269.492188 167.644531 271.871094 164.734375 C 274.664062 161.320312 274.703125 157.804688 271.96875 153.542969 C 271.359375 152.59375 270.671875 151.691406 269.960938 150.6875 C 270.746094 149.886719 271.359375 149.300781 271.925781 148.675781 C 275.03125 145.261719 275.082031 142.503906 272.007812 139.78125 C 268.191406 136.398438 263.765625 135.585938 258.9375 136.976562 C 257.832031 137.292969 256.871094 138.097656 255.769531 138.449219 C 254.527344 138.855469 253.402344 138.367188 252.933594 137.140625 C 252.3125 135.515625 251.980469 133.785156 251.394531 132.144531 C 250.152344 128.671875 247.769531 126.144531 244.496094 124.546875 C 238.726562 121.738281 233.347656 123.683594 230.671875 129.460938 C 230.304688 130.253906 230.152344 131.140625 229.828125 131.953125 C 228.191406 136.023438 227.425781 136.191406 224.882812 133.046875 C 224.515625 132.589844 224.242188 132.066406 223.894531 131.59375 C 218.625 124.347656 207.367188 123.761719 201.707031 132.570312 C 201.082031 133.546875 200.613281 134.628906 200.027344 135.632812 C 198.203125 138.734375 197.308594 138.945312 194.761719 136.886719 C 193.40625 135.792969 192.183594 134.476562 190.703125 133.585938 C 181.832031 128.238281 169.847656 134.488281 169.132812 144.769531 C 168.742188 150.445312 172.742188 154.210938 178.367188 153.632812 C 180.621094 153.398438 182.648438 151.503906 185.085938 152.691406 Z M 280.371094 166.398438 C 283.414062 172.046875 286.097656 177.214844 288.941406 182.285156 C 297.664062 197.824219 302.847656 214.480469 304.882812 232.144531 C 305.21875 235.054688 305.355469 237.996094 305.914062 240.859375 C 307.644531 249.753906 313.15625 255.910156 320.621094 260.558594 C 321.105469 260.863281 321.695312 261.042969 322.257812 261.175781 C 324.871094 261.804688 327.675781 259.902344 328.082031 257.214844 C 328.441406 254.851562 328.25 252.53125 327.199219 250.351562 C 326.3125 248.503906 325.324219 246.710938 324.4375 244.867188 C 323.703125 243.332031 322.457031 241.707031 324.039062 240.082031 C 325.324219 238.757812 326.738281 239.769531 328.054688 240.3125 C 328.863281 240.648438 329.644531 241.058594 330.476562 241.316406 C 331.660156 241.683594 332.949219 241.582031 333.652344 240.566406 C 334.0625 239.964844 334.007812 238.847656 333.808594 238.058594 C 332.65625 233.546875 329.214844 230.75 326.078125 227.648438 C 324.191406 225.78125 320.414062 225.09375 321.34375 221.128906 C 324.140625 219.734375 326.328125 222.179688 328.878906 222.328125 C 329.167969 222.34375 329.453125 222.425781 329.746094 222.46875 C 331.710938 222.742188 332.890625 221.039062 332.222656 219.054688 C 330.75 214.703125 327.371094 211.816406 324.378906 208.617188 C 323.1875 207.347656 321.796875 205.988281 322.960938 204.054688 C 323.816406 202.625 325.390625 202.578125 326.875 202.707031 C 328.328125 202.835938 329.769531 203.164062 331.230469 203.277344 C 332.683594 203.386719 334.15625 203.425781 335.613281 203.339844 C 338.429688 203.179688 339.648438 200.945312 338.289062 198.382812 C 337.609375 197.097656 336.78125 195.875 335.875 194.734375 C 332.925781 191.027344 329.234375 188.136719 325.316406 185.542969 C 312.039062 176.757812 297.527344 170.632812 282.441406 165.753906 C 282.210938 165.679688 281.890625 165.910156 280.367188 166.394531 Z M 143.921875 174.609375 C 142.894531 173.828125 142.066406 174.046875 141.347656 174.542969 C 129.066406 183.058594 116.726562 191.5 105.421875 201.324219 C 102.320312 204.019531 99.40625 206.957031 97.273438 210.488281 C 95.972656 212.636719 93.757812 214.933594 95.378906 217.636719 C 96.59375 219.664062 99.109375 218.683594 101.09375 218.828125 C 101.382812 218.847656 101.675781 218.875 101.960938 218.917969 C 104.082031 219.234375 104.980469 220.949219 103.804688 222.710938 C 102.503906 224.652344 101.011719 226.46875 99.625 228.351562 C 98.394531 230.027344 97.476562 231.820312 97.347656 233.960938 C 97.285156 235.070312 98.453125 236.390625 99.488281 236.117188 C 100.613281 235.828125 101.71875 235.441406 102.796875 235.003906 C 104.128906 234.464844 105.59375 233.441406 106.816406 234.695312 C 108.484375 236.394531 106.792969 237.902344 106.035156 239.378906 C 105.105469 241.199219 104 242.933594 103.183594 244.804688 C 102.738281 245.832031 102.640625 247.046875 102.558594 248.1875 C 102.445312 249.746094 104.035156 250.808594 105.519531 250.457031 C 107.710938 249.933594 109.378906 246.820312 111.8125 248.382812 C 114.796875 250.300781 111.523438 253.253906 112.316406 255.644531 C 112.566406 256.390625 113.144531 257.347656 113.777344 257.554688 C 114.390625 257.75 115.542969 257.308594 115.984375 256.761719 C 117.273438 255.183594 118.539062 253.523438 119.429688 251.710938 C 125.25 239.84375 130.375 227.757812 132.011719 214.441406 C 133.632812 201.273438 136.945312 188.5625 143.40625 176.824219 C 143.777344 176.152344 143.773438 175.273438 143.921875 174.609375 Z M 209.683594 290.285156 C 204.628906 290.089844 200.585938 287.824219 197.453125 284.109375 C 191.445312 276.984375 189.390625 268.683594 190.796875 259.5 C 191.050781 257.847656 192.394531 257.179688 194.054688 258.113281 C 198.722656 260.738281 203.699219 262.304688 209.003906 262.875 C 213.496094 263.351562 214.351562 262.660156 214.355469 258.417969 C 214.359375 256.957031 214.269531 255.492188 214.207031 254.027344 C 214.097656 251.554688 213.105469 249.613281 211.109375 248.023438 C 209.0625 246.394531 207.109375 244.582031 205.40625 242.601562 C 204.292969 241.304688 203.464844 239.644531 202.90625 238.011719 C 201.558594 234.042969 204.402344 230.683594 208.402344 231.5625 C 210.363281 231.996094 212.394531 232.726562 214.035156 233.847656 C 216.5 235.535156 218.640625 235.957031 221.203125 234.125 C 223.390625 232.558594 225.902344 231.871094 228.683594 232.230469 C 232.34375 232.707031 234.0625 235.9375 232.414062 239.324219 C 231.210938 241.78125 229.375 243.636719 227.082031 245.015625 C 225.082031 246.222656 223.027344 247.394531 220.871094 248.277344 C 218.222656 249.367188 217.535156 251.347656 217.746094 253.890625 C 217.890625 255.632812 218.046875 257.390625 218.363281 259.109375 C 218.941406 262.242188 219.90625 262.792969 223.316406 262.28125 C 227.726562 261.621094 231.714844 259.816406 235.632812 257.816406 C 236.40625 257.421875 237.21875 257.027344 238.054688 256.878906 C 238.539062 256.789062 239.277344 257.035156 239.597656 257.398438 C 239.886719 257.730469 240.03125 258.691406 239.800781 258.910156 C 237.300781 261.3125 237.09375 264.652344 236.160156 267.664062 C 234.039062 274.542969 230.550781 280.550781 224.972656 285.167969 C 220.558594 288.824219 215.597656 291.15625 209.683594 290.285156 Z M 227.222656 275.503906 C 229.289062 274.652344 230.144531 272.785156 230.882812 270.875 C 231.585938 269.070312 233.335938 267.148438 231.632812 265.289062 C 230.253906 263.78125 228.320312 265.125 226.726562 265.492188 C 217.453125 267.617188 208.289062 268.027344 199.246094 264.398438 C 198.1875 263.976562 196.984375 263.800781 195.839844 263.753906 C 194.960938 263.714844 194.066406 264.207031 194.070312 265.25 C 194.082031 266.679688 194.167969 268.140625 194.460938 269.539062 C 195.269531 273.34375 196.378906 274.175781 199.78125 272.816406 C 209.132812 269.085938 217.964844 269.699219 226.378906 275.332031 C 226.59375 275.472656 226.917969 275.449219 227.21875 275.503906 Z M 209.355469 286.917969 C 214.132812 286.734375 218.226562 285.660156 221.71875 282.742188 C 223.679688 281.109375 223.738281 279.191406 221.761719 277.742188 C 216.703125 274.035156 211.085938 273.699219 205.246094 275.195312 C 202.820312 275.816406 199.472656 275.875 199.253906 279.09375 C 199.066406 281.910156 201.75 283.476562 204.03125 284.722656 C 205.78125 285.679688 207.726562 286.261719 209.355469 286.917969 Z M 176.199219 221.335938 C 174.710938 219.730469 172.34375 219.605469 170.769531 221.140625 C 168.230469 223.625 167.941406 226.820312 168.011719 230.0625 C 168.097656 234.085938 170.089844 237.378906 172.496094 237.847656 C 175.191406 238.371094 177.761719 235.082031 178.335938 230.144531 C 178.449219 227.191406 178.648438 223.984375 176.195312 221.335938 Z M 263.734375 225.378906 C 262.800781 224.191406 261.5625 223.457031 259.984375 223.71875 C 258.4375 223.972656 257.363281 224.980469 256.84375 226.382812 C 255.453125 230.128906 256.097656 233.777344 257.691406 237.304688 C 258.683594 239.492188 260.671875 240.890625 262.328125 240.527344 C 264.65625 240.015625 265.414062 238.171875 265.800781 236.089844 C 265.851562 235.808594 265.894531 235.519531 265.875 235.640625 C 266.371094 231.691406 266.027344 228.304688 263.734375 225.378906 Z M 263.734375 225.378906 " fill-opacity="1" fill-rule="nonzero"/></g></g></g></svg>