<svg xmlns="http://www.w3.org/2000/svg" xmlns:xlink="http://www.w3.org/1999/xlink" width="576" zoomAndPan="magnify" viewBox="0 0 432 431.999984" height="576" preserveAspectRatio="xMidYMid meet" version="1.0"><defs><clipPath id="07dd21bb72"><path d="M 90 119 L 343 119 L 343 317 L 90 317 Z M 90 119 " clip-rule="nonzero"/></clipPath><clipPath id="9c2a2ca3b5"><path d="M 101.75 102.328125 L 351.617188 128.679688 L 330.375 330.0625 L 80.511719 303.710938 Z M 101.75 102.328125 " clip-rule="nonzero"/></clipPath><clipPath id="10ca2e8d06"><path d="M 101.75 102.328125 L 351.617188 128.679688 L 330.375 330.0625 L 80.511719 303.710938 Z M 101.75 102.328125 " clip-rule="nonzero"/></clipPath><clipPath id="e7353a0159"><path d="M 101.75 102.328125 L 351.617188 128.679688 L 330.375 330.0625 L 80.511719 303.710938 Z M 101.75 102.328125 " clip-rule="nonzero"/></clipPath></defs><g clip-path="url(#07dd21bb72)"><g clip-path="url(#9c2a2ca3b5)"><g clip-path="url(#10ca2e8d06)"><g clip-path="url(#e7353a0159)"><path fill="#000000" d="M 96.957031 224.863281 C 90.472656 220.160156 89.632812 217.332031 92.667969 211.3125 C 94.539062 207.609375 97.25 204.515625 100.160156 201.597656 C 104.941406 196.804688 110.203125 192.578125 115.699219 188.667969 C 129.796875 178.648438 143.988281 168.75 158.144531 158.816406 C 160.0625 157.46875 162.042969 156.210938 163.96875 154.871094 C 165.5 153.800781 166.492188 152.503906 165.964844 150.433594 C 165.679688 149.308594 165.589844 148.113281 165.5625 146.945312 C 165.324219 136.164062 173.296875 127.726562 183.945312 127.457031 C 187.945312 127.355469 191.289062 129.191406 194.621094 131.0625 C 196.117188 131.898438 197.421875 131.613281 198.546875 130.425781 C 199.355469 129.578125 200.007812 128.582031 200.835938 127.757812 C 206.835938 121.835938 213.0625 120.652344 220.921875 123.992188 C 222.257812 124.558594 223.441406 125.46875 224.738281 126.136719 C 225.894531 126.734375 227 126.496094 227.9375 125.617188 C 228.363281 125.21875 228.6875 124.707031 229.117188 124.316406 C 237.398438 116.773438 246.703125 117.683594 253.132812 126.671875 C 253.644531 127.382812 254.152344 128.140625 254.4375 128.957031 C 255.652344 132.40625 257.859375 132.902344 261.3125 132.21875 C 265.777344 131.335938 270.007812 132.71875 273.714844 135.472656 C 278.453125 138.996094 279.757812 142.78125 277.773438 148.484375 C 277.089844 150.4375 276.386719 152.097656 276.855469 154.332031 C 277.65625 158.117188 279.449219 160.613281 283.160156 161.972656 C 290.027344 164.492188 296.863281 167.113281 303.609375 169.945312 C 311.984375 173.472656 320.074219 177.589844 327.582031 182.765625 C 331.460938 185.441406 335.164062 188.316406 338.171875 191.957031 C 339.472656 193.527344 340.710938 195.214844 341.621094 197.027344 C 343.808594 201.382812 343.449219 206.070312 336.484375 207.285156 C 334.777344 207.578125 333.046875 207.726562 331.097656 207.96875 C 330.652344 210.738281 332.859375 212.148438 333.875 214.019531 C 336.230469 218.355469 338.027344 222.550781 333.683594 226.792969 C 332.746094 227.703125 333.113281 228.890625 333.734375 230 C 335.019531 232.292969 336.539062 234.519531 337.371094 236.976562 C 338.832031 241.292969 337.566406 243.527344 333.050781 245.917969 C 332.3125 246.308594 331.632812 246.816406 330.707031 247.414062 C 331.214844 249.765625 331.839844 252.003906 332.15625 254.285156 C 332.671875 258.007812 331.761719 261.382812 328.613281 263.667969 C 325.113281 266.207031 321.285156 265.714844 317.871094 263.628906 C 315.15625 261.96875 312.84375 259.648438 310.363281 257.609375 C 308.515625 256.089844 307.105469 256.582031 306.742188 258.933594 C 306.113281 262.988281 305.671875 267.074219 304.894531 271.097656 C 303.035156 280.734375 297.988281 288.453125 290.242188 294.386719 C 280.816406 301.601562 270.265625 306.578125 258.808594 309.609375 C 255.695312 310.429688 252.496094 310.917969 249.398438 311.777344 C 225.28125 318.464844 201.15625 316.332031 177.148438 311.472656 C 167.382812 309.496094 158.160156 305.675781 149.558594 300.40625 C 141.15625 295.257812 135.5625 288.128906 132.554688 278.800781 C 130.652344 272.898438 129.609375 266.859375 129.179688 260.695312 C 128.878906 256.335938 128.601562 251.980469 128.3125 247.652344 C 125.664062 247.5 125.246094 249.433594 124.511719 250.878906 C 122.777344 254.28125 121.109375 257.722656 118.425781 260.503906 C 114.796875 264.265625 110.851562 263.859375 108.691406 259.101562 C 107.59375 256.691406 106.535156 255.585938 103.832031 255.027344 C 99.570312 254.148438 98.605469 252.417969 98.542969 248.226562 C 98.527344 247.351562 98.617188 246.460938 98.796875 245.605469 C 99.257812 243.382812 98.71875 241.984375 96.644531 240.519531 C 92.714844 237.738281 92.214844 235.617188 93.730469 231.570312 C 94.542969 229.386719 95.738281 227.351562 96.949219 224.859375 Z M 200.070312 164.113281 C 199.335938 164.613281 198.378906 165.230469 197.460938 165.894531 C 196.039062 166.921875 194.664062 167.945312 192.8125 168.210938 C 188.171875 168.863281 184.699219 167.191406 182.597656 161.929688 C 181.40625 158.957031 179.90625 157.71875 176.917969 157.660156 C 175.464844 157.628906 173.976562 157.417969 172.582031 157.019531 C 169.769531 156.222656 167.351562 157.003906 165.148438 158.644531 C 163.039062 160.21875 160.921875 161.816406 158.988281 163.601562 C 148.296875 173.464844 141.976562 185.789062 138.492188 199.796875 C 135.433594 212.09375 134.160156 224.628906 132.800781 237.167969 C 131.746094 246.84375 132.277344 256.503906 133.332031 266.144531 C 133.875 271.128906 135.214844 275.917969 137.023438 280.589844 C 139.425781 286.796875 143.308594 291.769531 148.796875 295.5625 C 153.894531 299.078125 159.3125 301.917969 165.113281 304.054688 C 182.417969 310.425781 200.453125 312.21875 218.699219 312.269531 C 231.976562 312.308594 244.882812 309.378906 257.628906 305.964844 C 267.878906 303.222656 277.503906 298.921875 286.214844 292.742188 C 295.605469 286.082031 300.835938 277.085938 302.285156 265.617188 C 303.667969 254.714844 302.574219 243.964844 301.441406 233.160156 C 299.066406 210.449219 289.945312 190.261719 278.421875 170.964844 C 276.496094 167.738281 275.902344 167.515625 272.117188 169.535156 C 266.128906 172.738281 260.375 172.90625 254.746094 168.933594 C 252.695312 167.484375 251.261719 167.960938 249.34375 169.429688 C 241.667969 175.300781 236.664062 175.449219 228.714844 169.863281 C 226.40625 168.242188 224.925781 168.207031 222.511719 169.613281 C 215.082031 173.933594 210.550781 173.257812 204.355469 167.527344 C 203.09375 166.355469 202.355469 164.570312 200.074219 164.113281 Z M 185.144531 152.777344 C 186.609375 155.242188 185.152344 157.988281 185.988281 160.539062 C 187.371094 164.738281 191.75 165.988281 195.011719 162.976562 C 196.777344 161.34375 197.871094 159.308594 198.636719 157.054688 C 199.105469 155.667969 199.734375 154.207031 201.507812 154.359375 C 202.929688 154.480469 203.105469 155.882812 203.402344 156.992188 C 204.085938 159.546875 204.800781 162.085938 206.488281 164.199219 C 209.988281 168.589844 216.433594 171.632812 222.085938 164.792969 C 223.015625 163.671875 223.816406 162.445312 224.769531 161.351562 C 225.453125 160.574219 226.496094 160.640625 227.074219 161.304688 C 228.019531 162.386719 228.761719 163.664062 229.480469 164.925781 C 233.167969 171.378906 243.824219 172.230469 247.839844 165.230469 C 248.421875 164.21875 248.953125 163.164062 249.625 162.214844 C 250.589844 160.847656 252.222656 160.65625 253.304688 161.949219 C 255.386719 164.445312 257.476562 166.828125 260.753906 167.816406 C 264.6875 168.996094 269.601562 167.746094 271.984375 164.828125 C 274.78125 161.410156 274.820312 157.886719 272.085938 153.617188 C 271.472656 152.664062 270.785156 151.765625 270.074219 150.753906 C 270.859375 149.953125 271.472656 149.367188 272.042969 148.742188 C 275.152344 145.316406 275.199219 142.558594 272.125 139.828125 C 268.304688 136.441406 263.878906 135.628906 259.046875 137.019531 C 257.941406 137.339844 256.976562 138.144531 255.875 138.5 C 254.632812 138.902344 253.507812 138.414062 253.039062 137.183594 C 252.414062 135.558594 252.085938 133.824219 251.496094 132.179688 C 250.257812 128.703125 247.871094 126.171875 244.597656 124.570312 C 238.820312 121.757812 233.4375 123.707031 230.757812 129.496094 C 230.394531 130.289062 230.242188 131.179688 229.914062 131.992188 C 228.277344 136.070312 227.511719 136.238281 224.964844 133.085938 C 224.597656 132.632812 224.324219 132.105469 223.980469 131.632812 C 218.707031 124.375 207.441406 123.789062 201.773438 132.613281 C 201.148438 133.59375 200.679688 134.675781 200.09375 135.683594 C 198.265625 138.789062 197.371094 139 194.824219 136.941406 C 193.464844 135.84375 192.246094 134.523438 190.761719 133.632812 C 181.886719 128.273438 169.890625 134.539062 169.175781 144.839844 C 168.785156 150.523438 172.789062 154.300781 178.414062 153.714844 C 180.671875 153.484375 182.699219 151.582031 185.140625 152.773438 Z M 280.492188 166.496094 C 283.535156 172.15625 286.21875 177.328125 289.066406 182.410156 C 297.792969 197.976562 302.976562 214.664062 305.011719 232.359375 C 305.347656 235.273438 305.484375 238.222656 306.042969 241.089844 C 307.773438 250 313.289062 256.167969 320.757812 260.824219 C 321.242188 261.128906 321.832031 261.308594 322.394531 261.441406 C 325.007812 262.070312 327.816406 260.164062 328.222656 257.472656 C 328.582031 255.105469 328.394531 252.78125 327.339844 250.59375 C 326.453125 248.746094 325.464844 246.949219 324.578125 245.101562 C 323.84375 243.5625 322.597656 241.9375 324.179688 240.308594 C 325.46875 238.984375 326.878906 239.996094 328.199219 240.539062 C 329.007812 240.875 329.789062 241.289062 330.621094 241.546875 C 331.808594 241.914062 333.097656 241.808594 333.800781 240.792969 C 334.210938 240.191406 334.15625 239.074219 333.957031 238.28125 C 332.804688 233.761719 329.359375 230.960938 326.222656 227.851562 C 324.335938 225.980469 320.554688 225.292969 321.488281 221.320312 C 324.285156 219.925781 326.472656 222.375 329.027344 222.519531 C 329.316406 222.539062 329.601562 222.621094 329.894531 222.664062 C 331.859375 222.9375 333.042969 221.230469 332.371094 219.242188 C 330.902344 214.882812 327.519531 211.992188 324.527344 208.785156 C 323.335938 207.511719 321.941406 206.15625 323.105469 204.214844 C 323.964844 202.78125 325.539062 202.734375 327.023438 202.867188 C 328.480469 202.996094 329.921875 203.324219 331.378906 203.433594 C 332.835938 203.546875 334.308594 203.585938 335.765625 203.5 C 338.585938 203.335938 339.804688 201.097656 338.449219 198.53125 C 337.765625 197.246094 336.9375 196.019531 336.027344 194.878906 C 333.078125 191.164062 329.386719 188.265625 325.464844 185.671875 C 312.179688 176.871094 297.65625 170.734375 282.5625 165.851562 C 282.332031 165.777344 282.007812 166.007812 280.488281 166.492188 Z M 143.941406 174.738281 C 142.914062 173.957031 142.085938 174.175781 141.367188 174.671875 C 129.078125 183.203125 116.726562 191.664062 105.414062 201.507812 C 102.308594 204.207031 99.390625 207.152344 97.253906 210.691406 C 95.957031 212.84375 93.738281 215.140625 95.359375 217.851562 C 96.574219 219.878906 99.09375 218.898438 101.078125 219.042969 C 101.367188 219.0625 101.660156 219.089844 101.949219 219.132812 C 104.070312 219.449219 104.96875 221.167969 103.792969 222.929688 C 102.488281 224.878906 100.996094 226.695312 99.605469 228.585938 C 98.378906 230.261719 97.457031 232.058594 97.328125 234.207031 C 97.265625 235.316406 98.433594 236.636719 99.472656 236.367188 C 100.597656 236.074219 101.703125 235.6875 102.78125 235.25 C 104.113281 234.707031 105.582031 233.679688 106.804688 234.9375 C 108.472656 236.640625 106.78125 238.148438 106.023438 239.628906 C 105.089844 241.457031 103.984375 243.195312 103.167969 245.066406 C 102.71875 246.097656 102.625 247.3125 102.542969 248.457031 C 102.429688 250.019531 104.019531 251.082031 105.503906 250.730469 C 107.695312 250.203125 109.367188 247.085938 111.800781 248.648438 C 114.789062 250.570312 111.511719 253.527344 112.304688 255.925781 C 112.554688 256.675781 113.132812 257.632812 113.769531 257.839844 C 114.382812 258.035156 115.53125 257.589844 115.976562 257.042969 C 117.265625 255.464844 118.53125 253.800781 119.425781 251.984375 C 125.25 240.09375 130.378906 227.984375 132.019531 214.644531 C 133.644531 201.453125 136.960938 188.71875 143.425781 176.957031 C 143.796875 176.285156 143.796875 175.40625 143.941406 174.738281 Z M 209.738281 290.621094 C 204.679688 290.425781 200.632812 288.152344 197.5 284.433594 C 191.488281 277.296875 189.433594 268.976562 190.839844 259.78125 C 191.097656 258.125 192.441406 257.457031 194.101562 258.386719 C 198.773438 261.019531 203.75 262.589844 209.0625 263.15625 C 213.558594 263.632812 214.410156 262.941406 214.417969 258.691406 C 214.417969 257.226562 214.332031 255.757812 214.269531 254.296875 C 214.160156 251.816406 213.167969 249.871094 211.171875 248.277344 C 209.121094 246.644531 207.167969 244.828125 205.464844 242.847656 C 204.347656 241.550781 203.519531 239.882812 202.960938 238.246094 C 201.613281 234.273438 204.460938 230.90625 208.464844 231.789062 C 210.425781 232.21875 212.460938 232.953125 214.101562 234.078125 C 216.566406 235.765625 218.707031 236.1875 221.269531 234.355469 C 223.464844 232.785156 225.976562 232.097656 228.757812 232.457031 C 232.421875 232.929688 234.140625 236.167969 232.488281 239.5625 C 231.285156 242.023438 229.449219 243.882812 227.15625 245.265625 C 225.152344 246.472656 223.09375 247.648438 220.941406 248.53125 C 218.289062 249.625 217.601562 251.605469 217.8125 254.15625 C 217.953125 255.902344 218.109375 257.660156 218.425781 259.386719 C 219.007812 262.523438 219.96875 263.074219 223.382812 262.5625 C 227.796875 261.898438 231.785156 260.089844 235.710938 258.085938 C 236.484375 257.691406 237.292969 257.296875 238.132812 257.148438 C 238.617188 257.058594 239.355469 257.304688 239.675781 257.667969 C 239.96875 258 240.113281 258.960938 239.882812 259.183594 C 237.375 261.589844 237.171875 264.933594 236.238281 267.953125 C 234.109375 274.847656 230.621094 280.863281 225.039062 285.488281 C 220.621094 289.15625 215.65625 291.492188 209.738281 290.621094 Z M 227.289062 275.808594 C 229.359375 274.953125 230.214844 273.082031 230.957031 271.171875 C 231.65625 269.359375 233.410156 267.4375 231.703125 265.574219 C 230.328125 264.0625 228.390625 265.410156 226.796875 265.777344 C 217.515625 267.90625 208.34375 268.320312 199.292969 264.6875 C 198.238281 264.261719 197.03125 264.085938 195.886719 264.039062 C 195.007812 264 194.113281 264.496094 194.117188 265.539062 C 194.128906 266.972656 194.214844 268.4375 194.507812 269.835938 C 195.316406 273.648438 196.425781 274.480469 199.828125 273.117188 C 209.1875 269.378906 218.027344 269.992188 226.445312 275.636719 C 226.660156 275.777344 226.988281 275.753906 227.285156 275.808594 Z M 209.410156 287.246094 C 214.1875 287.058594 218.289062 285.984375 221.785156 283.0625 C 223.742188 281.421875 223.804688 279.503906 221.828125 278.050781 C 216.765625 274.335938 211.144531 274 205.296875 275.5 C 202.871094 276.121094 199.519531 276.183594 199.304688 279.410156 C 199.113281 282.230469 201.796875 283.800781 204.082031 285.046875 C 205.832031 286.003906 207.78125 286.589844 209.410156 287.246094 Z M 176.238281 221.546875 C 174.75 219.9375 172.378906 219.816406 170.804688 221.351562 C 168.261719 223.839844 167.976562 227.042969 168.042969 230.289062 C 168.128906 234.320312 170.121094 237.617188 172.53125 238.085938 C 175.230469 238.613281 177.800781 235.320312 178.375 230.371094 C 178.488281 227.410156 178.6875 224.199219 176.234375 221.546875 Z M 263.835938 225.585938 C 262.902344 224.398438 261.660156 223.660156 260.082031 223.921875 C 258.535156 224.179688 257.460938 225.191406 256.941406 226.59375 C 255.546875 230.34375 256.191406 234 257.789062 237.53125 C 258.78125 239.726562 260.769531 241.125 262.425781 240.761719 C 264.753906 240.25 265.515625 238.402344 265.902344 236.316406 C 265.953125 236.035156 265.996094 235.746094 265.976562 235.867188 C 266.472656 231.910156 266.128906 228.515625 263.835938 225.585938 Z M 263.835938 225.585938 " fill-opacity="1" fill-rule="nonzero"/></g></g></g></g></svg>