<svg xmlns="http://www.w3.org/2000/svg" xmlns:xlink="http://www.w3.org/1999/xlink" width="576" zoomAndPan="magnify" viewBox="0 0 432 431.999984" height="576" preserveAspectRatio="xMidYMid meet" version="1.0"><defs><clipPath id="ad83572fb2"><path d="M 78 115 L 340 115 L 340 321 L 78 321 Z M 78 115 " clip-rule="nonzero"/></clipPath><clipPath id="4debe0879d"><path d="M 106.984375 87.59375 L 362.480469 133.007812 L 324.941406 344.199219 L 69.445312 298.78125 Z M 106.984375 87.59375 " clip-rule="nonzero"/></clipPath><clipPath id="c2cc0201ed"><path d="M 106.984375 87.59375 L 362.480469 133.007812 L 324.941406 344.199219 L 69.445312 298.78125 Z M 106.984375 87.59375 " clip-rule="nonzero"/></clipPath></defs><g clip-path="url(#ad83572fb2)"><g clip-path="url(#4debe0879d)"><g clip-path="url(#c2cc0201ed)"><path fill="#ffffff" d="M 159.46875 143.492188 C 163.6875 143.5625 166.296875 141.007812 169.296875 139.527344 C 182.472656 133.035156 196.273438 129.191406 211.015625 128.71875 C 230.949219 128.082031 249.183594 133.347656 265.929688 144.046875 C 268.539062 145.710938 271.175781 147.324219 273.808594 148.941406 C 274.089844 149.113281 274.472656 149.121094 274.898438 149.230469 C 277.742188 147.554688 278.292969 144.261719 279.917969 141.710938 C 284.605469 134.367188 291.078125 129.714844 299.675781 127.886719 C 315.105469 124.609375 329.332031 137.457031 327.355469 153.921875 C 326.015625 165.066406 319.875 172.980469 309.84375 177.871094 C 307.679688 178.925781 305.335938 179.605469 303.152344 180.621094 C 302.152344 181.082031 301.902344 182.175781 302.125 183.242188 C 302.265625 183.910156 302.53125 184.566406 302.839844 185.179688 C 308.613281 196.667969 312.480469 208.773438 314.871094 221.394531 C 315.789062 226.234375 315.996094 226.125 320.820312 226.746094 C 324.230469 227.183594 327.761719 227.40625 330.972656 228.507812 C 337.414062 230.710938 339.085938 234.902344 336.125 241.28125 C 335.082031 243.535156 335.058594 245.054688 336.738281 246.75 C 337.464844 247.476562 338.089844 248.332031 338.609375 249.222656 C 340.371094 252.203125 340.664062 255.65625 338.011719 257.765625 C 334.703125 260.394531 334.804688 263.03125 335.453125 266.65625 C 336.28125 271.308594 333.542969 274.558594 328.855469 275.421875 C 325.773438 275.988281 322.578125 276.214844 319.710938 274.734375 C 314.636719 272.113281 311.230469 273.980469 308.5625 278.386719 C 308.382812 278.679688 308.117188 278.917969 307.894531 279.179688 C 282.738281 309.007812 250.355469 321.792969 211.746094 320.289062 C 182.980469 319.171875 157.300781 309.0625 133.203125 294.09375 C 124.386719 288.621094 116.15625 282.34375 108.46875 275.40625 C 105.523438 272.746094 102.996094 271.859375 99.347656 274.085938 C 96.144531 276.042969 92.640625 277.578125 88.59375 277.125 C 83.191406 276.515625 80.367188 273.410156 81.578125 268.007812 C 82.300781 264.785156 82.894531 262.410156 80.277344 259.609375 C 77.515625 256.660156 78.632812 253.109375 80.996094 250.191406 C 83.269531 247.386719 84.839844 244.96875 82.40625 241.117188 C 80.386719 237.925781 81.832031 234.449219 84.265625 231.625 C 86.347656 229.21875 88.964844 227.519531 91.917969 226.484375 C 94.179688 225.6875 96.582031 224.824219 98.921875 224.824219 C 105.019531 224.832031 107.3125 221.335938 108.484375 216.027344 C 109.300781 212.347656 110.683594 208.777344 111.984375 205.21875 C 115.910156 194.460938 121.480469 184.574219 128.042969 175.207031 C 130.140625 172.214844 129.820312 171.164062 126.882812 169.421875 C 125.40625 168.539062 123.765625 167.917969 122.320312 166.996094 C 112.65625 160.828125 107.1875 152.03125 106.382812 140.585938 C 105.089844 121.984375 122.402344 110.734375 138.164062 117.410156 C 146.589844 120.976562 152.40625 126.898438 156.097656 135.089844 C 157.351562 137.871094 158.382812 140.753906 159.476562 143.488281 Z M 194.980469 314.164062 C 203.238281 315.46875 213.144531 316.796875 223.222656 316.277344 C 256.320312 314.570312 283.925781 301.71875 305.3125 276.085938 C 308.253906 272.5625 310.300781 268.789062 310.949219 264.128906 C 313.410156 246.421875 314.347656 247.65625 296.855469 248.042969 C 292.714844 248.128906 288.574219 248.230469 284.441406 248.121094 C 283.636719 248.097656 282.390625 247.25 282.167969 246.527344 C 281.625 244.757812 283.28125 243.972656 284.511719 243.867188 C 288.972656 243.484375 293.457031 243.386719 297.933594 243.21875 C 301.722656 243.078125 305.523438 243.074219 309.308594 242.847656 C 311.5625 242.714844 312.65625 240.820312 312.199219 238.339844 C 311.757812 235.96875 310.367188 234.722656 307.945312 234.738281 C 303.117188 234.773438 298.292969 234.867188 293.464844 234.890625 C 291.414062 234.898438 289.3125 235.082031 287.445312 233.9375 C 287.167969 233.765625 286.777344 233.410156 286.804688 233.195312 C 286.894531 232.566406 287.019531 231.578125 287.40625 231.417969 C 288.964844 230.789062 290.609375 230.109375 292.257812 230.019531 C 296.386719 229.785156 300.535156 229.90625 304.671875 229.804688 C 310.976562 229.652344 311.851562 228.734375 310.59375 222.253906 C 309.476562 216.507812 308.089844 210.785156 306.371094 205.1875 C 303.214844 194.894531 298.5 185.296875 292.441406 176.378906 C 290.890625 174.101562 289.390625 171.691406 286.492188 170.878906 C 270.589844 166.429688 255.628906 167.484375 242.816406 179.074219 C 234.613281 186.492188 230.023438 196.070312 227.515625 206.738281 C 226.800781 209.777344 227.640625 211.78125 230.136719 213.84375 C 234.886719 217.777344 234.992188 220.730469 230.949219 224.910156 C 226.558594 229.457031 221.296875 232.683594 215.152344 234.382812 C 212.445312 235.132812 209.683594 235.515625 206.980469 234.648438 C 199.53125 232.242188 193.675781 227.445312 188.664062 221.652344 C 186.496094 219.152344 187.085938 216.179688 190.417969 213.957031 C 192.628906 212.480469 193.035156 211.050781 192.457031 208.855469 C 190.679688 202.0625 187.445312 195.957031 183.066406 190.546875 C 171.394531 176.121094 156.628906 170.148438 138.109375 174.257812 C 134.433594 175.074219 131.886719 176.796875 129.824219 179.78125 C 122.703125 190.085938 117.363281 201.269531 113.335938 213.082031 C 111.175781 219.410156 112.027344 220.320312 119.324219 220.425781 C 123.121094 220.480469 126.917969 220.605469 130.714844 220.738281 C 131.742188 220.777344 132.808594 220.84375 133.78125 221.136719 C 135.171875 221.554688 136.390625 222.523438 136.042969 224.058594 C 135.886719 224.753906 134.585938 225.628906 133.773438 225.660156 C 131.71875 225.746094 129.644531 225.21875 127.585938 225.261719 C 122.769531 225.363281 117.9375 225.472656 113.152344 225.953125 C 110.5 226.21875 109.386719 228.179688 109.492188 231.320312 C 109.589844 234.300781 111.789062 234.183594 113.90625 234.167969 C 118.039062 234.136719 122.171875 234.050781 126.296875 234.214844 C 127.039062 234.246094 128.046875 235.242188 128.390625 236.027344 C 128.96875 237.367188 127.578125 237.953125 126.714844 238.046875 C 122.96875 238.460938 119.199219 238.714844 115.429688 238.902344 C 109.074219 239.214844 107.457031 238.640625 107.03125 247.53125 C 106.785156 252.6875 107.257812 257.875 107.226562 263.050781 C 107.207031 267.199219 109.089844 270.144531 112.132812 272.804688 C 135.734375 293.382812 162.238281 308.175781 194.980469 314.164062 Z M 279.863281 163.664062 C 280.300781 161.707031 279.390625 160.582031 278.4375 159.652344 C 263.644531 145.265625 246.082031 135.996094 225.605469 133.664062 C 194.574219 130.128906 167.964844 140.46875 145.367188 161.667969 C 144.117188 162.839844 143 164.167969 141.933594 165.515625 C 141.546875 166.011719 141.230469 166.8125 141.332031 167.398438 C 141.535156 168.570312 142.609375 168.804688 143.617188 168.742188 C 151.660156 168.257812 159.453125 169.417969 166.847656 172.59375 C 180.265625 178.351562 188.929688 188.710938 194.527344 201.882812 C 195.601562 204.414062 196.433594 207.058594 197.191406 209.707031 C 197.867188 212.074219 199.414062 213.152344 201.707031 213.078125 C 206.179688 212.925781 210.652344 212.339844 215.113281 212.445312 C 219.707031 212.554688 221.914062 210.648438 223.058594 206.238281 C 224.976562 198.902344 227.601562 191.792969 231.851562 185.375 C 240.628906 172.105469 252.679688 164.632812 268.773438 164.125 C 272.515625 164.007812 276.253906 163.816406 279.867188 163.664062 Z M 111.003906 135.765625 C 108.910156 147.6875 116.796875 161.96875 131.4375 166.46875 C 133.316406 167.046875 134.800781 166.292969 136.105469 165.089844 C 141.410156 160.214844 146.652344 155.277344 151.984375 150.4375 C 153.960938 148.644531 154.621094 146.589844 154.191406 143.992188 C 152.488281 133.710938 146.828125 126.230469 137.492188 121.980469 C 125.167969 116.367188 113.082031 122.871094 111.003906 135.765625 Z M 307.023438 132.359375 C 296.40625 130.261719 283.472656 138.128906 280.117188 151.558594 C 279.671875 153.335938 280.328125 154.988281 281.589844 156.304688 C 286.617188 161.539062 291.375 167.011719 295.527344 172.96875 C 297.378906 175.625 299.742188 176.003906 302.773438 175.367188 C 314.550781 172.890625 322.730469 163.097656 322.847656 151.0625 C 322.945312 141.3125 316.648438 133.875 307.023438 132.359375 Z M 103 261.882812 C 102.59375 254.945312 103.113281 245.679688 103.976562 236.429688 C 104.101562 235.058594 104.242188 233.6875 104.25 232.3125 C 104.269531 229.792969 102.917969 228.539062 100.46875 228.613281 C 96.953125 228.722656 93.683594 229.71875 90.679688 231.476562 C 88.289062 232.882812 85.8125 234.570312 85.835938 237.664062 C 85.859375 240.511719 88.546875 241.242188 90.632812 242.449219 C 92.570312 243.574219 92.554688 245.042969 90.890625 246.570312 C 88.394531 248.875 85.109375 250.398438 83.769531 253.84375 C 83.199219 255.320312 83.566406 256.511719 84.808594 257.40625 C 86.472656 258.601562 89.34375 257.402344 90.304688 259.578125 C 91.558594 262.417969 88.335938 263.53125 87.324219 265.535156 C 87.015625 266.148438 86.644531 266.730469 86.367188 267.359375 C 85.796875 268.671875 85.691406 269.984375 86.460938 271.285156 C 87.28125 272.667969 88.675781 272.972656 90.027344 272.808594 C 94.242188 272.289062 97.847656 270.28125 101.183594 267.785156 C 102.304688 266.945312 102.976562 265.71875 102.992188 261.882812 Z M 323.101562 271.199219 C 324.410156 271.28125 325.441406 271.402344 326.46875 271.394531 C 330.175781 271.375 332.152344 268.117188 330.214844 265.066406 C 329.3125 263.636719 327.972656 262.484375 326.953125 261.117188 C 325.5625 259.253906 325.960938 257.808594 328.019531 257.136719 C 330.523438 256.320312 334.195312 256.992188 335.027344 253.886719 C 336.023438 250.175781 332.3125 248.859375 329.953125 247.046875 C 329.414062 246.632812 328.746094 246.382812 328.195312 245.980469 C 324.949219 243.632812 325.097656 242.582031 329.011719 240.378906 C 329.90625 239.878906 330.921875 239.585938 331.773438 239.03125 C 333.867188 237.65625 333.917969 235.460938 332.109375 233.945312 C 329.007812 231.347656 325.410156 230.644531 321.507812 230.882812 C 318.042969 231.09375 316.636719 232.34375 316.6875 236.011719 C 316.808594 244.960938 316.40625 253.867188 315.507812 262.765625 C 315.40625 263.78125 315.460938 264.828125 315.5625 265.847656 C 315.742188 267.707031 316.726562 269.0625 318.46875 269.71875 C 320.066406 270.320312 321.730469 270.761719 323.109375 271.191406 Z M 182.476562 246.625 C 198.753906 250.191406 215.140625 251.691406 231.726562 248.941406 C 237.207031 248.035156 242.488281 246.535156 247.546875 244.257812 C 249.117188 243.546875 250.601562 242.597656 252.226562 242.078125 C 255.535156 241.023438 258.613281 242.597656 258.699219 246.378906 C 258.84375 252.785156 257.316406 258.773438 254.015625 264.152344 C 232.90625 298.539062 190.714844 292.847656 172.511719 269.167969 C 167.773438 263.003906 165.160156 255.925781 164.386719 248.210938 C 164.03125 244.6875 165.863281 242.964844 169.367188 243.625 C 173.769531 244.457031 178.113281 245.613281 182.480469 246.628906 Z M 204.980469 283.5 C 210.835938 284.375 217.25 284.222656 223.519531 282.078125 C 225.261719 281.476562 225.621094 279.171875 224.242188 277.980469 C 217.007812 271.707031 203.640625 271.222656 195.574219 276.941406 C 194.589844 277.640625 194.753906 279.605469 195.746094 280.367188 C 198.296875 282.320312 201.359375 282.71875 204.988281 283.503906 Z M 270.871094 207.484375 C 269.347656 203.445312 264.753906 202.765625 261.722656 206.023438 C 259.402344 208.515625 258.929688 211.488281 259.148438 214.652344 C 259.492188 219.582031 262.171875 223.070312 265.3125 222.90625 C 268.046875 222.761719 270.796875 219.582031 271.617188 215.605469 C 272.074219 213.386719 271.746094 209.800781 270.867188 207.480469 Z M 168.40625 205.671875 C 167.121094 202.269531 162.363281 201.4375 159.917969 204.148438 C 156.597656 207.832031 156.132812 214.445312 158.910156 218.453125 C 160.566406 220.851562 164.105469 221.152344 165.996094 219.050781 C 167.632812 217.234375 168.699219 215.121094 169.203125 212.726562 C 169.574219 210.300781 169.265625 207.941406 168.40625 205.671875 Z M 216.761719 154.09375 C 222.445312 150.5 228.390625 148.078125 235.28125 148.660156 C 236.273438 148.746094 237.347656 148.429688 238.304688 148.078125 C 238.84375 147.875 239.480469 147.304688 239.625 146.777344 C 239.972656 145.53125 238.980469 144.777344 238.015625 144.589844 C 236.003906 144.199219 233.925781 143.820312 231.902344 143.941406 C 226.289062 144.265625 221.019531 145.929688 216.375 149.140625 C 212.074219 152.117188 207.722656 152.929688 202.699219 150.988281 C 199.835938 149.878906 196.675781 149.507812 193.632812 148.90625 C 190.144531 148.21875 186.757812 148.738281 183.542969 150.207031 C 182.640625 150.613281 181.582031 151.179688 181.730469 152.453125 C 181.867188 153.632812 182.757812 154.210938 183.835938 153.941406 C 190.46875 152.300781 196.824219 152.863281 202.953125 155.980469 C 203.851562 156.4375 204.949219 156.503906 204.855469 156.480469 C 209.976562 157.558594 213.5 156.152344 216.753906 154.09375 Z M 223.992188 165.953125 C 227.441406 163.628906 231.398438 162.402344 235.566406 161.910156 C 236.601562 161.789062 237.714844 161.101562 237.246094 159.984375 C 236.9375 159.25 235.742188 158.703125 234.839844 158.449219 C 232.402344 157.769531 230.039062 158.492188 227.8125 159.398438 C 225.273438 160.433594 222.738281 161.554688 220.386719 162.945312 C 215.078125 166.082031 209.535156 166.863281 203.527344 165.578125 C 200.183594 164.863281 196.75 164.535156 193.339844 164.175781 C 192.902344 164.125 192.273438 164.863281 191.914062 165.371094 C 191.429688 166.046875 191.746094 166.605469 192.445312 167.109375 C 194.789062 168.796875 197.605469 168.828125 200.246094 169.390625 C 208.613281 171.296875 216.589844 170.941406 223.996094 165.953125 Z M 223.992188 165.953125 " fill-opacity="1" fill-rule="nonzero"/></g></g></g></svg>