<svg xmlns="http://www.w3.org/2000/svg" xmlns:xlink="http://www.w3.org/1999/xlink" width="576" zoomAndPan="magnify" viewBox="0 0 432 431.999984" height="576" preserveAspectRatio="xMidYMid meet" version="1.0"><defs><clipPath id="263fd9be84"><path d="M 78 115 L 340 115 L 340 321 L 78 321 Z M 78 115 " clip-rule="nonzero"/></clipPath><clipPath id="d43090e38f"><path d="M 106.984375 87.59375 L 362.480469 133.007812 L 324.941406 344.199219 L 69.445312 298.78125 Z M 106.984375 87.59375 " clip-rule="nonzero"/></clipPath><clipPath id="4cff940824"><path d="M 106.984375 87.59375 L 362.480469 133.007812 L 324.941406 344.199219 L 69.445312 298.78125 Z M 106.984375 87.59375 " clip-rule="nonzero"/></clipPath><clipPath id="f49f8680a8"><path d="M 106.984375 87.59375 L 362.480469 133.007812 L 324.941406 344.199219 L 69.445312 298.78125 Z M 106.984375 87.59375 " clip-rule="nonzero"/></clipPath></defs><g clip-path="url(#263fd9be84)"><g clip-path="url(#d43090e38f)"><g clip-path="url(#4cff940824)"><g clip-path="url(#f49f8680a8)"><path fill="#000000" d="M 159.453125 143.449219 C 163.667969 143.519531 166.277344 140.964844 169.277344 139.488281 C 182.445312 133.003906 196.242188 129.164062 210.976562 128.691406 C 230.898438 128.058594 249.128906 133.320312 265.867188 144.011719 C 268.476562 145.671875 271.113281 147.289062 273.746094 148.902344 C 274.023438 149.074219 274.40625 149.082031 274.835938 149.191406 C 277.675781 147.519531 278.226562 144.226562 279.851562 141.679688 C 284.535156 134.34375 291.003906 129.695312 299.597656 127.867188 C 315.019531 124.59375 329.242188 137.433594 327.269531 153.882812 C 325.929688 165.019531 319.792969 172.925781 309.765625 177.808594 C 307.601562 178.863281 305.261719 179.542969 303.078125 180.554688 C 302.078125 181.015625 301.828125 182.109375 302.050781 183.175781 C 302.191406 183.84375 302.457031 184.5 302.765625 185.109375 C 308.539062 196.589844 312.402344 208.6875 314.796875 221.296875 C 315.714844 226.132812 315.917969 226.019531 320.742188 226.644531 C 324.148438 227.082031 327.679688 227.304688 330.890625 228.402344 C 337.328125 230.605469 339 234.792969 336.042969 241.167969 C 334.996094 243.417969 334.976562 244.9375 336.65625 246.632812 C 337.378906 247.359375 338.007812 248.214844 338.527344 249.101562 C 340.285156 252.082031 340.578125 255.53125 337.929688 257.636719 C 334.621094 260.261719 334.722656 262.898438 335.371094 266.519531 C 336.203125 271.167969 333.460938 274.417969 328.777344 275.277344 C 325.695312 275.84375 322.5 276.070312 319.636719 274.589844 C 314.5625 271.96875 311.160156 273.835938 308.492188 278.242188 C 308.316406 278.53125 308.046875 278.769531 307.824219 279.03125 C 282.679688 308.832031 250.316406 321.601562 211.71875 320.097656 C 182.964844 318.980469 157.296875 308.875 133.207031 293.921875 C 124.394531 288.449219 116.167969 282.179688 108.480469 275.242188 C 105.539062 272.589844 103.011719 271.699219 99.367188 273.925781 C 96.164062 275.878906 92.660156 277.414062 88.617188 276.960938 C 83.21875 276.351562 80.394531 273.25 81.605469 267.851562 C 82.328125 264.632812 82.921875 262.257812 80.300781 259.460938 C 77.542969 256.511719 78.65625 252.964844 81.019531 250.050781 C 83.292969 247.25 84.863281 244.832031 82.425781 240.984375 C 80.410156 237.792969 81.855469 234.320312 84.289062 231.5 C 86.367188 229.09375 88.984375 227.398438 91.9375 226.363281 C 94.199219 225.570312 96.597656 224.703125 98.933594 224.707031 C 105.03125 224.714844 107.320312 221.222656 108.496094 215.914062 C 109.308594 212.238281 110.691406 208.671875 111.992188 205.121094 C 115.914062 194.371094 121.480469 184.492188 128.042969 175.132812 C 130.136719 172.144531 129.816406 171.097656 126.882812 169.351562 C 125.402344 168.472656 123.765625 167.851562 122.320312 166.929688 C 112.660156 160.765625 107.191406 151.976562 106.386719 140.542969 C 105.089844 121.953125 122.398438 110.714844 138.152344 117.386719 C 146.574219 120.953125 152.390625 126.871094 156.082031 135.050781 C 157.335938 137.832031 158.367188 140.714844 159.457031 143.445312 Z M 194.960938 313.976562 C 203.214844 315.28125 213.117188 316.609375 223.191406 316.089844 C 256.277344 314.386719 283.871094 301.550781 305.246094 275.941406 C 308.183594 272.421875 310.230469 268.648438 310.878906 263.996094 C 313.335938 246.304688 314.273438 247.535156 296.785156 247.917969 C 292.652344 248.007812 288.507812 248.105469 284.378906 247.996094 C 283.578125 247.972656 282.332031 247.125 282.105469 246.40625 C 281.5625 244.636719 283.222656 243.851562 284.449219 243.75 C 288.910156 243.367188 293.390625 243.269531 297.863281 243.101562 C 301.65625 242.960938 305.453125 242.957031 309.238281 242.730469 C 311.488281 242.597656 312.582031 240.707031 312.125 238.226562 C 311.683594 235.859375 310.296875 234.613281 307.875 234.628906 C 303.046875 234.660156 298.222656 234.757812 293.398438 234.777344 C 291.351562 234.785156 289.246094 234.96875 287.378906 233.824219 C 287.105469 233.65625 286.710938 233.300781 286.742188 233.085938 C 286.832031 232.457031 286.953125 231.46875 287.339844 231.308594 C 288.902344 230.679688 290.542969 230.003906 292.191406 229.910156 C 296.320312 229.679688 300.464844 229.800781 304.601562 229.699219 C 310.902344 229.546875 311.777344 228.628906 310.519531 222.15625 C 309.402344 216.414062 308.011719 210.695312 306.296875 205.105469 C 303.140625 194.820312 298.429688 185.226562 292.371094 176.320312 C 290.820312 174.039062 289.320312 171.632812 286.425781 170.820312 C 270.527344 166.375 255.574219 167.429688 242.765625 179.007812 C 234.566406 186.417969 229.980469 195.988281 227.472656 206.644531 C 226.757812 209.683594 227.597656 211.683594 230.09375 213.746094 C 234.84375 217.675781 234.949219 220.625 230.910156 224.804688 C 226.519531 229.34375 221.261719 232.570312 215.117188 234.265625 C 212.414062 235.015625 209.652344 235.398438 206.949219 234.527344 C 199.503906 232.128906 193.652344 227.332031 188.640625 221.546875 C 186.476562 219.046875 187.0625 216.078125 190.390625 213.855469 C 192.605469 212.378906 193.007812 210.949219 192.433594 208.757812 C 190.652344 201.96875 187.417969 195.871094 183.042969 190.464844 C 171.375 176.050781 156.613281 170.082031 138.101562 174.1875 C 134.429688 175 131.882812 176.722656 129.824219 179.703125 C 122.707031 190 117.371094 201.171875 113.34375 212.972656 C 111.1875 219.296875 112.035156 220.207031 119.328125 220.3125 C 123.125 220.367188 126.917969 220.492188 130.714844 220.625 C 131.746094 220.664062 132.808594 220.730469 133.78125 221.023438 C 135.167969 221.445312 136.390625 222.410156 136.042969 223.945312 C 135.886719 224.640625 134.585938 225.511719 133.769531 225.542969 C 131.71875 225.628906 129.644531 225.101562 127.589844 225.144531 C 122.773438 225.246094 117.945312 225.355469 113.160156 225.835938 C 110.507812 226.097656 109.398438 228.058594 109.503906 231.195312 C 109.601562 234.171875 111.800781 234.058594 113.914062 234.042969 C 118.042969 234.011719 122.175781 233.925781 126.300781 234.089844 C 127.042969 234.121094 128.050781 235.117188 128.390625 235.898438 C 128.972656 237.242188 127.582031 237.824219 126.71875 237.917969 C 122.972656 238.332031 119.207031 238.585938 115.4375 238.773438 C 109.085938 239.085938 107.46875 238.511719 107.046875 247.394531 C 106.796875 252.546875 107.269531 257.726562 107.242188 262.898438 C 107.21875 267.046875 109.101562 269.988281 112.148438 272.648438 C 135.738281 293.207031 162.230469 307.988281 194.960938 313.976562 Z M 279.796875 163.609375 C 280.234375 161.65625 279.324219 160.535156 278.371094 159.601562 C 263.585938 145.226562 246.027344 135.964844 225.558594 133.632812 C 194.539062 130.097656 167.945312 140.429688 145.359375 161.609375 C 144.109375 162.777344 142.988281 164.105469 141.925781 165.449219 C 141.539062 165.945312 141.222656 166.746094 141.324219 167.332031 C 141.527344 168.503906 142.601562 168.734375 143.609375 168.675781 C 151.644531 168.191406 159.4375 169.355469 166.828125 172.523438 C 180.242188 178.277344 188.902344 188.628906 194.5 201.792969 C 195.570312 204.320312 196.40625 206.964844 197.160156 209.609375 C 197.835938 211.976562 199.386719 213.054688 201.679688 212.976562 C 206.148438 212.824219 210.617188 212.242188 215.078125 212.347656 C 219.667969 212.457031 221.875 210.550781 223.019531 206.148438 C 224.933594 198.816406 227.558594 191.714844 231.808594 185.300781 C 240.582031 172.042969 252.625 164.578125 268.714844 164.074219 C 272.453125 163.957031 276.1875 163.765625 279.800781 163.613281 Z M 111.003906 135.726562 C 108.914062 147.636719 116.800781 161.902344 131.433594 166.402344 C 133.3125 166.980469 134.796875 166.226562 136.101562 165.027344 C 141.398438 160.15625 146.640625 155.222656 151.96875 150.386719 C 153.945312 148.59375 154.609375 146.542969 154.175781 143.949219 C 152.472656 133.675781 146.8125 126.199219 137.484375 121.953125 C 125.164062 116.34375 113.082031 122.84375 111.003906 135.726562 Z M 306.941406 132.335938 C 296.332031 130.238281 283.402344 138.101562 280.050781 151.519531 C 279.605469 153.292969 280.261719 154.941406 281.519531 156.257812 C 286.546875 161.492188 291.300781 166.957031 295.457031 172.914062 C 297.304688 175.566406 299.667969 175.945312 302.695312 175.308594 C 314.472656 172.835938 322.644531 163.050781 322.761719 151.027344 C 322.855469 141.285156 316.566406 133.851562 306.941406 132.335938 Z M 103.015625 261.734375 C 102.609375 254.800781 103.128906 245.542969 103.988281 236.304688 C 104.117188 234.933594 104.253906 233.5625 104.265625 232.1875 C 104.28125 229.671875 102.929688 228.417969 100.484375 228.492188 C 96.96875 228.601562 93.699219 229.59375 90.699219 231.351562 C 88.308594 232.753906 85.832031 234.441406 85.855469 237.53125 C 85.878906 240.378906 88.566406 241.109375 90.652344 242.316406 C 92.589844 243.4375 92.570312 244.90625 90.910156 246.433594 C 88.414062 248.734375 85.132812 250.253906 83.792969 253.699219 C 83.222656 255.175781 83.589844 256.367188 84.832031 257.261719 C 86.496094 258.453125 89.363281 257.253906 90.324219 259.425781 C 91.582031 262.269531 88.359375 263.378906 87.347656 265.382812 C 87.039062 265.992188 86.667969 266.574219 86.390625 267.203125 C 85.820312 268.515625 85.714844 269.824219 86.484375 271.125 C 87.304688 272.507812 88.699219 272.8125 90.050781 272.648438 C 94.261719 272.128906 97.867188 270.125 101.203125 267.628906 C 102.320312 266.789062 102.992188 265.566406 103.007812 261.730469 Z M 323.023438 271.058594 C 324.335938 271.140625 325.363281 271.261719 326.390625 271.253906 C 330.09375 271.234375 332.070312 267.980469 330.136719 264.929688 C 329.230469 263.503906 327.890625 262.351562 326.871094 260.984375 C 325.484375 259.125 325.882812 257.679688 327.9375 257.011719 C 330.441406 256.191406 334.113281 256.867188 334.945312 253.761719 C 335.9375 250.054688 332.234375 248.738281 329.875 246.925781 C 329.332031 246.511719 328.664062 246.265625 328.113281 245.863281 C 324.871094 243.515625 325.019531 242.464844 328.933594 240.265625 C 329.824219 239.765625 330.839844 239.472656 331.691406 238.917969 C 333.78125 237.546875 333.835938 235.351562 332.027344 233.839844 C 328.925781 231.242188 325.328125 230.539062 321.429688 230.777344 C 317.964844 230.988281 316.5625 232.234375 316.613281 235.902344 C 316.734375 244.84375 316.332031 253.742188 315.433594 262.628906 C 315.332031 263.644531 315.386719 264.691406 315.488281 265.710938 C 315.667969 267.566406 316.652344 268.921875 318.394531 269.578125 C 319.992188 270.179688 321.65625 270.621094 323.035156 271.050781 Z M 182.457031 246.492188 C 198.726562 250.058594 215.105469 251.5625 231.6875 248.8125 C 237.164062 247.90625 242.445312 246.40625 247.5 244.132812 C 249.070312 243.425781 250.550781 242.476562 252.179688 241.957031 C 255.488281 240.902344 258.5625 242.480469 258.648438 246.257812 C 258.792969 252.652344 257.265625 258.636719 253.96875 264.011719 C 232.871094 298.367188 190.695312 292.679688 172.496094 269.015625 C 167.761719 262.859375 165.148438 255.789062 164.375 248.078125 C 164.019531 244.558594 165.851562 242.835938 169.355469 243.496094 C 173.753906 244.328125 178.09375 245.484375 182.460938 246.496094 Z M 204.957031 283.339844 C 210.808594 284.214844 217.21875 284.0625 223.484375 281.917969 C 225.226562 281.320312 225.585938 279.019531 224.207031 277.824219 C 216.976562 271.554688 203.617188 271.074219 195.550781 276.785156 C 194.566406 277.484375 194.730469 279.445312 195.726562 280.207031 C 198.273438 282.160156 201.335938 282.558594 204.960938 283.34375 Z M 270.8125 207.394531 C 269.289062 203.359375 264.695312 202.679688 261.664062 205.933594 C 259.347656 208.421875 258.875 211.394531 259.097656 214.554688 C 259.4375 219.480469 262.117188 222.96875 265.253906 222.800781 C 267.992188 222.65625 270.738281 219.484375 271.558594 215.511719 C 272.015625 213.292969 271.683594 209.710938 270.808594 207.390625 Z M 168.390625 205.574219 C 167.105469 202.175781 162.351562 201.34375 159.90625 204.054688 C 156.589844 207.734375 156.121094 214.339844 158.898438 218.34375 C 160.554688 220.742188 164.09375 221.042969 165.980469 218.945312 C 167.617188 217.128906 168.683594 215.015625 169.1875 212.625 C 169.558594 210.203125 169.25 207.84375 168.390625 205.574219 Z M 216.722656 154.046875 C 222.398438 150.457031 228.34375 148.035156 235.234375 148.621094 C 236.222656 148.703125 237.296875 148.390625 238.253906 148.035156 C 238.792969 147.835938 239.429688 147.261719 239.574219 146.738281 C 239.921875 145.492188 238.929688 144.742188 237.964844 144.550781 C 235.953125 144.160156 233.875 143.785156 231.855469 143.902344 C 226.242188 144.226562 220.972656 145.886719 216.335938 149.097656 C 212.035156 152.070312 207.683594 152.882812 202.664062 150.941406 C 199.800781 149.835938 196.644531 149.460938 193.601562 148.863281 C 190.113281 148.175781 186.730469 148.695312 183.515625 150.160156 C 182.613281 150.566406 181.558594 151.132812 181.703125 152.402344 C 181.839844 153.582031 182.730469 154.15625 183.808594 153.890625 C 190.4375 152.25 196.792969 152.816406 202.917969 155.929688 C 203.816406 156.382812 204.914062 156.453125 204.820312 156.429688 C 209.9375 157.507812 213.460938 156.101562 216.714844 154.042969 Z M 223.949219 165.894531 C 227.398438 163.574219 231.355469 162.351562 235.519531 161.855469 C 236.554688 161.734375 237.667969 161.046875 237.195312 159.929688 C 236.886719 159.199219 235.691406 158.652344 234.792969 158.398438 C 232.355469 157.71875 229.996094 158.441406 227.769531 159.347656 C 225.230469 160.378906 222.695312 161.5 220.34375 162.890625 C 215.039062 166.023438 209.496094 166.804688 203.492188 165.519531 C 200.148438 164.804688 196.71875 164.476562 193.3125 164.117188 C 192.871094 164.066406 192.242188 164.804688 191.886719 165.308594 C 191.402344 165.984375 191.714844 166.546875 192.414062 167.046875 C 194.757812 168.734375 197.574219 168.765625 200.214844 169.328125 C 208.578125 171.230469 216.550781 170.875 223.953125 165.894531 Z M 223.949219 165.894531 " fill-opacity="1" fill-rule="nonzero"/></g></g></g></g></svg>