<svg xmlns="http://www.w3.org/2000/svg" xmlns:xlink="http://www.w3.org/1999/xlink" width="576" zoomAndPan="magnify" viewBox="0 0 432 431.999984" height="576" preserveAspectRatio="xMidYMid meet" version="1.0"><defs><clipPath id="93e8d04964"><path d="M 119 102 L 324 102 L 324 324 L 119 324 Z M 119 102 " clip-rule="nonzero"/></clipPath><clipPath id="d0e8b14c74"><path d="M 150.179688 74.042969 L 357.59375 148.867188 L 282.003906 358.398438 L 74.589844 283.574219 Z M 150.179688 74.042969 " clip-rule="nonzero"/></clipPath><clipPath id="79d0419dd3"><path d="M 150.179688 74.042969 L 357.59375 148.867188 L 282.003906 358.398438 L 74.589844 283.574219 Z M 150.179688 74.042969 " clip-rule="nonzero"/></clipPath><clipPath id="5070152416"><path d="M 150.179688 74.042969 L 357.59375 148.867188 L 282.003906 358.398438 L 74.589844 283.574219 Z M 150.179688 74.042969 " clip-rule="nonzero"/></clipPath></defs><g clip-path="url(#93e8d04964)"><g clip-path="url(#d0e8b14c74)"><g clip-path="url(#79d0419dd3)"><g clip-path="url(#5070152416)"><path fill="#000000" d="M 306.863281 203.804688 C 307.410156 205.496094 307.832031 206.976562 308.363281 208.417969 C 318.066406 234.707031 317.179688 260.898438 307.441406 286.933594 C 305.925781 290.992188 303.527344 294.707031 301.761719 298.683594 C 299.886719 302.910156 296.636719 305.527344 292.714844 307.710938 C 285.585938 311.675781 278.082031 314.636719 270.246094 316.769531 C 248.066406 322.820312 225.515625 324.121094 202.679688 322.1875 C 183.902344 320.59375 165.808594 316.464844 148.6875 308.441406 C 146.714844 307.519531 144.769531 306.546875 142.847656 305.527344 C 135.0625 301.390625 130.082031 295.085938 127.03125 286.757812 C 118.738281 264.15625 117.738281 241.171875 122.703125 217.816406 C 124.191406 210.828125 125.738281 203.785156 128.941406 197.304688 C 130.199219 194.765625 130.144531 192.648438 128.105469 190.519531 C 126.605469 188.957031 125.175781 187.261719 124.039062 185.421875 C 116.714844 173.542969 118.511719 161.867188 125.191406 152.035156 C 131.660156 142.515625 144.511719 138.148438 155.875 140.933594 C 161.824219 142.394531 166.757812 145.636719 170.667969 150.222656 C 173.023438 152.988281 175.328125 153.757812 178.769531 152.496094 C 187.609375 149.257812 196.871094 148.0625 206.203125 147.261719 C 211.332031 146.820312 211.277344 146.699219 211.894531 141.902344 C 212.371094 138.203125 212.769531 134.476562 213.59375 130.851562 C 214.34375 127.53125 213.125 125.636719 210.386719 123.957031 C 207.757812 122.34375 205.242188 120.441406 203.027344 118.296875 C 200.527344 115.878906 198.945312 112.847656 198.839844 109.191406 C 198.71875 105.101562 202.1875 102.117188 206.183594 103.011719 C 209.015625 103.640625 211.449219 104.960938 213.097656 107.410156 C 214.136719 108.945312 215.058594 110.566406 215.957031 112.191406 C 218.386719 116.605469 218.425781 116.671875 222.238281 112.757812 C 224.433594 110.515625 226.640625 108.292969 229.5625 107.089844 C 231.25 106.394531 233.117188 105.808594 234.914062 105.773438 C 237.816406 105.714844 240.546875 106.691406 242.003906 109.449219 C 243.441406 112.164062 242.886719 114.9375 241.304688 117.441406 C 239.785156 119.84375 237.632812 121.65625 235.289062 123.230469 C 231.625 125.6875 227.625 127.523438 223.269531 128.121094 C 218.753906 128.738281 216.730469 131.179688 216.511719 135.523438 C 216.464844 136.449219 216.207031 137.363281 216.082031 138.289062 C 215.03125 146.175781 215.394531 146.589844 223.34375 147.308594 C 229.535156 147.867188 235.710938 148.46875 241.824219 149.734375 C 251.070312 151.652344 259.800781 154.769531 267.832031 159.726562 C 270.109375 161.132812 271.792969 160.867188 273.496094 158.867188 C 274.703125 157.453125 276.09375 156.167969 277.53125 154.992188 C 291.085938 143.894531 307.910156 148.515625 316.402344 157.734375 C 326.796875 169.023438 326.109375 186.671875 314.878906 197.304688 C 312.429688 199.625 309.632812 201.578125 306.859375 203.808594 Z M 299.503906 291.121094 C 300.027344 290.910156 300.820312 290.839844 301.011719 290.464844 C 302.28125 287.980469 303.632812 285.507812 304.570312 282.886719 C 311.992188 262.105469 313.042969 240.972656 307.722656 219.554688 C 306.976562 216.539062 306.003906 213.574219 304.949219 210.652344 C 302.921875 205.039062 302.574219 204.558594 297.03125 205.128906 C 295.523438 205.285156 293.894531 205.695312 292.515625 204.671875 C 292.074219 204.347656 291.652344 203.726562 291.613281 203.210938 C 291.578125 202.699219 291.890625 201.941406 292.300781 201.65625 C 294.484375 200.160156 297.113281 200.871094 299.519531 200.402344 C 311.648438 198.03125 319.820312 187.824219 319.171875 175.695312 C 318.492188 162.902344 308.234375 153.078125 295.347656 152.882812 C 282.816406 152.695312 272.066406 162.628906 271.089844 175.34375 C 270.996094 176.582031 271.085938 177.832031 271.121094 179.074219 C 271.148438 180.007812 271.285156 180.9375 271.261719 181.871094 C 271.246094 182.808594 271.074219 183.910156 270.039062 184.101562 C 269.074219 184.28125 268.457031 183.441406 268.132812 182.53125 C 266.726562 178.5625 267.234375 174.542969 267.886719 170.542969 C 268.398438 167.421875 267.316406 165.242188 264.730469 163.402344 C 259.050781 159.359375 252.726562 156.773438 246.050781 155.171875 C 228.316406 150.917969 210.402344 150 192.394531 153.199219 C 188.121094 153.953125 183.910156 155.121094 179.742188 156.355469 C 176.796875 157.230469 176.226562 158.21875 176.800781 161.183594 C 177.574219 165.171875 178.304688 169.125 177.113281 173.125 C 176.976562 173.582031 176.257812 174.105469 175.773438 174.140625 C 175.355469 174.171875 174.554688 173.613281 174.488281 173.21875 C 173.980469 170.164062 173.847656 167.023438 173.148438 164.019531 C 170.660156 153.359375 161.460938 145.519531 150.648438 144.617188 C 140.070312 143.730469 129.429688 150.304688 125.34375 160.25 C 121.308594 170.070312 124.4375 181.992188 133.035156 188.890625 C 137.527344 192.5 142.742188 194.320312 148.550781 194.367188 C 150.390625 194.378906 152.324219 194.09375 153.945312 195.234375 C 154.347656 195.519531 154.464844 196.269531 154.59375 196.839844 C 154.640625 197.0625 154.441406 197.515625 154.234375 197.597656 C 153.128906 198.074219 152.003906 198.761719 150.847656 198.847656 C 146.472656 199.152344 142.214844 198.535156 138 197.199219 C 134.582031 196.117188 133.808594 196.679688 132.324219 199.984375 C 132.199219 200.265625 132.074219 200.554688 131.964844 200.84375 C 123.464844 223.222656 121.527344 246.140625 126.28125 269.609375 C 126.40625 270.21875 126.503906 270.867188 126.800781 271.394531 C 127.066406 271.863281 127.558594 272.460938 128.003906 272.507812 C 128.464844 272.554688 129.277344 272.125 129.4375 271.707031 C 130.238281 269.691406 130.894531 267.613281 131.558594 265.542969 C 133.949219 258.070312 137.617188 251.25 142.085938 244.835938 C 159.933594 219.21875 194.507812 204.5625 231.820312 216.074219 C 266.230469 226.6875 288.121094 250.179688 297.21875 285.261719 C 297.746094 287.285156 297.488281 289.660156 299.507812 291.117188 Z M 161.835938 309.828125 C 165.394531 310.9375 168.90625 312.253906 172.527344 313.121094 C 199.4375 319.582031 226.582031 320.863281 253.925781 316.378906 C 264.386719 314.664062 274.683594 312.132812 284.289062 307.539062 C 297.421875 301.257812 296.882812 302.390625 293.746094 288.578125 C 285.40625 251.945312 262.734375 228.523438 226.371094 218.789062 C 208.632812 214.039062 191.105469 215.40625 174.488281 223.253906 C 149.714844 234.957031 136.082031 254.894531 132.699219 281.996094 C 132.09375 286.867188 132.777344 291.402344 136.234375 295.015625 C 138.363281 297.234375 140.839844 299.207031 143.425781 300.882812 C 149.179688 304.609375 155.265625 307.730469 161.839844 309.828125 Z M 221.835938 120.628906 C 221.835938 121.175781 221.511719 122.289062 221.929688 122.875 C 222.335938 123.445312 223.574219 123.832031 224.324219 123.683594 C 229.644531 122.625 234.25 120.265625 237.535156 115.777344 C 238.835938 114.007812 238.851562 111.855469 237.664062 110.683594 C 236.394531 109.429688 234.867188 109.484375 233.347656 109.929688 C 227.902344 111.535156 224.578125 115.496094 221.835938 120.628906 Z M 212.933594 118.394531 C 213.027344 118.140625 213.253906 117.835938 213.214844 117.578125 C 212.496094 113.171875 210.761719 109.34375 206.632812 107.148438 C 206.003906 106.8125 204.695312 107.039062 204.109375 107.511719 C 203.511719 107.984375 202.996094 109.195312 203.164062 109.90625 C 204.234375 114.363281 206.921875 117.507812 211.347656 118.960938 C 211.757812 119.09375 212.371094 118.609375 212.9375 118.394531 Z M 225.265625 187.097656 C 228.78125 188.65625 232.011719 187.683594 234.632812 184.992188 C 237.714844 181.832031 238.304688 177.132812 236.289062 172.910156 C 235.730469 171.742188 234.71875 170.503906 233.515625 170.789062 C 231.253906 171.324219 232.214844 173.039062 232.726562 174.449219 C 232.9375 175.035156 233.222656 175.605469 233.335938 176.210938 C 234 179.792969 233.074219 181.878906 230.292969 183.167969 C 227.667969 184.382812 225.117188 183.679688 223.046875 180.757812 C 221.625 178.753906 220.632812 176.445312 219.375 174.316406 C 218.804688 173.355469 216.730469 173.484375 216.195312 174.515625 C 215.34375 176.167969 214.695312 177.925781 213.796875 179.550781 C 212.550781 181.796875 210.972656 183.734375 207.992188 183.34375 C 205.40625 183.003906 203.6875 180.835938 203.292969 177.199219 C 203.09375 175.371094 203.390625 173.496094 203.285156 171.65625 C 203.265625 171.214844 202.597656 170.542969 202.148438 170.472656 C 201.71875 170.40625 200.953125 170.867188 200.738281 171.296875 C 198.449219 175.902344 198.886719 180.332031 201.957031 184.429688 C 204.503906 187.832031 208 188.761719 211.859375 186.855469 C 213.765625 185.914062 215.390625 184.410156 217.644531 182.796875 C 220.441406 184.398438 222.746094 185.984375 225.265625 187.097656 Z M 131.6875 175.457031 C 131.902344 175.917969 132.5625 176.210938 133.074219 176.472656 C 133.207031 176.539062 133.710938 176.242188 133.78125 176.027344 C 134.15625 174.882812 134.464844 173.714844 134.765625 172.546875 C 137.492188 162.0625 143.488281 158.6875 154.1875 161.609375 C 155.371094 161.933594 156.550781 162.335938 157.753906 162.476562 C 158.148438 162.527344 158.847656 161.929688 159 161.488281 C 159.15625 161.023438 159.019531 160.167969 158.671875 159.863281 C 149.910156 152.25 136.128906 156.148438 132.046875 167.597656 C 131.523438 170.007812 130.394531 172.6875 131.683594 175.457031 Z M 303.703125 173.660156 C 304.902344 175.445312 305.792969 177.425781 306.925781 179.265625 C 307.554688 180.292969 308.402344 181.535156 309.777344 180.394531 C 310.363281 179.914062 310.84375 178.714844 310.679688 178.007812 C 309.324219 172.296875 306 167.953125 300.773438 165.308594 C 294.972656 162.378906 288.328125 163.59375 283.738281 168.175781 C 283.089844 168.816406 282.652344 169.824219 283.265625 170.6875 C 283.882812 171.5625 284.835938 171.210938 285.648438 170.847656 C 287.050781 170.214844 288.40625 169.457031 289.839844 168.898438 C 292.230469 167.972656 294.671875 167.976562 297.496094 169.023438 C 299.890625 169.640625 302.105469 171.289062 303.703125 173.660156 Z M 303.703125 173.660156 " fill-opacity="1" fill-rule="nonzero"/></g></g></g></g></svg>