<svg xmlns="http://www.w3.org/2000/svg" xmlns:xlink="http://www.w3.org/1999/xlink" width="576" zoomAndPan="magnify" viewBox="0 0 432 431.999984" height="576" preserveAspectRatio="xMidYMid meet" version="1.0"><defs><clipPath id="378e7d72fc"><path d="M 119 102 L 324 102 L 324 323 L 119 323 Z M 119 102 " clip-rule="nonzero"/></clipPath><clipPath id="a156a1e760"><path d="M 150.179688 74.042969 L 357.59375 148.867188 L 282.003906 358.398438 L 74.589844 283.574219 Z M 150.179688 74.042969 " clip-rule="nonzero"/></clipPath><clipPath id="390dc6c940"><path d="M 150.179688 74.042969 L 357.59375 148.867188 L 282.003906 358.398438 L 74.589844 283.574219 Z M 150.179688 74.042969 " clip-rule="nonzero"/></clipPath></defs><g clip-path="url(#378e7d72fc)"><g clip-path="url(#a156a1e760)"><g clip-path="url(#390dc6c940)"><path fill="#ffffff" d="M 306.632812 203.601562 C 307.179688 205.289062 307.601562 206.769531 308.132812 208.207031 C 317.824219 234.453125 316.9375 260.605469 307.214844 286.597656 C 305.703125 290.648438 303.308594 294.359375 301.542969 298.328125 C 299.671875 302.546875 296.425781 305.160156 292.511719 307.339844 C 285.394531 311.296875 277.902344 314.253906 270.074219 316.386719 C 247.933594 322.425781 225.414062 323.722656 202.609375 321.789062 C 183.863281 320.199219 165.796875 316.074219 148.703125 308.066406 C 146.730469 307.140625 144.789062 306.171875 142.867188 305.152344 C 135.097656 301.023438 130.121094 294.726562 127.074219 286.414062 C 118.792969 263.847656 117.792969 240.902344 122.75 217.582031 C 124.234375 210.605469 125.78125 203.574219 128.980469 197.101562 C 130.234375 194.570312 130.179688 192.453125 128.144531 190.332031 C 126.644531 188.769531 125.21875 187.078125 124.082031 185.238281 C 116.769531 173.378906 118.5625 161.722656 125.234375 151.90625 C 131.691406 142.40625 144.523438 138.046875 155.871094 140.828125 C 161.808594 142.285156 166.738281 145.519531 170.640625 150.101562 C 172.992188 152.863281 175.292969 153.628906 178.730469 152.371094 C 187.558594 149.136719 196.800781 147.945312 206.125 147.144531 C 211.242188 146.707031 211.1875 146.582031 211.804688 141.792969 C 212.28125 138.101562 212.679688 134.382812 213.5 130.761719 C 214.25 127.449219 213.03125 125.558594 210.296875 123.882812 C 207.675781 122.269531 205.164062 120.367188 202.949219 118.226562 C 200.453125 115.8125 198.875 112.785156 198.765625 109.136719 C 198.648438 105.050781 202.109375 102.074219 206.101562 102.96875 C 208.925781 103.59375 211.355469 104.914062 213.007812 107.359375 C 214.042969 108.890625 214.964844 110.507812 215.859375 112.132812 C 218.289062 116.539062 218.324219 116.605469 222.132812 112.699219 C 224.320312 110.457031 226.523438 108.242188 229.445312 107.039062 C 231.132812 106.347656 232.996094 105.761719 234.789062 105.726562 C 237.6875 105.667969 240.410156 106.644531 241.867188 109.394531 C 243.300781 112.105469 242.75 114.875 241.167969 117.375 C 239.652344 119.773438 237.503906 121.585938 235.164062 123.152344 C 231.503906 125.609375 227.511719 127.441406 223.160156 128.035156 C 218.652344 128.652344 216.632812 131.089844 216.414062 135.425781 C 216.367188 136.351562 216.109375 137.265625 215.984375 138.191406 C 214.9375 146.0625 215.296875 146.476562 223.234375 147.191406 C 229.417969 147.75 235.582031 148.351562 241.691406 149.617188 C 250.921875 151.53125 259.640625 154.644531 267.660156 159.59375 C 269.933594 161 271.613281 160.734375 273.316406 158.734375 C 274.519531 157.324219 275.90625 156.042969 277.34375 154.867188 C 290.878906 143.789062 307.675781 148.402344 316.15625 157.605469 C 326.535156 168.878906 325.851562 186.496094 314.636719 197.113281 C 312.191406 199.429688 309.398438 201.378906 306.628906 203.609375 Z M 299.289062 290.777344 C 299.8125 290.566406 300.605469 290.496094 300.796875 290.121094 C 302.0625 287.640625 303.414062 285.171875 304.347656 282.554688 C 311.757812 261.808594 312.804688 240.710938 307.496094 219.328125 C 306.746094 216.316406 305.777344 213.355469 304.722656 210.4375 C 302.695312 204.835938 302.347656 204.355469 296.816406 204.925781 C 295.3125 205.078125 293.683594 205.492188 292.304688 204.46875 C 291.867188 204.144531 291.445312 203.523438 291.40625 203.007812 C 291.371094 202.5 291.683594 201.742188 292.089844 201.457031 C 294.273438 199.964844 296.898438 200.671875 299.300781 200.203125 C 311.410156 197.839844 319.570312 187.648438 318.921875 175.539062 C 318.242188 162.769531 308 152.957031 295.132812 152.761719 C 282.621094 152.574219 271.886719 162.492188 270.914062 175.1875 C 270.820312 176.421875 270.910156 177.667969 270.945312 178.910156 C 270.972656 179.84375 271.105469 180.769531 271.085938 181.703125 C 271.066406 182.636719 270.898438 183.738281 269.863281 183.929688 C 268.902344 184.109375 268.285156 183.269531 267.957031 182.359375 C 266.554688 178.402344 267.0625 174.386719 267.714844 170.394531 C 268.222656 167.277344 267.144531 165.101562 264.5625 163.265625 C 258.890625 159.226562 252.574219 156.644531 245.910156 155.046875 C 228.203125 150.796875 210.316406 149.878906 192.335938 153.070312 C 188.070312 153.828125 183.859375 154.988281 179.703125 156.222656 C 176.761719 157.097656 176.191406 158.085938 176.765625 161.042969 C 177.535156 165.023438 178.269531 168.976562 177.074219 172.96875 C 176.9375 173.421875 176.222656 173.945312 175.742188 173.980469 C 175.320312 174.011719 174.523438 173.453125 174.457031 173.058594 C 173.949219 170.011719 173.816406 166.875 173.117188 163.875 C 170.632812 153.234375 161.449219 145.40625 150.652344 144.503906 C 140.085938 143.617188 129.464844 150.179688 125.386719 160.113281 C 121.355469 169.914062 124.480469 181.816406 133.066406 188.707031 C 137.550781 192.304688 142.761719 194.125 148.558594 194.171875 C 150.394531 194.183594 152.328125 193.898438 153.945312 195.039062 C 154.347656 195.320312 154.464844 196.074219 154.589844 196.640625 C 154.640625 196.863281 154.4375 197.316406 154.234375 197.398438 C 153.128906 197.875 152.007812 198.5625 150.851562 198.644531 C 146.484375 198.949219 142.234375 198.332031 138.023438 197 C 134.613281 195.917969 133.835938 196.480469 132.355469 199.78125 C 132.230469 200.0625 132.105469 200.347656 131.996094 200.640625 C 123.511719 222.980469 121.578125 245.863281 126.328125 269.292969 C 126.449219 269.902344 126.550781 270.546875 126.84375 271.074219 C 127.109375 271.542969 127.601562 272.136719 128.046875 272.183594 C 128.507812 272.234375 129.316406 271.804688 129.480469 271.386719 C 130.277344 269.375 130.933594 267.300781 131.597656 265.234375 C 133.980469 257.769531 137.644531 250.964844 142.105469 244.558594 C 159.925781 218.988281 194.445312 204.355469 231.703125 215.847656 C 266.0625 226.445312 287.921875 249.902344 297.007812 284.925781 C 297.53125 286.949219 297.277344 289.320312 299.292969 290.773438 Z M 161.828125 309.449219 C 165.382812 310.554688 168.890625 311.871094 172.503906 312.738281 C 199.375 319.1875 226.476562 320.46875 253.78125 315.992188 C 264.226562 314.28125 274.507812 311.753906 284.097656 307.167969 C 297.210938 300.898438 296.675781 302.027344 293.539062 288.242188 C 285.210938 251.664062 262.570312 228.277344 226.261719 218.558594 C 208.550781 213.816406 191.046875 215.179688 174.460938 223.015625 C 149.722656 234.699219 136.109375 254.601562 132.734375 281.660156 C 132.128906 286.519531 132.8125 291.050781 136.265625 294.65625 C 138.390625 296.875 140.863281 298.84375 143.445312 300.515625 C 149.191406 304.234375 155.269531 307.355469 161.832031 309.445312 Z M 221.730469 120.558594 C 221.730469 121.101562 221.40625 122.214844 221.824219 122.800781 C 222.230469 123.367188 223.46875 123.753906 224.214844 123.605469 C 229.527344 122.550781 234.125 120.195312 237.40625 115.714844 C 238.703125 113.945312 238.722656 111.796875 237.535156 110.628906 C 236.265625 109.378906 234.742188 109.429688 233.222656 109.878906 C 227.785156 111.480469 224.46875 115.429688 221.730469 120.558594 Z M 212.84375 118.324219 C 212.933594 118.070312 213.160156 117.765625 213.121094 117.511719 C 212.402344 113.113281 210.671875 109.292969 206.550781 107.097656 C 205.921875 106.761719 204.617188 106.988281 204.027344 107.457031 C 203.429688 107.933594 202.917969 109.140625 203.085938 109.851562 C 204.15625 114.300781 206.835938 117.441406 211.257812 118.890625 C 211.667969 119.023438 212.28125 118.539062 212.84375 118.328125 Z M 225.160156 186.917969 C 228.667969 188.472656 231.894531 187.503906 234.511719 184.816406 C 237.589844 181.664062 238.175781 176.96875 236.164062 172.753906 C 235.605469 171.585938 234.597656 170.351562 233.394531 170.636719 C 231.136719 171.167969 232.09375 172.882812 232.609375 174.289062 C 232.820312 174.875 233.101562 175.445312 233.214844 176.050781 C 233.878906 179.625 232.953125 181.707031 230.179688 182.996094 C 227.554688 184.207031 225.011719 183.507812 222.941406 180.589844 C 221.523438 178.585938 220.53125 176.28125 219.277344 174.15625 C 218.707031 173.199219 216.636719 173.328125 216.101562 174.355469 C 215.25 176.003906 214.601562 177.761719 213.707031 179.382812 C 212.460938 181.625 210.886719 183.558594 207.910156 183.167969 C 205.328125 182.828125 203.609375 180.667969 203.21875 177.035156 C 203.019531 175.210938 203.3125 173.339844 203.210938 171.5 C 203.1875 171.0625 202.523438 170.386719 202.074219 170.320312 C 201.648438 170.253906 200.882812 170.714844 200.667969 171.140625 C 198.382812 175.742188 198.816406 180.160156 201.882812 184.253906 C 204.425781 187.652344 207.917969 188.578125 211.773438 186.675781 C 213.675781 185.738281 215.296875 184.234375 217.550781 182.625 C 220.339844 184.222656 222.644531 185.808594 225.160156 186.917969 Z M 131.71875 175.292969 C 131.9375 175.753906 132.59375 176.046875 133.105469 176.304688 C 133.238281 176.371094 133.738281 176.078125 133.808594 175.859375 C 134.183594 174.71875 134.492188 173.550781 134.792969 172.386719 C 137.511719 161.921875 143.503906 158.550781 154.1875 161.46875 C 155.367188 161.792969 156.542969 162.195312 157.746094 162.335938 C 158.140625 162.382812 158.839844 161.789062 158.988281 161.347656 C 159.144531 160.882812 159.007812 160.027344 158.664062 159.726562 C 149.914062 152.121094 136.15625 156.011719 132.078125 167.445312 C 131.558594 169.851562 130.429688 172.527344 131.714844 175.292969 Z M 303.476562 173.507812 C 304.675781 175.285156 305.566406 177.265625 306.695312 179.101562 C 307.324219 180.128906 308.171875 181.367188 309.542969 180.230469 C 310.125 179.75 310.609375 178.554688 310.441406 177.847656 C 309.089844 172.144531 305.769531 167.808594 300.550781 165.167969 C 294.757812 162.242188 288.125 163.457031 283.539062 168.027344 C 282.894531 168.671875 282.457031 169.675781 283.070312 170.539062 C 283.683594 171.410156 284.640625 171.058594 285.449219 170.695312 C 286.851562 170.066406 288.203125 169.308594 289.632812 168.753906 C 292.023438 167.828125 294.457031 167.832031 297.277344 168.875 C 299.667969 169.496094 301.882812 171.136719 303.476562 173.507812 Z M 303.476562 173.507812 " fill-opacity="1" fill-rule="nonzero"/></g></g></g></svg>